<svg width="200" height="200" viewBox="0 0 200 200" fill="none" xmlns="http://www.w3.org/2000/svg">
<path d="M95.9243 24.907C96.3862 24.9013 96.3862 24.9013 96.8574 24.8954C103.778 24.8275 110.416 24.9602 117.187 26.5626C117.49 26.6295 117.792 26.6964 118.104 26.7653C135.022 30.5702 150.266 41.2915 160.547 55.0782C160.791 55.4025 161.035 55.7268 161.287 56.0609C165.284 61.5654 168.228 67.5102 170.703 73.8282C170.805 74.0867 170.907 74.3452 171.013 74.6115C173.544 81.1545 175.023 88.5663 175.093 95.5811C175.097 95.8982 175.101 96.2153 175.105 96.5421C175.318 118.857 168.185 138.03 152.588 154.175C150.198 156.516 147.599 158.55 144.922 160.547C144.598 160.791 144.273 161.035 143.939 161.287C132.76 169.405 118.378 174.998 104.449 175.079C104.137 175.082 103.824 175.085 103.502 175.088C102.497 175.095 101.493 175.097 100.488 175.098C100.145 175.098 99.8027 175.098 99.4495 175.099C94.4663 175.092 89.6393 174.962 84.7656 173.828C84.4647 173.761 84.1637 173.694 83.8537 173.625C76.7589 172.012 70.0709 169.463 63.6718 166.016C63.3163 165.828 63.3163 165.828 62.9535 165.636C59.3955 163.746 56.2324 161.53 53.125 158.984C52.9119 158.812 52.6988 158.639 52.4793 158.461C47.5321 154.433 43.266 150.035 39.4531 144.922C39.2089 144.598 38.9646 144.273 38.713 143.939C30.5696 132.725 25.0465 118.378 24.9069 104.419C24.9031 104.102 24.8992 103.785 24.8953 103.458C24.6816 81.143 31.8148 61.9706 47.4121 45.8253C49.8015 43.4841 52.4004 41.45 55.0781 39.4532C55.4024 39.209 55.7266 38.9648 56.0607 38.7131C67.4206 30.4637 81.8019 25.0534 95.9243 24.907Z" fill="#F8F8FA"/>
<path d="M95.9243 24.907C96.3862 24.9013 96.3862 24.9013 96.8574 24.8954C103.778 24.8275 110.416 24.9602 117.187 26.5626C117.49 26.6295 117.792 26.6964 118.104 26.7653C135.022 30.5702 150.266 41.2915 160.547 55.0782C160.791 55.4025 161.035 55.7268 161.287 56.0609C165.284 61.5654 168.228 67.5102 170.703 73.8282C170.805 74.0867 170.907 74.3452 171.013 74.6115C173.544 81.1545 175.023 88.5663 175.093 95.5811C175.097 95.8982 175.101 96.2153 175.105 96.5421C175.318 118.857 168.185 138.03 152.588 154.175C150.198 156.516 147.599 158.55 144.922 160.547C144.598 160.791 144.273 161.035 143.939 161.287C132.76 169.405 118.378 174.998 104.449 175.079C104.137 175.082 103.824 175.085 103.502 175.088C102.497 175.095 101.493 175.097 100.488 175.098C100.145 175.098 99.8027 175.098 99.4495 175.099C94.4663 175.092 89.6393 174.962 84.7656 173.828C84.4647 173.761 84.1637 173.694 83.8537 173.625C76.7589 172.012 70.0709 169.463 63.6718 166.016C63.3163 165.828 63.3163 165.828 62.9535 165.636C59.3955 163.746 56.2324 161.53 53.125 158.984C52.9119 158.812 52.6988 158.639 52.4793 158.461C47.5321 154.433 43.266 150.035 39.4531 144.922C39.2089 144.598 38.9646 144.273 38.713 143.939C30.5696 132.725 25.0465 118.378 24.9069 104.419C24.9031 104.102 24.8992 103.785 24.8953 103.458C24.6816 81.143 31.8148 61.9706 47.4121 45.8253C49.8015 43.4841 52.4004 41.45 55.0781 39.4532C55.4024 39.209 55.7266 38.9648 56.0607 38.7131C67.4206 30.4637 81.8019 25.0534 95.9243 24.907ZM71.0937 44.5313C71.429 46.3353 72.4066 47.7543 73.3291 49.3149C73.8559 50.4507 73.9952 51.1102 73.8281 52.3438C73.0468 53.1251 73.0468 53.1251 71.9726 53.3936C70.4418 53.0698 70.3192 52.7774 69.4824 51.5137C69.1031 50.8819 68.7285 50.2472 68.3593 49.6094C68.054 49.143 67.7454 48.6786 67.4316 48.2178C67.2221 47.9036 67.0126 47.5894 66.7968 47.2657C63.7254 48.7022 61.3147 50.7738 58.7959 52.9963C58.277 53.4509 57.7494 53.8954 57.2204 54.3381C54.8979 56.3074 53.0301 58.5319 51.1718 60.9376C50.9294 61.2499 50.9294 61.2499 50.682 61.5685C48.6665 64.0098 48.6665 64.0098 47.2656 66.7969C47.4922 66.948 47.7188 67.0991 47.9522 67.2547C48.5838 67.6758 49.214 68.0991 49.8428 68.5242C50.3962 68.8878 50.9582 69.2394 51.5365 69.5618C52.1728 69.9219 52.1728 69.9219 53.125 70.7032C53.3203 71.9239 53.3203 71.9239 53.125 73.0469C52.8671 73.3048 52.6093 73.5626 52.3437 73.8282C49.9963 73.8282 48.5068 72.867 46.5759 71.5928C45.7011 70.9969 45.7011 70.9969 44.5312 71.0938C40.3245 79.528 37.7871 88.1814 37.5 97.6563C37.9939 97.6755 38.4879 97.6946 38.9968 97.7143C39.6453 97.7436 40.2938 97.7731 40.9423 97.8028C41.2679 97.8149 41.5934 97.827 41.9288 97.8394C42.399 97.8621 42.399 97.8621 42.8787 97.8852C43.1671 97.8975 43.4555 97.9097 43.7527 97.9224C44.5312 98.0469 44.5312 98.0469 45.7031 98.8282C45.6032 99.7435 45.4716 100.656 45.3125 101.563C44.0235 102.207 42.5815 102.103 41.1621 102.173C40.8489 102.19 40.5357 102.207 40.213 102.224C39.4389 102.266 38.6648 102.305 37.8906 102.344C37.3425 111.539 40.4611 120.766 44.5312 128.906C46.3351 128.571 47.7542 127.593 49.3148 126.671C50.4506 126.144 51.1101 126.005 52.3437 126.172C53.125 126.953 53.125 126.953 53.3935 128.027C53.0697 129.558 52.7773 129.681 51.5136 130.518C50.8818 130.897 50.2471 131.272 49.6093 131.641C49.1429 131.946 48.6785 132.255 48.2177 132.568C47.7464 132.883 47.7464 132.883 47.2656 133.203C48.7047 136.28 50.7855 138.694 53.0096 141.219C53.4432 141.714 53.8686 142.217 54.2922 142.72C56.5594 145.404 59.2044 147.551 61.9628 149.707C62.1731 149.873 62.3834 150.039 62.6001 150.21C63.9319 151.236 65.272 152.029 66.7968 152.734C67.0234 152.395 67.0234 152.395 67.2546 152.048C67.6757 151.416 68.0989 150.786 68.5241 150.157C68.8876 149.604 69.2393 149.042 69.5617 148.464C69.9218 147.827 69.9218 147.827 70.7031 146.875C71.9238 146.68 71.9238 146.68 73.0468 146.875C73.8281 147.656 73.8281 147.656 73.8281 148.828C73.5352 150.593 72.5637 151.953 71.5927 153.424C70.9968 154.299 70.9968 154.299 71.0937 155.469C79.424 159.72 88.2347 162.475 97.6562 162.109C97.6849 161.362 97.6849 161.362 97.7142 160.599C97.7435 159.947 97.773 159.295 97.8027 158.643C97.8148 158.314 97.8269 157.985 97.8393 157.646C97.862 157.174 97.862 157.174 97.8851 156.693C97.8974 156.402 97.9096 156.112 97.9223 155.812C98.0468 155.078 98.0468 155.078 98.8281 154.297C101.397 154.522 101.397 154.522 101.953 155.078C102.014 155.602 102.051 156.128 102.077 156.654C102.101 157.128 102.101 157.128 102.126 157.612C102.142 157.944 102.157 158.276 102.173 158.618C102.19 158.952 102.207 159.285 102.224 159.629C102.265 160.456 102.305 161.283 102.344 162.109C111.539 162.658 120.766 159.539 128.906 155.469C128.571 153.665 127.593 152.246 126.671 150.685C126.144 149.549 126.005 148.89 126.172 147.656C126.953 146.875 126.953 146.875 128.027 146.607C129.558 146.93 129.681 147.223 130.518 148.486C130.897 149.118 131.271 149.753 131.641 150.391C131.946 150.857 132.254 151.322 132.568 151.782C132.883 152.254 132.883 152.254 133.203 152.734C140.836 149.165 147.94 141.429 152.344 134.375C152.66 133.495 152.66 133.495 152.734 132.813C152.344 132.592 151.954 132.37 151.552 132.143C151.043 131.853 150.533 131.564 150.024 131.274C149.767 131.129 149.509 130.983 149.244 130.833C147.31 129.732 147.31 129.732 146.875 129.297C146.802 128.149 146.802 128.149 146.875 126.953C147.133 126.695 147.391 126.438 147.656 126.172C150.004 126.172 151.493 127.133 153.424 128.407C154.299 129.003 154.299 129.003 155.469 128.906C158.451 122.848 160.415 116.774 161.719 110.156C161.797 109.761 161.875 109.366 161.955 108.959C162.137 107.605 162.147 106.297 162.134 104.932C162.128 104.202 162.128 104.202 162.123 103.458C162.119 103.09 162.114 102.723 162.109 102.344C161.611 102.329 161.112 102.315 160.599 102.3C159.947 102.274 159.295 102.248 158.643 102.222C158.314 102.213 157.985 102.204 157.646 102.195C157.331 102.181 157.017 102.167 156.692 102.153C156.257 102.138 156.257 102.138 155.812 102.122C155.078 101.953 155.078 101.953 154.297 100.781C154.199 99.7803 154.199 99.7803 154.297 98.8282C155.216 97.9088 155.441 97.9381 156.692 97.8852C157.007 97.8701 157.322 97.855 157.646 97.8394C157.975 97.8273 158.304 97.8153 158.643 97.8028C158.974 97.7877 159.306 97.7726 159.648 97.757C160.468 97.7202 161.289 97.6878 162.109 97.6563C162.621 88.2838 159.604 79.3882 155.469 71.0938C153.665 71.4291 152.246 72.4067 150.685 73.3292C149.549 73.856 148.89 73.9954 147.656 73.8282C146.875 73.0469 146.875 73.0469 146.606 71.9727C146.93 70.442 147.223 70.3193 148.486 69.4825C149.118 69.1032 149.753 68.7286 150.391 68.3594C150.857 68.0541 151.321 67.7455 151.782 67.4317C152.253 67.1175 152.253 67.1175 152.734 66.7969C151.298 63.7255 149.226 61.3148 147.004 58.796C146.549 58.2771 146.105 57.7495 145.662 57.2205C143.693 54.898 141.468 53.0303 139.062 51.1719C138.854 51.0103 138.646 50.8487 138.431 50.6821C135.99 48.6667 135.99 48.6667 133.203 47.2657C132.976 47.6056 132.976 47.6056 132.745 47.9523C132.324 48.5839 131.901 49.2141 131.476 49.8429C131.112 50.3963 130.761 50.9584 130.438 51.5366C130.078 52.1729 130.078 52.1729 129.297 53.1251C128.076 53.3204 128.076 53.3204 126.953 53.1251C126.695 52.8673 126.437 52.6094 126.172 52.3438C126.172 49.9964 127.133 48.5069 128.407 46.576C129.003 45.7012 129.003 45.7012 128.906 44.5313C120.847 40.5647 111.472 37.2946 102.344 37.5001C102.329 37.994 102.314 38.488 102.299 38.997C102.274 39.6455 102.248 40.294 102.222 40.9425C102.208 41.4308 102.208 41.4308 102.195 41.9289C102.181 42.2424 102.167 42.5558 102.153 42.8788C102.143 43.1672 102.133 43.4557 102.122 43.7528C101.909 44.7348 101.569 45.0941 100.781 45.7032C99.7802 45.8497 99.7802 45.8497 98.8281 45.7032C98.0413 44.5231 97.942 44.2162 97.8851 42.8788C97.87 42.5653 97.8549 42.2519 97.8393 41.9289C97.8212 41.4406 97.8212 41.4406 97.8027 40.9425C97.7876 40.6124 97.7725 40.2823 97.7569 39.9422C97.7201 39.1283 97.6877 38.3142 97.6562 37.5001C88.4447 37.5001 79.2197 40.3313 71.0937 44.5313Z" fill="#6C818F"/>
<path d="M95.9243 24.907C96.3862 24.9013 96.3862 24.9013 96.8574 24.8954C103.778 24.8275 110.416 24.9602 117.187 26.5626C117.49 26.6295 117.792 26.6964 118.104 26.7653C132.979 30.1107 145.798 38.7735 156.25 49.6094C154.639 49.6094 154.242 48.9673 153.052 47.9005C138.332 35.193 118.16 30.5117 99.1478 31.7197C79.885 33.4407 61.5009 43.3303 48.9637 57.961C36.0239 73.5225 30.0623 93.6007 31.8222 113.687C33.4423 128.898 39.4865 143.568 49.6093 155.078C49.4804 155.336 49.3515 155.594 49.2187 155.859C45.6425 152.424 42.3977 148.913 39.4531 144.922C39.089 144.438 39.089 144.438 38.7176 143.944C30.5653 132.739 25.0465 118.373 24.9069 104.419C24.9031 104.102 24.8992 103.785 24.8953 103.458C24.6816 81.143 31.8148 61.9706 47.4121 45.8253C49.8015 43.4841 52.4004 41.45 55.0781 39.4532C55.4024 39.209 55.7266 38.9648 56.0607 38.7131C67.4206 30.4637 81.8019 25.0534 95.9243 24.907Z" fill="#798C9C"/>
<path d="M99.6095 53.5156C99.8673 53.5156 100.125 53.5156 100.391 53.5156C101.246 55.0991 102.087 56.6891 102.916 58.2864C103.199 58.8274 103.486 59.3664 103.776 59.9034C105.579 63.2409 106.669 65.6967 105.86 69.5312C105.745 70.4536 105.637 71.3769 105.535 72.3007C105.408 73.3227 105.28 74.3445 105.152 75.3662C105.118 75.6338 105.085 75.9014 105.05 76.1771C104.347 81.7843 103.558 87.3779 102.735 92.9688C102.96 93.0251 103.186 93.0815 103.418 93.1396C104.297 93.3594 104.297 93.3594 105.05 93.644C106.251 93.8013 106.847 93.3264 107.877 92.7124C108.278 92.4769 108.679 92.2414 109.092 91.9988C109.524 91.7388 109.956 91.4788 110.401 91.2109C110.855 90.9425 111.309 90.6745 111.763 90.4071C112.71 89.8497 113.655 89.2901 114.599 88.7289C117.211 87.1795 119.848 85.673 122.482 84.1614C124.515 82.9929 126.54 81.8147 128.551 80.6076C128.925 80.3861 129.298 80.1647 129.683 79.9365C130.382 79.5222 131.077 79.103 131.769 78.6778C134.047 77.3378 134.047 77.3378 135.724 77.3682C136.719 77.7344 136.719 77.7344 137.5 78.5156C137.573 79.7852 137.573 79.7852 137.11 81.25C134.774 83.2685 131.769 84.652 129.077 86.1328C125.663 88.0277 122.268 89.9491 118.897 91.9189C118.509 92.1453 118.122 92.3718 117.722 92.605C116.005 93.6112 114.293 94.624 112.592 95.6558C112.317 95.8226 112.041 95.9894 111.758 96.1612C111.26 96.4641 110.764 96.7687 110.268 97.0754C108.678 98.0469 108.678 98.0469 107.813 98.0469C108.006 99.5938 108.006 99.5938 108.203 101.172C108.677 101.296 109.151 101.42 109.64 101.549C125.39 105.794 125.39 105.794 128.933 111.69C129.945 113.482 130.837 115.294 131.641 117.188C131.897 117.71 132.156 118.232 132.422 118.75C130.811 118.695 129.199 118.637 127.588 118.579C127.136 118.564 126.685 118.548 126.219 118.533C124.901 118.484 123.584 118.425 122.266 118.359C121.891 118.344 121.516 118.329 121.129 118.313C119.067 118.182 117.918 117.955 116.431 116.406C115.101 115.091 113.767 113.864 112.305 112.695C110.512 111.25 108.815 109.728 107.144 108.144C106.205 107.385 105.46 106.959 104.297 106.641C103.634 106.921 102.972 107.205 102.324 107.518C100.912 108.064 99.5289 108.06 98.047 107.812C97.2038 107.436 96.4456 107.021 95.6728 106.516C94.9037 106.164 94.9037 106.164 94.0218 106.493C92.4901 107.276 91.0314 108.181 89.5891 109.118C88.2987 109.899 87.5293 110.157 86.0079 110.127C84.7658 109.766 84.7658 109.766 83.9845 108.594C83.925 107.478 83.925 107.478 84.3752 106.25C85.3834 105.393 86.506 104.795 87.6711 104.175C87.9795 104.002 88.2879 103.83 88.6057 103.652C89.6598 103.065 90.7179 102.493 91.797 101.953C91.9216 101.168 92.0136 100.377 92.09 99.585C92.4337 97.1197 93.072 95.4455 94.922 93.75C95.5693 93.3531 96.22 92.9618 96.8752 92.5781C96.6667 88.3699 96.1795 84.2631 95.5324 80.1025C95.1917 77.8819 94.8565 75.6605 94.5314 73.4375C94.4898 73.155 94.4481 72.8726 94.4052 72.5816C94.2837 71.7439 94.1679 70.9056 94.0538 70.0668C93.9858 69.5786 93.9178 69.0904 93.8477 68.5874C93.6658 65.9766 94.1912 64.1082 95.3752 61.7935C95.4961 61.5546 95.6169 61.3157 95.7414 61.0696C96.1238 60.3156 96.5115 59.5646 96.8996 58.8135C97.1616 58.2992 97.4233 57.7847 97.6846 57.2701C98.3221 56.0164 98.9645 54.7654 99.6095 53.5156Z" fill="#6D818F"/>
<path d="M25 165.625C25 168.719 25 171.813 25 175C34.2813 175 43.5625 175 53.125 175C53.125 179.125 53.125 183.25 53.125 187.5C43.8437 187.5 34.5625 187.5 25 187.5C25 190.594 25 193.688 25 196.875C22.8064 195.998 22.8064 195.998 21.7499 195.171C21.5125 194.988 21.275 194.805 21.0304 194.617C20.7774 194.419 20.5244 194.222 20.2637 194.019C17.9201 192.223 15.5336 190.518 13.0859 188.867C9.6804 186.567 6.38776 184.138 3.125 181.641C3.66682 180.346 4.21715 179.744 5.38635 178.979C5.68653 178.78 5.9867 178.58 6.29597 178.374C6.61918 178.163 6.94239 177.952 7.27539 177.734C9.73405 176.093 12.1509 174.424 14.502 172.632C16.7238 170.945 18.967 169.293 21.2402 167.676C21.5263 167.47 21.8124 167.265 22.1071 167.053C22.3719 166.866 22.6367 166.679 22.9095 166.486C23.1439 166.319 23.3782 166.153 23.6197 165.981C24.2188 165.625 24.2188 165.625 25 165.625Z" fill="#FA7DA5"/>
<path d="M175 3.125C177.194 4.00244 177.194 4.00244 178.25 4.82941C178.488 5.01219 178.725 5.19498 178.97 5.3833C179.349 5.67938 179.349 5.67938 179.736 5.98145C182.08 7.77682 184.466 9.48229 186.914 11.1328C190.32 13.4331 193.612 15.8617 196.875 18.3594C196.333 19.6545 195.783 20.2556 194.614 21.0205C194.313 21.2204 194.013 21.4204 193.704 21.6264C193.381 21.8373 193.058 22.0483 192.725 22.2656C190.266 23.9067 187.849 25.576 185.498 27.3682C183.276 29.0551 181.033 30.7069 178.76 32.3242C178.331 32.6324 178.331 32.6324 177.893 32.9469C177.628 33.1342 177.363 33.3214 177.09 33.5144C176.739 33.7642 176.739 33.7642 176.38 34.0191C175.781 34.375 175.781 34.375 175 34.375C175 31.2812 175 28.1875 175 25C165.719 25 156.437 25 146.875 25C146.875 20.875 146.875 16.75 146.875 12.5C156.156 12.5 165.438 12.5 175 12.5C175 9.40625 175 6.3125 175 3.125Z" fill="#A9E884"/>
<path d="M99.6089 53.5156C99.8667 53.5156 100.125 53.5156 100.39 53.5156C101.245 55.0991 102.086 56.6891 102.915 58.2864C103.198 58.8274 103.485 59.3664 103.776 59.9034C105.579 63.2415 106.667 65.6962 105.859 69.5312C105.744 70.4582 105.636 71.3861 105.534 72.3145C105.407 73.34 105.28 74.3654 105.151 75.3906C105.101 75.793 105.101 75.793 105.049 76.2034C104.364 81.6751 103.571 87.1276 102.734 92.5781C100.929 92.5781 99.1246 92.5781 97.2652 92.5781C96.3756 86.7636 95.5302 80.9427 94.7395 75.1139C94.6496 74.4548 94.5584 73.796 94.4658 73.1373C94.3348 72.2022 94.2087 71.2667 94.0837 70.3308C94.0439 70.0537 94.0042 69.7765 93.9632 69.491C93.5809 66.5431 94.0294 64.4234 95.3746 61.7935C95.4955 61.5546 95.6163 61.3157 95.7408 61.0696C96.1232 60.3156 96.5109 59.5646 96.899 58.8135C97.161 58.2992 97.4227 57.7847 97.684 57.2701C98.3215 56.0164 98.9639 54.7654 99.6089 53.5156Z" fill="#F97EA6"/>
<path d="M107.812 101.172C109.758 101.817 111.704 102.463 113.649 103.11C114.31 103.33 114.97 103.549 115.631 103.768C116.585 104.085 117.54 104.402 118.494 104.72C118.785 104.816 119.077 104.913 119.377 105.012C119.938 105.199 120.498 105.389 121.057 105.582C121.607 105.769 122.162 105.945 122.719 106.111C124.717 106.751 125.584 107.485 126.73 109.312C126.871 109.533 127.013 109.753 127.158 109.979C127.602 110.676 128.034 111.38 128.467 112.085C128.765 112.556 129.064 113.027 129.364 113.497C131.612 117.045 131.612 117.045 132.422 118.75C130.81 118.695 129.199 118.637 127.588 118.579C127.136 118.564 126.685 118.548 126.219 118.533C124.901 118.484 123.583 118.425 122.266 118.359C121.891 118.344 121.516 118.329 121.129 118.313C119.067 118.182 117.918 117.955 116.431 116.406C115.1 115.091 113.767 113.864 112.305 112.695C110.501 111.237 108.774 109.714 107.068 108.144C106.225 107.367 106.225 107.367 105.078 106.641C105.99 104.818 106.901 102.995 107.812 101.172Z" fill="#F97EA5"/>
<path d="M146.875 12.5C156.156 12.5 165.438 12.5 175 12.5C175 14.5625 175 16.625 175 18.75C167.781 18.75 160.563 18.75 153.125 18.75C153.125 20.8125 153.125 22.875 153.125 25C151.062 25 149 25 146.875 25C146.875 20.875 146.875 16.75 146.875 12.5Z" fill="#B9F49B"/>
<path d="M25 175C34.2813 175 43.5625 175 53.125 175C53.125 177.063 53.125 179.125 53.125 181.25C43.8437 181.25 34.5625 181.25 25 181.25C25 179.187 25 177.125 25 175Z" fill="#FB97B9"/>
<path d="M136.719 77.7343C137.5 78.5156 137.5 78.5156 137.573 79.7851C136.555 83.0005 131.892 84.5845 129.077 86.1328C125.663 88.0276 122.268 89.9491 118.896 91.9189C118.509 92.1453 118.121 92.3717 117.722 92.605C116.005 93.6111 114.293 94.6239 112.592 95.6558C112.316 95.8225 112.041 95.9893 111.758 96.1611C111.26 96.4641 110.764 96.7687 110.268 97.0753C108.678 98.0468 108.678 98.0468 107.812 98.0468C107.684 98.4335 107.555 98.8203 107.422 99.2187C107.269 98.4685 107.117 97.7182 106.964 96.968C106.543 95.8307 105.865 95.0532 105.078 94.1406C105.301 94.0154 105.524 93.8902 105.754 93.7612C110.064 91.3397 114.361 88.899 118.628 86.4013C119.402 85.9507 120.175 85.5 120.949 85.0494C122.512 84.1379 124.07 83.2186 125.624 82.2926C126.619 81.7018 127.617 81.1166 128.615 80.5323C129.098 80.248 129.58 79.9614 130.06 79.6724C130.731 79.2691 131.407 78.8746 132.083 78.4805C132.469 78.2514 132.856 78.0223 133.254 77.7863C134.607 77.2523 135.335 77.3295 136.719 77.7343Z" fill="#7C8E9E"/>
<path d="M25 165.625C25.4521 167.981 25.8226 170.346 25 172.656C23.3219 174.677 20.8433 175.866 18.5871 177.138C17.0347 178.056 15.6301 179.142 14.209 180.249C12.1273 181.836 10.0257 183.364 7.8125 184.766C6.11652 183.834 4.60687 182.898 3.125 181.641C3.66682 180.346 4.21715 179.744 5.38635 178.979C5.68653 178.78 5.9867 178.58 6.29597 178.374C6.61918 178.163 6.94239 177.952 7.27539 177.734C9.73405 176.093 12.1509 174.424 14.502 172.632C16.7238 170.945 18.967 169.293 21.2402 167.676C21.5263 167.47 21.8124 167.265 22.1071 167.053C22.3719 166.866 22.6367 166.679 22.9095 166.486C23.1439 166.319 23.3782 166.153 23.6197 165.981C24.2188 165.625 24.2188 165.625 25 165.625Z" fill="#FB96B8"/>
<path d="M175 3.125C176.868 3.73255 178.209 4.79016 179.736 5.98145C182.079 7.77682 184.466 9.48229 186.914 11.1328C190.319 13.4331 193.612 15.8617 196.875 18.3594C196.353 19.5647 195.839 20.2515 194.775 21.0205C194.546 21.1922 194.318 21.3639 194.082 21.5408C193.137 21.9778 192.773 21.8073 191.796 21.4844C191.121 21.0903 191.121 21.0903 190.438 20.5994C190.18 20.4151 189.921 20.2309 189.655 20.0411C189.241 19.7404 189.241 19.7404 188.818 19.4336C188.529 19.2266 188.24 19.0196 187.942 18.8063C187.012 18.1388 186.084 17.4679 185.156 16.7969C184.526 16.344 183.896 15.8913 183.265 15.4388C179.997 13.0884 179.997 13.0884 178.934 12.2999C178.38 11.9019 177.811 11.5237 177.231 11.1635C175.134 9.79876 175.134 9.79876 174.755 8.605C174.692 7.7492 174.724 6.95744 174.804 6.10352C174.818 5.81599 174.832 5.52847 174.847 5.23224C174.884 4.52894 174.94 3.82669 175 3.125Z" fill="#B9F39A"/>
<path d="M102.344 37.5C111.786 38.0426 120.444 40.3003 128.906 44.5312C128.682 45.6513 128.57 46.0396 127.734 46.875C127.283 46.7058 126.832 46.5366 126.367 46.3623C124.636 45.7843 122.885 45.4035 121.094 45.0684C120.839 45.0204 120.585 44.9724 120.322 44.9229C119.539 44.7816 118.755 44.6531 117.969 44.5312C117.719 44.4919 117.469 44.4525 117.211 44.4119C114.216 44.0091 111.194 44.098 108.179 44.1162C107.611 44.1182 107.044 44.12 106.477 44.1216C105.099 44.1255 103.721 44.1331 102.344 44.1406C102.344 41.9492 102.344 39.7578 102.344 37.5Z" fill="#EDF1F8"/>
<path d="M92.1877 100.781C92.3166 100.781 92.4455 100.781 92.5783 100.781C92.7309 101.531 92.8835 102.282 93.036 103.032C93.4568 104.169 94.1356 104.947 94.922 105.859C93.7493 106.596 92.5669 107.315 91.382 108.032C91.0509 108.24 90.7198 108.449 90.3787 108.663C88.783 109.618 87.8313 110.154 85.9392 110.167C84.7658 109.766 84.7658 109.766 83.9845 108.594C83.925 107.478 83.925 107.478 84.3752 106.25C85.3834 105.393 86.506 104.795 87.6711 104.175C87.9795 104.002 88.2879 103.83 88.6057 103.652C89.6598 103.065 90.7179 102.493 91.797 101.953C91.9259 101.566 92.0548 101.18 92.1877 100.781Z" fill="#7D8F9F"/>
<path d="M100.22 153.98C101.562 154.297 101.562 154.297 102.344 155.078C102.432 155.812 102.432 155.812 102.42 156.693C102.418 157.007 102.415 157.322 102.412 157.646C102.406 157.975 102.399 158.304 102.393 158.643C102.389 158.975 102.386 159.306 102.382 159.648C102.373 160.469 102.359 161.289 102.344 162.11C103.246 162.11 104.148 162.11 105.078 162.11C105.078 162.238 105.078 162.367 105.078 162.5C101.598 162.5 98.1172 162.5 94.5312 162.5C94.5312 162.371 94.5312 162.242 94.5312 162.11C95.5625 162.11 96.5937 162.11 97.6562 162.11C97.6427 161.616 97.6291 161.122 97.6151 160.613C97.6041 159.964 97.5934 159.316 97.583 158.667C97.5732 158.342 97.5634 158.016 97.5533 157.681C97.5476 157.211 97.5476 157.211 97.5418 156.731C97.5357 156.442 97.5295 156.154 97.5232 155.857C97.8124 154.165 98.5983 153.894 100.22 153.98Z" fill="#7E8FA0"/>
<path d="M162.109 94.5312C162.238 94.5312 162.367 94.5312 162.5 94.5312C162.5 98.0117 162.5 101.492 162.5 105.078C162.371 105.078 162.242 105.078 162.109 105.078C162.109 104.176 162.109 103.273 162.109 102.344C161.368 102.371 161.368 102.371 160.612 102.399C159.964 102.413 159.315 102.428 158.667 102.441C158.179 102.461 158.179 102.461 157.68 102.481C155.273 102.52 155.273 102.52 154.277 101.619C153.821 100.588 153.735 99.9438 153.906 98.8281C154.519 98.0334 154.856 97.6942 155.857 97.5232C156.145 97.5293 156.433 97.5355 156.731 97.5418C157.044 97.5456 157.358 97.5494 157.68 97.5533C158.006 97.5631 158.332 97.5729 158.667 97.583C159.162 97.5909 159.162 97.5909 159.667 97.599C160.481 97.6128 161.295 97.6338 162.109 97.6562C162.109 96.625 162.109 95.5938 162.109 94.5312Z" fill="#7E8FA0"/>
<path d="M37.5 97.6564C38.6279 97.6322 39.7559 97.6081 40.918 97.5832C41.2708 97.5725 41.6237 97.5618 41.9872 97.5508C44.31 97.5267 44.31 97.5267 45.5383 98.2469C45.8133 98.5347 45.8133 98.5347 46.0938 98.8283C45.9717 100.147 45.9717 100.147 45.7031 101.563C44.513 102.356 44.2964 102.44 42.9642 102.42C42.6683 102.418 42.3725 102.415 42.0677 102.413C41.7608 102.406 41.4539 102.399 41.1377 102.393C40.8263 102.389 40.5148 102.386 40.1939 102.382C39.4261 102.373 38.6584 102.359 37.8906 102.344C37.8906 103.375 37.8906 104.406 37.8906 105.469C37.7617 105.469 37.6328 105.469 37.5 105.469C37.5 102.891 37.5 100.313 37.5 97.6564Z" fill="#7C8E9F"/>
<path d="M46.875 66.4062C47.7634 66.9003 48.6502 67.3971 49.5361 67.8955C49.7871 68.0347 50.0382 68.174 50.2968 68.3174C52.771 69.7147 52.771 69.7147 53.5156 70.7031C53.6692 71.9316 53.7014 72.7081 53.1006 73.8037C52.1609 74.319 51.4755 74.3047 50.4318 74.1089C48.2827 73.3752 46.4074 71.9539 44.5312 70.7031C45.3047 69.2852 46.0781 67.8672 46.875 66.4062Z" fill="#7C8E9F"/>
<path d="M128.906 44.5312C130.453 45.3047 132 46.0781 133.594 46.875C133.1 47.7634 132.603 48.6502 132.105 49.5361C131.965 49.7871 131.826 50.0382 131.683 50.2968C130.285 52.771 130.285 52.771 129.297 53.5156C128.069 53.6692 127.292 53.7014 126.196 53.1006C125.681 52.1612 125.696 51.4754 125.89 50.4318C126.373 49.025 127.175 47.82 127.979 46.5759C128.57 45.6898 128.57 45.6898 128.906 44.5312Z" fill="#7C8E9F"/>
<path d="M52.3438 125.781C53.0518 126.221 53.0518 126.221 53.5156 126.953C53.7109 128.101 53.7109 128.101 53.5156 129.297C51.9618 130.954 49.6602 132.139 47.6562 133.203C47.3984 133.203 47.1406 133.203 46.875 133.203C46.1016 131.785 45.3281 130.367 44.5312 128.906C50.6373 125.562 50.6373 125.562 52.3438 125.781Z" fill="#7C8E9F"/>
<path d="M70.7031 44.5312C71.6178 45.7508 72.3779 46.8965 73.1201 48.2178C73.3271 48.5798 73.534 48.9419 73.7473 49.3149C74.241 50.4415 74.3506 51.1301 74.2188 52.3438C73.7793 53.0518 73.7793 53.0518 73.0469 53.5156C71.8994 53.7109 71.8994 53.7109 70.7031 53.5156C68.8635 51.791 67.5332 49.1289 66.4062 46.875C67.8242 46.1016 69.2422 45.3281 70.7031 44.5312Z" fill="#7C8E9F"/>
<path d="M97.6562 37.5C99.2031 37.5 100.75 37.5 102.344 37.5C102.386 38.6397 102.417 39.7779 102.441 40.918C102.461 41.4014 102.461 41.4014 102.481 41.8945C102.52 44.2897 102.52 44.2897 101.619 45.5261C100.781 46.0938 100.781 46.0938 99.7802 46.2891C98.8281 46.0938 98.8281 46.0938 98.1872 45.5261C97.3826 44.0186 97.5318 42.5972 97.583 40.918C97.5883 40.5897 97.5936 40.2614 97.599 39.9231C97.6128 39.1153 97.6338 38.3076 97.6562 37.5Z" fill="#7B8D9D"/>
<path d="M129.297 146.485C130.954 148.038 132.139 150.34 133.203 152.344C133.203 152.602 133.203 152.86 133.203 153.125C131.785 153.899 130.367 154.672 128.906 155.469C125.562 149.363 125.562 149.363 125.781 147.656C126.663 146.236 127.725 146.228 129.297 146.485Z" fill="#7D8E9F"/>
<path d="M71.8506 146.362C73.0469 146.484 73.0469 146.484 73.8037 146.899C74.319 147.839 74.3047 148.525 74.1089 149.568C73.3752 151.717 71.9539 153.593 70.7031 155.469C69.4141 154.695 68.125 153.922 66.7969 153.125C67.3823 151.662 67.9453 150.475 68.75 149.146C68.9514 148.81 69.1528 148.474 69.3604 148.128C70.4104 146.516 70.4104 146.516 71.8506 146.362Z" fill="#7D8E9F"/>
<path d="M152.734 66.4062C153.922 67.8315 154.674 69.4314 155.469 71.0938C154.785 71.4684 154.102 71.8427 153.418 72.2168C153.037 72.4253 152.657 72.6337 152.264 72.8485C149.326 74.4328 149.326 74.4328 147.656 74.2188C146.948 73.7793 146.948 73.7793 146.484 73.0469C146.289 71.8994 146.289 71.8994 146.484 70.7031C147.865 69.2306 149.785 68.3066 151.52 67.2928C152.309 66.8627 152.309 66.8627 152.734 66.4062Z" fill="#7C8E9E"/>
<path d="M149.568 125.891C151.717 126.625 153.593 128.046 155.469 129.297C154.309 131.231 154.309 131.231 153.125 133.203C152.237 132.775 151.35 132.343 150.464 131.909C150.213 131.789 149.962 131.668 149.703 131.544C147.251 130.337 147.251 130.337 146.484 129.297C146.331 128.069 146.299 127.292 146.899 126.196C147.839 125.681 148.525 125.695 149.568 125.891Z" fill="#7C8E9F"/>
<path d="M133.203 47.2656C134.363 47.9102 135.523 48.5547 136.719 49.2188C135.387 49.6627 135.155 49.5576 133.911 49.0479C133.632 48.9356 133.352 48.8233 133.064 48.7076C132.852 48.6185 132.64 48.5293 132.422 48.4375C132.68 48.0508 132.937 47.6641 133.203 47.2656Z" fill="#E7ECF3"/>
<path d="M152.734 46.4844C153.175 46.8487 153.614 47.2154 154.053 47.583C154.297 47.7869 154.542 47.9909 154.794 48.201C155.469 48.8281 155.469 48.8281 156.25 50C154.906 49.4025 153.819 48.6509 152.734 47.6562C152.734 47.2695 152.734 46.8828 152.734 46.4844Z" fill="#7190A2"/>
</svg>
