<svg width="200" height="200" viewBox="0 0 200 200" fill="none" xmlns="http://www.w3.org/2000/svg">
<path d="M36.6803 27.1427C37.1239 27.14 37.5675 27.1373 38.0245 27.1345C39.498 27.1274 40.9712 27.1313 42.4447 27.1353C43.5064 27.1334 44.5681 27.1292 45.6298 27.1251C48.2066 27.1167 50.7832 27.1167 53.36 27.1199C55.456 27.1224 57.552 27.1219 59.648 27.1194C59.9471 27.1191 60.2463 27.1187 60.5546 27.1184C61.1625 27.1176 61.7704 27.1169 62.3783 27.1162C68.0696 27.1097 73.7608 27.1131 79.452 27.1197C84.6491 27.1254 89.846 27.1197 95.043 27.1084C100.39 27.0969 105.738 27.0927 111.085 27.0964C111.691 27.0968 112.297 27.0972 112.903 27.0976C113.201 27.0978 113.499 27.0979 113.806 27.0981C115.897 27.099 117.988 27.0952 120.078 27.0895C122.63 27.0826 125.182 27.0827 127.734 27.0916C129.034 27.0959 130.333 27.0961 131.633 27.0899C144.266 27.034 144.266 27.034 149.22 31.9229C151.076 34.0401 151.977 36.084 152.033 38.9003C152.041 39.2522 152.048 39.604 152.056 39.9664C152.066 40.5311 152.066 40.5311 152.076 41.1072C152.084 41.4951 152.092 41.8831 152.101 42.2828C152.126 43.5205 152.149 44.7583 152.172 45.9961C152.189 46.8358 152.206 47.6756 152.224 48.5153C152.265 50.5727 152.305 52.63 152.343 54.6875C152.587 54.317 152.831 53.9465 153.083 53.5647C154.57 51.3583 156.396 49.2675 158.984 48.4375C160.552 48.3489 162.103 48.369 163.671 48.4375C163.792 47.9903 163.792 47.9903 163.916 47.5342C165.232 44.0024 167.091 40.7243 170.043 38.3301C172.541 37.2845 174.775 37.3009 177.29 38.2797C179.567 39.3497 181.147 40.5201 182.162 42.8817C183.2 46.3556 182.033 49.2188 180.468 52.3437C179.929 53.2769 179.385 54.1986 178.797 55.1025C178.418 55.8704 178.418 55.8704 178.817 56.6864C179.164 57.2191 179.53 57.7397 179.907 58.2519C181.507 61.4514 180.769 64.7077 179.687 67.9687C179.341 68.7994 178.969 69.5341 178.515 70.3125C178.836 70.4066 179.158 70.5008 179.489 70.5978C181.103 71.1821 182.539 71.9399 184.033 72.7783C184.307 72.9261 184.582 73.0739 184.864 73.2261C186.893 74.3594 188.181 75.5112 189.184 77.6611C189.751 80.2872 189.044 82.3644 187.821 84.6832C187.696 84.9241 187.571 85.1651 187.442 85.4133C187.034 86.1928 186.62 86.9684 186.206 87.7441C185.919 88.2896 185.632 88.8352 185.346 89.381C183.554 92.7883 181.722 96.174 179.862 99.5447C178.414 102.176 177.025 104.837 175.651 107.508C172.341 113.933 172.341 113.933 170.874 116.553C170.547 117.137 170.547 117.137 170.213 117.734C169.174 119.281 168.198 120.496 166.406 121.094C164.637 121.25 163.032 121.314 161.376 120.63C160.053 119.501 159.146 118.456 158.593 116.797C158.429 114.475 158.731 112.963 159.863 110.913C160.07 110.519 160.07 110.519 160.281 110.118C160.588 109.535 160.898 108.953 161.21 108.373C161.751 107.36 162.279 106.341 162.805 105.321C164.957 101.149 167.173 97.015 169.435 92.9012C171.112 89.8385 172.689 86.7327 174.218 83.5937C173.316 83.3359 172.414 83.0781 171.484 82.8125C171.381 83.0824 171.279 83.3523 171.173 83.6304C170.65 84.8919 170.049 86.0892 169.424 87.3031C169.299 87.5457 169.174 87.7883 169.046 88.0383C168.639 88.8278 168.23 89.6166 167.822 90.4052C167.682 90.6767 167.541 90.9482 167.397 91.2279C165.48 94.9364 163.523 98.6192 161.506 102.274C159.668 105.616 157.917 109.002 156.174 112.394C155.958 112.814 155.741 113.234 155.519 113.667C155.235 114.22 155.235 114.22 154.946 114.785C154.296 116.016 154.296 116.016 153.814 116.72C152.101 119.361 152.072 121.702 152.109 124.787C152.108 125.309 152.107 125.831 152.104 126.353C152.101 127.762 152.109 129.17 152.12 130.578C152.129 132.058 152.128 133.537 152.128 135.017C152.13 137.5 152.139 139.984 152.153 142.468C152.169 145.332 152.176 148.196 152.177 151.061C152.179 154.121 152.186 157.18 152.196 160.24C152.198 161.117 152.2 161.995 152.201 162.872C152.203 164.254 152.21 165.637 152.219 167.019C152.223 167.764 152.224 168.508 152.224 169.252C152.261 173.437 152.691 177.497 155.657 180.705C157.249 182.104 158.795 182.665 160.815 183.179C162.109 183.594 162.109 183.594 162.89 184.766C162.764 186.063 162.653 186.566 161.718 187.5C160.949 187.599 160.949 187.599 159.986 187.6C159.619 187.603 159.253 187.606 158.875 187.608C158.267 187.606 158.267 187.606 157.647 187.604C157.218 187.606 156.789 187.608 156.348 187.61C154.902 187.615 153.456 187.614 152.01 187.613C150.977 187.616 149.944 187.618 148.911 187.621C146.39 187.628 143.87 187.63 141.349 187.63C139.299 187.631 137.249 187.632 135.199 187.635C129.387 187.642 123.575 187.645 117.763 187.645C117.293 187.645 117.293 187.645 116.813 187.645C116.499 187.645 116.185 187.645 115.861 187.645C110.779 187.644 105.697 187.652 100.615 187.663C95.3967 187.674 90.1783 187.679 84.9599 187.679C82.0302 187.679 79.1007 187.681 76.171 187.689C73.6751 187.696 71.1792 187.698 68.6832 187.693C67.4105 187.69 66.138 187.691 64.8654 187.697C63.4828 187.703 62.1006 187.699 60.718 187.693C60.3196 187.697 59.9211 187.701 59.5106 187.705C55.8651 187.67 52.6505 186.639 49.9553 184.108C47.0854 180.584 45.6102 176.184 45.5982 171.676C45.5955 171.259 45.5955 171.259 45.5928 170.834C45.5879 169.913 45.5885 168.991 45.5892 168.07C45.5868 167.405 45.5842 166.741 45.5812 166.077C45.5743 164.279 45.5725 162.482 45.572 160.685C45.5714 159.562 45.5698 158.439 45.5677 157.317C45.5605 153.399 45.5573 149.482 45.5579 145.565C45.5584 141.913 45.5501 138.26 45.5378 134.607C45.5276 131.47 45.5234 128.332 45.5239 125.195C45.5241 123.322 45.5218 121.448 45.5136 119.575C45.506 117.815 45.5059 116.056 45.5116 114.297C45.5125 113.651 45.5106 113.004 45.5059 112.358C45.4999 111.477 45.5035 110.597 45.5095 109.717C45.5091 109.223 45.5087 108.73 45.5082 108.222C45.7027 107.031 45.7027 107.031 46.4319 106.273C47.2652 105.859 47.2652 105.859 48.2906 105.933C49.2183 106.25 49.2183 106.25 49.9995 107.031C50.0974 108.15 50.0974 108.15 50.0978 109.612C50.099 109.88 50.1001 110.149 50.1013 110.425C50.1043 111.328 50.1018 112.232 50.0993 113.135C50.1004 113.781 50.1018 114.427 50.1036 115.074C50.1068 116.468 50.1076 117.862 50.1067 119.257C50.1056 121.465 50.1112 123.674 50.118 125.882C50.1364 132.163 50.1458 138.444 50.1483 144.725C50.1498 148.192 50.1569 151.659 50.1698 155.126C50.1777 157.317 50.1787 159.508 50.1744 161.7C50.1734 163.07 50.1789 164.441 50.1862 165.812C50.1882 166.443 50.1877 167.074 50.1842 167.704C50.1596 172.556 50.4794 177.254 53.8768 181.021C56.2381 182.827 58.4398 182.981 61.3093 182.953C61.6945 182.954 62.0797 182.955 62.4765 182.956C63.7637 182.958 65.0507 182.952 66.3378 182.946C67.2618 182.945 68.1859 182.945 69.1099 182.946C71.6165 182.946 74.123 182.939 76.6295 182.931C78.9842 182.924 81.3389 182.924 83.6937 182.922C88.3565 182.92 93.0192 182.912 97.682 182.901C102.21 182.89 106.739 182.882 111.267 182.877C111.547 182.877 111.826 182.876 112.114 182.876C113.515 182.874 114.916 182.873 116.318 182.871C127.936 182.859 139.553 182.839 151.171 182.812C151.038 182.606 150.905 182.399 150.768 182.186C150.593 181.91 150.418 181.635 150.238 181.351C150.064 181.079 149.891 180.808 149.712 180.528C147.722 177.14 147.596 173.634 147.576 169.793C147.572 169.351 147.568 168.908 147.564 168.453C147.552 166.994 147.542 165.536 147.532 164.078C147.524 163.065 147.516 162.053 147.508 161.04C147.488 158.65 147.471 156.259 147.454 153.869C147.434 151.146 147.413 148.423 147.391 145.701C147.347 140.103 147.305 134.504 147.265 128.906C147.089 129.248 146.913 129.59 146.732 129.942C146.066 131.233 145.4 132.524 144.734 133.816C144.448 134.37 144.163 134.925 143.877 135.479C136.244 150.293 136.244 150.293 133.203 153.516C133.003 153.741 132.803 153.967 132.597 154.199C130.097 156.879 127.006 159.097 124.043 161.238C122.114 162.646 120.579 164.244 118.994 166.016C116.396 168.913 113.47 171.671 109.423 171.997C108.189 171.979 107.803 171.869 106.689 171.216C105.024 169.404 104.927 167.516 104.931 165.137C104.931 164.827 104.931 164.517 104.931 164.197C104.975 161.759 105.422 159.582 106.056 157.239C106.609 155.1 106.793 153.059 106.86 150.854C107.255 138.829 112.016 130.118 117.717 119.747C119.522 116.453 121.243 113.117 122.963 109.778C124.578 106.651 126.244 103.555 127.941 100.471C129.41 97.7955 130.825 95.0947 132.226 92.3828C133.809 89.3181 135.421 86.2736 137.084 83.2519C139.122 79.5498 141.077 75.8077 143.009 72.0499C143.224 71.6321 143.439 71.2144 143.661 70.784C143.848 70.4193 144.035 70.0547 144.228 69.6789C144.921 68.3593 144.921 68.3593 145.512 67.4609C147.44 64.3716 147.6 61.6861 147.549 58.1131C147.549 57.5487 147.549 56.9843 147.55 56.4199C147.55 55.2448 147.542 54.0701 147.528 52.895C147.51 51.3964 147.51 49.8984 147.515 48.3996C147.518 47.237 147.512 46.0746 147.505 44.912C147.502 44.3596 147.501 43.8072 147.502 43.2549C147.503 40.1513 147.448 37.7795 145.703 35.1562C143.247 32.7299 139.95 31.9039 136.586 31.88C136.063 31.8851 136.063 31.8851 135.53 31.8903C135.151 31.8893 134.771 31.8883 134.38 31.8873C133.117 31.8853 131.854 31.8918 130.591 31.8982C129.682 31.8985 128.774 31.8983 127.865 31.8977C125.403 31.8973 122.942 31.9042 120.481 31.9124C118.168 31.919 115.854 31.9202 113.541 31.9214C108.961 31.9239 104.381 31.9317 99.8007 31.9428C95.3534 31.9536 90.9061 31.9619 86.4588 31.9669C86.1844 31.9672 85.9099 31.9675 85.6272 31.9678C84.2503 31.9693 82.8734 31.9708 81.4965 31.9723C70.0861 31.9844 58.6756 32.0051 47.2652 32.0312C47.5091 32.3238 47.753 32.6165 48.0043 32.918C49.9529 35.4416 50.1719 37.9574 50.1512 41.0672C50.1532 41.4506 50.1553 41.834 50.1574 42.229C50.1625 43.4873 50.1592 44.7454 50.1552 46.0037C50.156 46.881 50.1571 47.7582 50.1586 48.6355C50.1603 50.4693 50.1578 52.3031 50.1523 54.1369C50.1456 56.49 50.1495 58.8429 50.1565 61.196C50.1607 63.0052 50.1594 64.8144 50.1564 66.6236C50.1556 67.4916 50.1565 68.3596 50.1593 69.2275C50.1622 70.4376 50.1577 71.6473 50.1512 72.8574C50.1535 73.2171 50.1559 73.5769 50.1584 73.9476C50.1551 74.2767 50.1518 74.6058 50.1483 74.9448C50.1479 75.2306 50.1475 75.5164 50.147 75.8109C49.9537 76.7962 49.6365 77.1504 48.8277 77.7343C47.4116 77.6611 47.4116 77.6611 46.0933 77.3437C45.6382 76.4335 45.6554 75.9092 45.6583 74.896C45.6584 74.38 45.6584 74.38 45.6584 73.8535C45.6604 73.4815 45.6624 73.1096 45.6645 72.7264C45.6651 72.346 45.6656 71.9656 45.6662 71.5737C45.6684 70.3558 45.6733 69.1378 45.6783 67.9199C45.6802 67.0954 45.682 66.2709 45.6836 65.4464C45.6879 63.4226 45.6944 61.3988 45.7027 59.375C45.2657 59.3872 44.8288 59.3995 44.3786 59.4122C42.7363 59.455 41.094 59.4817 39.4513 59.5037C38.7444 59.5154 38.0375 59.5313 37.3307 59.5518C32.0489 59.7007 28.2666 59.2304 24.0962 55.664C20.4088 51.6835 19.335 46.9115 19.424 41.6519C19.6074 37.193 21.4698 33.9259 24.6211 30.8716C28.1271 27.8737 32.1795 27.1069 36.6803 27.1427ZM26.1714 35.5468C24.056 39.0285 23.4794 42.0288 23.8277 46.0937C24.1934 47.3746 24.7171 48.4635 25.3902 49.6093C25.6238 50.0202 25.8574 50.4311 26.0982 50.8545C27.6189 52.8097 29.2551 54.3137 31.6402 55.0781C32.7432 55.1428 33.8055 55.1693 34.9071 55.1544C35.2164 55.1533 35.5258 55.1522 35.8446 55.151C36.8276 55.1467 37.8105 55.1369 38.7935 55.1269C39.4621 55.123 40.1307 55.1194 40.7993 55.1162C42.4338 55.1077 44.0682 55.0942 45.7027 55.0781C45.7415 52.7432 45.7697 50.4085 45.7885 48.0734C45.7963 47.28 45.807 46.4867 45.8205 45.6934C45.8396 44.5491 45.8484 43.4051 45.8553 42.2607C45.8633 41.9094 45.8714 41.5582 45.8797 41.1962C45.8806 38.5028 45.2752 36.3933 43.4276 34.3796C38.223 30.6807 30.5702 30.14 26.1714 35.5468ZM170.703 44.1406C170.017 45.1928 169.417 46.282 168.823 47.3877C168.664 47.677 168.505 47.9662 168.341 48.2643C167.954 48.9714 167.57 49.6808 167.187 50.3906C168.535 51.4968 170.023 52.2441 171.582 53.0029C171.835 53.128 172.089 53.2532 172.351 53.3821C172.972 53.6884 173.595 53.9928 174.218 54.2968C174.801 53.2497 175.378 52.1998 175.952 51.1474C176.116 50.8536 176.28 50.5598 176.45 50.2571C177.411 48.4803 178.052 46.9844 178.125 44.9218C177.317 43.5758 176.507 42.6751 175 42.1875C172.781 41.8571 172.134 42.4991 170.703 44.1406ZM157.031 55.4687C156.01 57.0107 155.179 58.6292 154.345 60.2783C154.099 60.7525 153.853 61.2264 153.605 61.6999C153.075 62.7183 152.547 63.7384 152.022 64.7598C150.656 67.4113 149.253 70.0432 147.854 72.678C147.395 73.5444 146.938 74.4115 146.48 75.2789C146.336 75.5523 146.192 75.8256 146.043 76.1073C145.775 76.6154 145.507 77.1236 145.24 77.6321C144.606 78.8306 143.953 80.0117 143.266 81.1801C142.515 82.2991 142.515 82.2991 142.578 83.2031C142.856 83.3463 143.135 83.4894 143.422 83.6369C149.308 86.6653 155.158 89.7398 160.937 92.9687C161.85 91.8117 162.566 90.6284 163.258 89.328C163.483 88.9074 163.707 88.4867 163.939 88.0534C164.183 87.5923 164.428 87.1311 164.672 86.6699C164.928 86.1906 165.183 85.7114 165.438 85.2322C165.988 84.1999 166.536 83.1671 167.084 82.134C167.852 80.6866 168.623 79.2405 169.394 77.7947C170.033 76.5955 170.671 75.3957 171.309 74.1958C171.619 73.6125 171.929 73.0294 172.24 72.4465C172.679 71.6233 173.116 70.7994 173.553 69.9753C173.682 69.7336 173.811 69.4918 173.944 69.2428C175.688 66.0944 175.688 66.0944 176.342 62.622C176.354 62.1968 176.354 62.1968 176.365 61.763C176.088 60.5836 175.517 60.1727 174.609 59.375C173.762 58.8781 172.896 58.4118 172.019 57.9681C171.773 57.8421 171.527 57.7161 171.273 57.5863C170.49 57.1868 169.705 56.7915 168.92 56.3965C168.135 55.9978 167.349 55.5984 166.564 55.1982C165.853 54.8364 165.141 54.4768 164.429 54.1174C163.281 53.5156 163.281 53.5156 162.109 52.7343C159.703 52.4434 158.54 53.7479 157.031 55.4687ZM176.171 74.2187C175.843 74.7785 175.518 75.3404 175.195 75.9033C174.923 76.3723 174.923 76.3723 174.646 76.8509C174.133 77.7466 174.133 77.7466 174.218 78.9062C175.255 79.6478 175.255 79.6478 176.538 80.3222C178.893 81.6283 178.893 81.6283 179.296 82.0312C179.143 84.0744 178.623 85.5374 177.648 87.3275C177.455 87.6872 177.455 87.6872 177.258 88.054C176.834 88.8399 176.405 89.6225 175.976 90.4052C175.678 90.9568 175.38 91.5085 175.082 92.0605C174.461 93.2123 173.838 94.363 173.213 95.5131C171.833 98.0593 170.48 100.62 169.124 103.179C168.582 104.203 168.04 105.226 167.496 106.249C167.242 106.727 166.989 107.206 166.738 107.685C166.114 108.866 165.474 110.033 164.798 111.186C164.667 111.414 164.535 111.643 164.4 111.879C164.04 112.504 163.672 113.125 163.304 113.746C162.768 114.837 162.768 114.837 163.21 115.964C163.439 116.376 163.439 116.376 163.671 116.797C164.593 116.833 164.593 116.833 165.625 116.406C166.318 115.414 166.86 114.498 167.407 113.428C167.573 113.116 167.739 112.805 167.91 112.484C168.457 111.451 168.995 110.413 169.531 109.375C169.907 108.654 170.284 107.932 170.661 107.211C171.25 106.085 171.837 104.958 172.422 103.83C173.753 101.265 175.12 98.7229 176.513 96.1914C178.621 92.3612 180.638 88.487 182.634 84.5974C182.855 84.167 183.077 83.7366 183.305 83.2931C183.502 82.908 183.699 82.5229 183.903 82.1261C184.375 81.25 184.375 81.25 184.765 80.8593C184.898 79.5446 184.898 79.5446 184.375 78.125C183.253 77.2013 181.998 76.6174 180.688 76.001C180.169 75.74 180.169 75.74 179.64 75.4738C177.981 74.5631 177.981 74.5631 176.171 74.2187ZM140.234 87.1093C139.829 87.7895 139.432 88.4739 139.038 89.1601C138.816 89.5408 138.594 89.9215 138.365 90.3137C137.837 91.324 137.837 91.324 137.899 92.1668C138.494 93.4163 139.596 93.8123 140.789 94.3924C141.174 94.5874 141.174 94.5874 141.566 94.7864C142.389 95.2029 143.215 95.6118 144.043 96.0205C144.849 96.4251 145.655 96.8312 146.46 97.2375C146.992 97.505 147.524 97.7716 148.056 98.0371C150.227 99.1223 152.351 100.279 154.466 101.467C155.458 102.038 155.458 102.038 156.64 101.953C157.414 100.277 158.187 98.6015 158.984 96.875C156.57 95.3163 154.092 93.9639 151.538 92.6513C150.742 92.2401 149.947 91.8286 149.151 91.4169C148.571 91.117 148.571 91.117 147.98 90.8109C146.213 89.8891 144.458 88.9429 142.711 87.9824C141.54 87.313 141.54 87.313 140.234 87.1093ZM135.156 96.4843C135.027 96.7352 134.897 96.986 134.764 97.2444C132.472 101.686 130.169 106.119 127.758 110.498C125.766 114.118 123.858 117.778 121.969 121.453C120.248 124.79 118.466 128.09 116.622 131.362C116.439 131.692 116.256 132.021 116.067 132.361C115.905 132.648 115.744 132.934 115.577 133.23C115.153 134.024 115.153 134.024 115.234 135.156C115.517 135.301 115.799 135.447 116.091 135.596C117.417 136.278 118.743 136.962 120.068 137.646C120.426 137.831 120.426 137.831 120.791 138.02C124.147 139.753 127.476 141.524 130.744 143.419C132.264 144.307 132.264 144.307 133.984 144.531C134.113 144.28 134.242 144.03 134.376 143.771C136.668 139.329 138.97 134.896 141.381 130.518C143.374 126.898 145.281 123.237 147.171 119.563C148.892 116.225 150.674 112.925 152.517 109.653C152.701 109.324 152.884 108.994 153.073 108.655C153.234 108.368 153.396 108.081 153.562 107.786C153.987 106.992 153.987 106.992 153.906 105.859C153.651 105.728 153.396 105.597 153.133 105.461C151.925 104.838 150.718 104.214 149.511 103.589C149.072 103.361 148.632 103.134 148.18 102.9C144.992 101.242 141.835 99.5347 138.714 97.7549C138.415 97.5869 138.116 97.4189 137.808 97.2458C137.419 97.0242 137.419 97.0242 137.023 96.7982C136.277 96.404 136.277 96.404 135.156 96.4843ZM112.89 139.062C111.73 144.124 111.26 148.716 111.328 153.906C112.658 154.638 113.994 155.36 115.332 156.079C115.71 156.287 116.088 156.496 116.478 156.71C116.843 156.905 117.208 157.1 117.584 157.301C117.919 157.483 118.255 157.665 118.6 157.853C119.664 158.253 120.056 158.243 121.093 157.812C121.987 157.182 122.833 156.545 123.681 155.859C124.042 155.571 124.042 155.571 124.409 155.277C128.38 152.319 128.38 152.319 131.25 148.437C126.745 145.957 122.228 143.504 117.675 141.113C117.287 140.908 116.899 140.703 116.5 140.492C116.14 140.304 115.781 140.116 115.411 139.923C115.093 139.757 114.776 139.59 114.448 139.418C113.695 139.008 113.695 139.008 112.89 139.062ZM110.546 158.594C109.242 161.549 109.328 164.402 109.375 167.578C110.792 167.079 111.78 166.513 112.89 165.503C113.156 165.261 113.422 165.02 113.696 164.77C113.946 164.537 114.195 164.303 114.453 164.062C114.662 163.869 114.872 163.676 115.087 163.477C115.545 163.039 115.979 162.577 116.406 162.109C116.406 161.852 116.406 161.594 116.406 161.328C115.577 160.87 114.747 160.415 113.916 159.961C113.68 159.831 113.444 159.7 113.201 159.566C111.947 158.833 111.947 158.833 110.546 158.594Z" fill="white"/>
<path d="M71.3149 48.3359C71.5766 48.3344 71.8384 48.3329 72.1081 48.3314C72.9871 48.3273 73.866 48.3289 74.7449 48.3304C75.3744 48.3287 76.0038 48.3267 76.6332 48.3244C78.3442 48.3191 80.0551 48.3189 81.7661 48.3199C83.1931 48.3203 84.6202 48.3184 86.0473 48.3166C89.4129 48.3122 92.7786 48.3121 96.1442 48.3144C99.6197 48.3168 103.095 48.312 106.571 48.3036C109.552 48.2968 112.533 48.2944 115.515 48.2957C117.297 48.2964 119.078 48.2954 120.86 48.2899C122.535 48.285 124.21 48.2858 125.885 48.2909C126.5 48.2918 127.116 48.2907 127.731 48.2875C128.57 48.2835 129.408 48.2866 130.247 48.2915C130.717 48.2915 131.187 48.2914 131.671 48.2913C132.812 48.4377 132.812 48.4377 133.551 48.958C134.219 49.9625 134.109 50.7816 133.984 51.9533C132.885 53.0525 132.193 52.8329 130.652 52.8338C130.388 52.835 130.123 52.8362 129.85 52.8375C128.958 52.8406 128.066 52.8381 127.174 52.8357C126.536 52.8367 125.899 52.8381 125.261 52.8398C123.526 52.8434 121.791 52.842 120.056 52.8395C118.243 52.8376 116.43 52.8394 114.617 52.8406C111.572 52.842 108.527 52.8402 105.483 52.8364C101.959 52.8322 98.4345 52.8336 94.9105 52.8379C91.889 52.8414 88.8675 52.8419 85.846 52.8399C84.0395 52.8387 82.2331 52.8385 80.4267 52.8411C78.7286 52.8433 77.0307 52.8418 75.3327 52.8373C74.7081 52.8362 74.0836 52.8365 73.4591 52.8382C72.6092 52.8404 71.7594 52.8377 70.9095 52.8338C70.4331 52.8335 69.9567 52.8332 69.4658 52.8329C68.3591 52.7346 68.3591 52.7346 67.5779 51.9533C67.4558 50.5862 67.4558 50.5862 67.5779 49.219C68.9907 48.2771 69.6335 48.3388 71.3149 48.3359Z" fill="white"/>
<path d="M71.3149 64.7421C71.5766 64.7406 71.8384 64.7391 72.1081 64.7376C72.9871 64.7336 73.866 64.7351 74.7449 64.7367C75.3744 64.735 76.0038 64.733 76.6332 64.7306C78.3442 64.7254 80.0551 64.7252 81.7661 64.7262C83.1931 64.7266 84.6202 64.7247 86.0473 64.7228C89.4129 64.7185 92.7786 64.7183 96.1442 64.7207C99.6197 64.723 103.095 64.7182 106.571 64.7099C109.552 64.703 112.533 64.7007 115.515 64.7019C117.297 64.7026 119.078 64.7016 120.86 64.6962C122.535 64.6913 124.21 64.692 125.885 64.6971C126.5 64.6981 127.116 64.697 127.731 64.6938C128.57 64.6897 129.408 64.6928 130.247 64.6978C130.717 64.6977 131.187 64.6977 131.671 64.6976C132.812 64.844 132.812 64.844 133.551 65.3643C134.219 66.3688 134.109 67.1878 133.984 68.3596C132.885 69.4587 132.193 69.2391 130.652 69.2401C130.388 69.2413 130.123 69.2425 129.85 69.2437C128.958 69.2469 128.066 69.2444 127.174 69.2419C126.536 69.243 125.899 69.2444 125.261 69.2461C123.526 69.2497 121.791 69.2483 120.056 69.2458C118.243 69.2438 116.43 69.2456 114.617 69.2469C111.572 69.2483 108.527 69.2464 105.483 69.2427C101.959 69.2384 98.4345 69.2398 94.9105 69.2441C91.889 69.2477 88.8675 69.2482 85.846 69.2461C84.0395 69.2449 82.2331 69.2448 80.4267 69.2473C78.7286 69.2496 77.0307 69.248 75.3327 69.2435C74.7081 69.2425 74.0836 69.2428 73.4591 69.2445C72.6092 69.2466 71.7594 69.244 70.9095 69.2401C70.4331 69.2398 69.9567 69.2395 69.4658 69.2392C68.3591 69.1408 68.3591 69.1408 67.5779 68.3596C67.4558 66.9924 67.4558 66.9924 67.5779 65.6252C68.9907 64.6833 69.6335 64.745 71.3149 64.7421Z" fill="#DEDEDE"/>
<path d="M71.4238 81.0985C71.8904 81.0946 72.357 81.0907 72.8378 81.0867C73.3484 81.0885 73.859 81.0903 74.3851 81.0921C74.9293 81.0898 75.4734 81.0871 76.0176 81.0839C77.4945 81.0769 78.9714 81.0774 80.4484 81.0796C81.6812 81.0808 82.9141 81.0785 84.147 81.0761C87.0552 81.0706 89.9633 81.0712 92.8715 81.0757C95.8724 81.0802 98.8731 81.0747 101.874 81.0642C104.45 81.0555 107.027 81.0529 109.603 81.0552C111.142 81.0565 112.681 81.0556 114.219 81.0489C115.666 81.0428 117.113 81.0444 118.559 81.0517C119.344 81.0539 120.128 81.0483 120.912 81.0425C121.379 81.0463 121.845 81.0502 122.326 81.0541C122.935 81.0542 122.935 81.0542 123.555 81.0544C124.889 81.3018 125.363 81.7394 126.172 82.8124C126.147 84.0331 126.147 84.0331 125.781 85.1562C124.44 86.0506 123.952 86.0361 122.373 86.0392C121.907 86.042 121.441 86.0448 120.961 86.0476C120.449 86.0467 119.937 86.0457 119.409 86.0447C118.865 86.0464 118.321 86.0484 117.777 86.0507C116.298 86.056 114.82 86.0562 113.341 86.0552C112.107 86.0548 110.874 86.0567 109.64 86.0586C106.729 86.0629 103.819 86.0631 100.908 86.0607C97.9043 86.0584 94.9006 86.0632 91.8969 86.0715C89.3189 86.0784 86.7409 86.0807 84.1629 86.0794C82.6228 86.0787 81.0827 86.0798 79.5426 86.0852C78.0943 86.0901 76.6462 86.0893 75.1979 86.0842C74.4126 86.0829 73.6274 86.0873 72.8421 86.0919C72.375 86.0891 71.9078 86.0864 71.4264 86.0836C71.0204 86.0837 70.6143 86.0837 70.1959 86.0838C68.9806 85.9152 68.4416 85.6282 67.5781 84.7655C67.3828 83.5937 67.3828 83.5937 67.5781 82.4218C68.7955 81.2064 69.7409 81.1024 71.4238 81.0985Z" fill="#DDDDDD"/>
<path d="M70.346 97.9476C70.977 97.9443 70.977 97.9443 71.6207 97.941C72.316 97.9433 72.316 97.9433 73.0253 97.9457C73.5118 97.9444 73.9983 97.943 74.4996 97.9416C75.8361 97.9387 77.1726 97.9394 78.5091 97.9419C79.9059 97.9439 81.3027 97.942 82.6995 97.9408C85.0455 97.9394 87.3915 97.9413 89.7375 97.945C92.4521 97.9492 95.1666 97.9479 97.8812 97.9436C100.209 97.94 102.538 97.9395 104.866 97.9416C106.257 97.9428 107.649 97.9429 109.041 97.9404C110.591 97.9377 112.142 97.9414 113.693 97.9457C114.156 97.9442 114.62 97.9426 115.098 97.941C115.729 97.9443 115.729 97.9443 116.372 97.9476C116.923 97.9481 116.923 97.9481 117.484 97.9485C118.359 98.0468 118.359 98.0468 119.14 98.8281C119.358 100.87 119.358 100.87 118.672 101.823C117.729 102.521 117.134 102.49 115.967 102.49C115.346 102.494 115.346 102.494 114.712 102.498C114.258 102.495 113.804 102.492 113.336 102.489C112.858 102.491 112.379 102.492 111.886 102.493C110.574 102.496 109.262 102.493 107.95 102.488C106.577 102.484 105.204 102.485 103.832 102.486C101.526 102.487 99.2212 102.482 96.916 102.475C94.2499 102.467 91.584 102.465 88.9179 102.468C86.3544 102.47 83.7909 102.468 81.2274 102.463C80.1359 102.462 79.0444 102.461 77.953 102.462C76.4294 102.463 74.9059 102.457 73.3823 102.451C72.9281 102.452 72.474 102.453 72.006 102.454C71.592 102.451 71.1779 102.448 70.7513 102.446C70.391 102.445 70.0306 102.444 69.6593 102.443C68.7498 102.344 68.7498 102.344 67.5779 101.562C67.4558 100.195 67.4558 100.195 67.5779 98.8281C68.5805 97.8255 68.9534 97.9487 70.346 97.9476Z" fill="#CDCDCD"/>
<path d="M70.0171 114.351C70.3649 114.349 70.7127 114.346 71.071 114.343C71.4535 114.344 71.8361 114.345 72.2302 114.346C72.8333 114.343 72.8333 114.343 73.4486 114.34C74.7831 114.335 76.1174 114.335 77.4518 114.336C78.3763 114.334 79.3007 114.333 80.2251 114.331C82.1649 114.328 84.1046 114.328 86.0444 114.33C88.5341 114.332 91.0238 114.326 93.5135 114.317C95.4232 114.311 97.333 114.31 99.2427 114.312C100.161 114.312 101.079 114.309 101.997 114.306C103.279 114.301 104.561 114.303 105.844 114.308C106.226 114.305 106.607 114.302 107.001 114.299C107.349 114.302 107.698 114.304 108.058 114.307C108.361 114.307 108.664 114.307 108.977 114.307C109.989 114.495 110.343 114.792 110.937 115.625C110.864 117.041 110.864 117.041 110.547 118.36C109.643 118.811 109.128 118.8 108.122 118.802C107.778 118.804 107.433 118.806 107.078 118.807C106.699 118.807 106.321 118.807 105.93 118.807C105.532 118.808 105.134 118.81 104.723 118.811C103.402 118.815 102.08 118.815 100.758 118.816C99.8425 118.817 98.9268 118.818 98.0111 118.82C96.0898 118.822 94.1684 118.823 92.2471 118.823C89.781 118.823 87.3149 118.828 84.8488 118.835C82.9572 118.839 81.0656 118.84 79.1739 118.84C78.2645 118.84 77.3551 118.842 76.4457 118.845C75.1756 118.849 73.9056 118.847 72.6355 118.845C72.2574 118.847 71.8793 118.849 71.4898 118.852C71.1442 118.85 70.7986 118.848 70.4425 118.847C70.1422 118.847 69.8418 118.847 69.5323 118.847C68.7498 118.75 68.7498 118.75 67.5779 117.969C67.4558 116.602 67.4558 116.602 67.5779 115.235C68.5193 114.293 68.7318 114.355 70.0171 114.351Z" fill="#E8E8E8"/>
<path d="M71.7687 130.752C72.0756 130.75 72.3825 130.748 72.6987 130.746C73.714 130.741 74.7291 130.741 75.7444 130.742C76.4493 130.741 77.1542 130.739 77.8591 130.737C79.3368 130.734 80.8144 130.734 82.2921 130.736C84.1877 130.739 86.0831 130.732 87.9786 130.723C89.4343 130.717 90.8899 130.717 92.3456 130.718C93.0446 130.718 93.7436 130.716 94.4426 130.712C95.419 130.707 96.3951 130.71 97.3714 130.714C97.6612 130.711 97.951 130.708 98.2496 130.705C99.3901 130.717 100.2 130.736 101.171 131.366C101.839 132.503 101.445 133.534 101.172 134.766C100.488 135.449 99.5943 135.208 98.6835 135.214C98.2327 135.213 98.2327 135.213 97.7728 135.213C97.4578 135.214 97.1428 135.216 96.8182 135.217C95.7715 135.221 94.7248 135.222 93.678 135.222C92.9536 135.223 92.2291 135.225 91.5046 135.226C89.9838 135.228 88.4631 135.229 86.9423 135.229C84.9898 135.229 83.0374 135.234 81.0849 135.241C79.588 135.245 78.0912 135.246 76.5943 135.246C75.8742 135.246 75.1542 135.248 74.4342 135.251C73.4287 135.255 72.4233 135.254 71.4179 135.251C71.1181 135.254 70.8184 135.256 70.5095 135.258C68.4483 135.246 68.4483 135.246 67.5779 134.375C67.4558 133.008 67.4558 133.008 67.5779 131.641C69.0166 130.682 70.1046 130.747 71.7687 130.752Z" fill="#D9D9D9"/>
<path d="M71.7674 163.526C72.028 163.525 72.2886 163.523 72.5571 163.522C73.4163 163.519 74.2751 163.524 75.1343 163.53C75.7326 163.53 76.3309 163.53 76.9292 163.529C78.1823 163.529 79.4352 163.533 80.6883 163.54C82.2934 163.549 83.8985 163.549 85.5036 163.547C86.7388 163.546 87.974 163.548 89.2093 163.552C89.8011 163.553 90.3929 163.554 90.9847 163.553C91.8122 163.553 92.6395 163.558 93.4669 163.564C93.9376 163.566 94.4082 163.568 94.8931 163.57C96.0505 163.668 96.7139 163.786 97.6562 164.453C98.0469 165.576 98.0469 165.576 98.0469 166.797C97.1926 167.971 96.7156 168.322 95.2689 168.555C94.7913 168.555 94.3138 168.555 93.8217 168.555C93.5573 168.557 93.2929 168.559 93.0205 168.562C92.1486 168.566 91.2772 168.56 90.4053 168.553C89.7982 168.553 89.1911 168.554 88.584 168.555C87.3126 168.555 86.0413 168.55 84.7698 168.541C83.141 168.53 81.5124 168.531 79.8835 168.536C78.6302 168.539 77.377 168.536 76.1236 168.531C75.5231 168.529 74.9226 168.529 74.322 168.531C73.4823 168.532 72.643 168.526 71.8033 168.517C71.3257 168.515 70.8481 168.513 70.3561 168.511C69.0446 168.347 68.49 168.132 67.5781 167.187C67.3828 166.015 67.3828 166.015 67.5781 164.844C68.8612 163.518 69.9777 163.525 71.7674 163.526Z" fill="#555555"/>
<path d="M71.5177 147.158C71.938 147.155 71.938 147.155 72.3669 147.152C73.2934 147.147 74.2197 147.147 75.1462 147.148C75.7898 147.147 76.4334 147.145 77.077 147.143C78.426 147.14 79.7749 147.14 81.1239 147.142C82.8539 147.145 84.5838 147.138 86.3138 147.129C87.6428 147.123 88.9718 147.123 90.3008 147.124C90.9387 147.124 91.5767 147.122 92.2146 147.118C93.1059 147.113 93.9968 147.116 94.8881 147.12C95.3954 147.12 95.9028 147.12 96.4256 147.119C97.656 147.266 97.656 147.266 98.4073 147.786C99.0574 148.793 98.9519 149.616 98.8279 150.781C97.8773 151.732 97.3714 151.657 96.0741 151.668C95.8005 151.667 95.527 151.665 95.2451 151.664C94.9567 151.665 94.6683 151.666 94.3711 151.668C93.4153 151.671 92.4595 151.669 91.5037 151.666C90.841 151.667 90.1784 151.668 89.5158 151.668C88.1261 151.67 86.7364 151.668 85.3467 151.664C83.5628 151.66 81.779 151.662 79.9951 151.667C78.6266 151.67 77.258 151.669 75.8895 151.667C75.2316 151.666 74.5737 151.667 73.9159 151.669C72.9974 151.671 72.0791 151.668 71.1606 151.664C70.8871 151.665 70.6135 151.667 70.3317 151.668C68.4484 151.652 68.4484 151.652 67.5779 150.781C67.4558 149.414 67.4558 149.414 67.5779 148.047C69.0316 147.078 69.7808 147.164 71.5177 147.158Z" fill="#848484"/>
<path d="M47.8519 88.1592C48.5287 88.2196 48.5287 88.2196 49.2191 88.2812C50.1922 89.7409 50.116 90.8901 50.098 92.5781C50.101 92.8611 50.1041 93.1441 50.1072 93.4357C50.1017 94.9195 50.0607 95.6126 49.2191 96.875C47.8519 96.9971 47.8519 96.9971 46.4847 96.875C45.5606 95.9509 45.6036 95.7608 45.5997 94.5068C45.5987 94.1956 45.5977 93.8845 45.5967 93.5638C45.5997 93.2386 45.6027 92.9133 45.6058 92.5781C45.6028 92.2528 45.5998 91.9276 45.5967 91.5924C45.5977 91.2812 45.5987 90.97 45.5997 90.6494C45.6006 90.3639 45.6015 90.0784 45.6024 89.7842C45.8066 88.3265 46.4895 88.2808 47.8519 88.1592Z" fill="white"/>
</svg>
