<svg width="200" height="200" viewBox="0 0 200 200" fill="none" xmlns="http://www.w3.org/2000/svg">
<g clip-path="url(#clip0_391_83)">
<path d="M99.7563 -0.0978341C100.037 -0.0980977 100.318 -0.0983613 100.607 -0.0986328C104.821 -0.0923395 108.794 0.104311 112.891 1.1717C113.154 1.23665 113.418 1.30161 113.689 1.36854C128.017 4.94387 140.228 14.1516 147.942 26.7012C155.183 38.9567 157.789 54.5396 154.422 68.4599C151.643 78.7642 146.839 87.2559 139.454 94.9217C139.203 95.1971 138.952 95.4726 138.694 95.7564C129.194 105.893 114.76 110.826 101.172 111.328C85.9551 111.488 71.7834 105.788 60.7812 95.3128C53.6968 88.3669 49.0658 79.9036 46.1919 70.4588C46.1142 70.2073 46.0365 69.9558 45.9565 69.6967C44.621 65.0918 44.3721 60.4269 44.3852 55.6639C44.3855 55.3731 44.3857 55.0824 44.3859 54.7828C44.4336 40.5178 49.8068 27.7093 59.3755 17.1873C59.6796 16.8505 59.9838 16.5136 60.2971 16.1665C70.5452 5.38543 85.0564 -0.0854782 99.7563 -0.0978341Z" fill="#92E6F7"/>
<path d="M184.05 109.11C187.139 111.231 189.374 114.303 190.234 117.969C190.747 123.069 189.957 127.04 186.727 131.096C185.382 132.689 183.925 134.159 182.451 135.632C181.943 136.143 181.943 136.143 181.425 136.665C180.506 137.59 179.584 138.514 178.662 139.437C178.083 140.017 177.505 140.597 176.926 141.177C174.901 143.21 172.874 145.24 170.844 147.269C168.966 149.147 167.092 151.029 165.22 152.913C163.602 154.542 161.981 156.167 160.357 157.79C159.392 158.755 158.429 159.721 157.468 160.69C149.485 168.737 141.267 175.742 129.333 175.847C128.826 175.849 128.826 175.849 128.309 175.85C127.765 175.854 127.765 175.854 127.209 175.858C126.016 175.866 124.823 175.871 123.629 175.874C123.016 175.877 123.016 175.877 122.391 175.879C120.231 175.887 118.07 175.893 115.91 175.897C113.679 175.901 111.449 175.914 109.218 175.93C107.501 175.94 105.784 175.943 104.067 175.945C103.244 175.947 102.421 175.951 101.599 175.958C100.45 175.968 99.3009 175.968 98.1517 175.965C97.8124 175.97 97.473 175.975 97.1234 175.98C95.5957 175.967 94.7139 175.882 93.3525 175.135C92.5779 174.219 92.5779 174.219 92.1872 171.875C89.738 172.004 87.2888 172.133 84.7654 172.266C84.5075 172.91 84.2497 173.555 83.9841 174.219C82.8925 175.407 82.0572 175.89 80.4685 175.977C79.2933 175.91 78.8306 175.74 77.7585 175.147C76.9529 174.219 76.9529 174.219 76.5622 171.875C74.2419 172.004 71.9216 172.133 69.531 172.266C70.5407 174.013 70.5407 174.013 71.5527 175.76C72.9563 178.202 73.319 180.029 73.0466 182.813C72.1083 185.677 69.8236 186.743 67.3207 188.154C66.2519 188.759 65.1907 189.377 64.1294 189.995C46.2136 200.41 46.2136 200.41 42.1872 200C39.6445 198.752 38.3129 196.643 36.9535 194.231C36.5803 193.572 36.5803 193.572 36.1997 192.901C36.0695 192.67 35.9394 192.438 35.8052 192.2C35.1091 190.962 34.4073 189.728 33.7064 188.493C33.5645 188.243 33.4226 187.993 33.2764 187.735C31.9693 185.432 30.6363 183.144 29.2966 180.859C27.186 177.256 25.1071 173.634 23.0398 170.006C21.436 167.191 19.8221 164.383 18.1853 161.588C17.5141 160.441 16.8462 159.293 16.1786 158.144C15.2571 156.56 14.3193 154.986 13.3741 153.417C12.9033 152.62 12.4329 151.823 11.9626 151.025C11.6309 150.486 11.6309 150.486 11.2925 149.936C9.91195 147.569 9.38561 145.709 9.76536 142.969C10.9619 139.08 15.7949 137.224 19.0915 135.376C19.8164 134.967 20.5409 134.557 21.2654 134.147C21.7617 133.866 22.2581 133.585 22.7547 133.305C24.4785 132.33 26.1947 131.344 27.9065 130.348C28.1383 130.214 28.3701 130.079 28.6089 129.94C29.716 129.297 30.8223 128.653 31.9278 128.007C32.5219 127.662 32.5219 127.662 33.1281 127.31C33.4737 127.109 33.8194 126.907 34.1755 126.699C36.3419 125.534 38.1695 124.907 40.6308 125.618C42.7034 126.484 43.6702 127.729 44.795 129.64C45.2912 130.435 45.8139 130.994 46.4841 131.641C48.1531 130.812 49.8213 129.982 51.489 129.15C51.7385 129.026 51.9879 128.902 52.245 128.774C55.2996 127.25 58.3403 125.704 61.3523 124.097C73.5534 117.632 83.1114 115.555 96.7054 118.997C97.2716 119.138 97.838 119.278 98.4044 119.418C99.8846 119.785 101.364 120.156 102.842 120.528C104.307 120.896 105.772 121.258 107.238 121.622C109.833 122.266 112.426 122.917 115.018 123.573C116.737 124.008 118.457 124.438 120.177 124.865C121.289 125.141 122.401 125.421 123.512 125.702C124.278 125.894 125.044 126.083 125.811 126.272C130.116 127.365 134.128 128.815 136.627 132.718C137.21 133.779 137.756 134.847 138.281 135.938C138.541 136.459 138.801 136.98 139.062 137.5C139.396 137.163 139.73 136.825 140.074 136.478C143.23 133.29 146.391 130.106 149.555 126.926C151.182 125.291 152.807 123.655 154.429 122.016C155.996 120.432 157.566 118.852 159.14 117.274C159.738 116.674 160.334 116.072 160.929 115.468C167.399 108.91 175.007 103.602 184.05 109.11Z" fill="#010000"/>
<path d="M177.734 114.844C179.722 115.637 181.239 116.825 182.175 118.771C182.66 120.263 182.725 121.509 182.422 123.047C181.032 125.776 178.883 127.926 176.731 130.061C176.403 130.391 176.075 130.722 175.737 131.062C174.844 131.958 173.95 132.852 173.054 133.744C172.109 134.686 171.168 135.63 170.226 136.573C168.644 138.158 167.059 139.74 165.472 141.321C163.649 143.138 161.83 144.959 160.013 146.783C158.443 148.358 156.871 149.931 155.297 151.502C154.361 152.436 153.426 153.37 152.493 154.307C145.449 161.371 138.533 167.985 127.918 168.02C127.594 168.02 127.269 168.019 126.935 168.018C126.587 168.019 126.239 168.019 125.881 168.02C125.129 168.022 124.377 168.022 123.625 168.023C122.026 168.024 120.427 168.032 118.828 168.04C115.853 168.055 112.879 168.067 109.904 168.067C107.832 168.066 105.76 168.075 103.688 168.091C102.899 168.095 102.11 168.095 101.322 168.092C100.219 168.089 99.1172 168.097 98.0147 168.108C97.6894 168.104 97.3641 168.1 97.0289 168.096C95.3766 168.125 94.7159 168.218 93.3614 169.254C92.4717 170.315 92.4717 170.315 92.1875 171.875C89.7383 172.004 87.2891 172.133 84.7656 172.266C84.5078 172.91 84.25 173.555 83.9844 174.219C82.8928 175.407 82.0575 175.89 80.4688 175.976C79.2935 175.91 78.8308 175.739 77.7588 175.146C76.7967 174.039 76.7484 173.303 76.5625 171.875C76.2321 171.915 76.2321 171.915 75.8949 171.956C69.7037 172.606 69.7037 172.606 67.7414 171.101C67.0879 170.008 66.5575 168.902 66.0576 167.732C65.1432 165.756 63.9703 163.91 62.8662 162.036C62.3544 161.149 61.8438 160.261 61.3342 159.372C61.0731 158.917 60.8119 158.462 60.5507 158.007C60.421 157.782 60.2913 157.556 60.1577 157.323C59.2604 155.761 58.3612 154.201 57.4616 152.64C56.9674 151.783 56.4737 150.925 55.9806 150.067C54.8894 148.171 53.7908 146.282 52.6566 144.412C52.4699 144.103 52.2832 143.793 52.0909 143.475C51.7495 142.911 51.4048 142.35 51.0562 141.791C50.674 141.159 50.3325 140.503 50 139.844C50.3906 138.672 50.3906 138.672 51.3212 138.099C51.7302 137.901 52.1391 137.703 52.5604 137.498C53.0147 137.275 53.469 137.052 53.9371 136.823C54.4313 136.585 54.9256 136.346 55.4199 136.108C56.4273 135.616 57.4334 135.121 58.4396 134.627C58.8144 134.443 58.8144 134.443 59.1968 134.256C61.2563 133.246 63.2858 132.187 65.3076 131.103C77.8726 124.432 86.1131 124.729 99.7406 128.111C100.296 128.249 100.296 128.249 100.863 128.389C102.817 128.874 104.771 129.359 106.724 129.846C108.733 130.346 110.743 130.842 112.753 131.336C114.309 131.72 115.864 132.108 117.42 132.496C118.16 132.68 118.901 132.863 119.643 133.045C120.679 133.299 121.714 133.558 122.748 133.818C123.05 133.891 123.352 133.964 123.662 134.039C126.12 134.665 128.847 135.38 130.273 137.622C131.022 139.461 131.299 140.744 130.515 142.622C129.434 144.579 128.319 145.418 126.172 146.094C125.079 146.196 124.077 146.246 122.988 146.232C122.682 146.232 122.376 146.233 122.061 146.234C121.402 146.235 120.742 146.234 120.083 146.23C119.038 146.225 117.994 146.227 116.95 146.232C113.982 146.244 111.014 146.242 108.047 146.234C106.227 146.23 104.408 146.235 102.589 146.246C101.897 146.248 101.206 146.247 100.514 146.241C99.5471 146.234 98.5809 146.238 97.6141 146.245C97.1873 146.237 97.1873 146.237 96.7518 146.23C95.2403 146.254 94.5795 146.446 93.3757 147.39C92.4731 148.404 92.4731 148.404 92.3584 149.805C92.6099 151.369 93.031 152.015 94.1406 153.125C95.4195 153.764 96.8354 153.58 98.2413 153.585C98.5851 153.587 98.9288 153.59 99.2829 153.592C100.425 153.6 101.567 153.605 102.708 153.609C103.294 153.611 103.294 153.611 103.891 153.613C105.961 153.622 108.03 153.627 110.099 153.631C112.229 153.635 114.36 153.649 116.49 153.664C118.133 153.674 119.776 153.678 121.419 153.679C122.204 153.681 122.989 153.685 123.773 153.693C129.811 153.745 134.539 153.321 139.054 148.923C139.652 148.323 140.248 147.722 140.842 147.118C141.17 146.789 141.497 146.46 141.835 146.121C142.728 145.222 143.619 144.322 144.51 143.421C145.446 142.476 146.384 141.534 147.323 140.591C150.112 137.789 152.896 134.984 155.679 132.176C157.844 129.993 160.01 127.811 162.18 125.633C163.112 124.696 164.044 123.758 164.973 122.817C166.01 121.768 167.05 120.723 168.091 119.678C168.396 119.369 168.7 119.059 169.014 118.74C171.551 116.207 173.956 114.104 177.734 114.844Z" fill="#FBD0A2"/>
<path d="M99.7563 -0.0978341C100.037 -0.0980977 100.318 -0.0983613 100.607 -0.0986328C104.821 -0.0923395 108.794 0.104311 112.891 1.1717C113.154 1.23665 113.418 1.30161 113.689 1.36854C128.017 4.94387 140.228 14.1516 147.942 26.7012C155.183 38.9567 157.789 54.5396 154.422 68.4599C151.643 78.7642 146.839 87.2559 139.454 94.9217C139.203 95.1971 138.952 95.4726 138.694 95.7564C129.194 105.893 114.76 110.826 101.172 111.328C85.9551 111.488 71.7834 105.788 60.7812 95.3128C53.6968 88.3669 49.0658 79.9036 46.1919 70.4588C46.1142 70.2073 46.0365 69.9558 45.9565 69.6967C44.621 65.0918 44.3721 60.4269 44.3852 55.6639C44.3855 55.3731 44.3857 55.0824 44.3859 54.7828C44.4336 40.5178 49.8068 27.7093 59.3755 17.1873C59.6796 16.8505 59.9838 16.5136 60.2971 16.1665C70.5452 5.38543 85.0564 -0.0854782 99.7563 -0.0978341ZM76.1724 14.0623C75.7932 14.2743 75.414 14.4863 75.0234 14.7047C64.627 20.9244 57.4299 31.1344 53.9067 42.5779C53.7066 43.2056 53.7066 43.2056 53.5024 43.846C52.574 47.4578 52.2015 50.9881 52.2222 54.7117C52.2244 55.135 52.2266 55.5582 52.2288 55.9942C52.4322 69.665 58.1619 81.194 67.7327 90.7805C77.0635 99.6006 89.0855 103.405 101.725 103.219C115.255 102.827 126.716 96.767 135.962 87.036C142.125 80.1011 145.539 71.5322 147.266 62.4998C147.333 62.1974 147.399 61.8949 147.468 61.5832C149.442 50.7438 146.252 38.517 140.146 29.4691C138.932 27.7971 137.664 26.1866 136.329 24.6092C135.925 24.1266 135.925 24.1266 135.514 23.6342C131.941 19.5006 127.794 16.3492 123.047 13.6717C122.679 13.4632 122.311 13.2548 121.932 13.04C107.558 5.3873 90.2238 6.10241 76.1724 14.0623Z" fill="#000101"/>
<path d="M38.2812 134.375C38.4419 134.657 38.6026 134.939 38.7682 135.23C41.5797 140.166 44.3952 145.098 47.2656 150C49.2408 153.373 51.1899 156.76 53.125 160.156C55.5497 164.411 58.0016 168.649 60.4752 172.876C60.6751 173.218 60.8751 173.561 61.0811 173.914C61.5454 174.705 62.0132 175.494 62.483 176.282C62.7339 176.705 62.9847 177.128 63.2431 177.563C63.5897 178.144 63.5897 178.144 63.9434 178.737C64.4531 179.688 64.4531 179.688 64.4531 180.469C63.5783 181.014 62.6997 181.549 61.8164 182.08C61.5687 182.236 61.3209 182.391 61.0657 182.552C59.2522 183.628 59.2522 183.628 58.1329 183.484C57.0296 182.442 56.4046 181.164 55.7129 179.834C55.3726 179.202 55.0312 178.57 54.689 177.939C54.5038 177.596 54.3185 177.253 54.1277 176.899C52.987 174.816 51.8002 172.759 50.6104 170.703C50.3748 170.29 50.1392 169.878 49.8964 169.452C49.5617 168.875 49.5617 168.875 49.2203 168.286C49.0222 167.942 48.8241 167.598 48.6199 167.244C48.0551 166.306 48.0551 166.306 46.875 165.625C44.959 165.409 44.1798 165.33 42.5781 166.431C41.5945 167.875 41.6529 168.588 41.7969 170.312C42.2522 171.51 42.2522 171.51 42.9413 172.653C43.3083 173.304 43.3083 173.304 43.6828 173.967C43.9492 174.426 44.2157 174.884 44.4824 175.342C44.7507 175.812 45.0185 176.283 45.2859 176.754C46.0681 178.127 46.8611 179.494 47.6562 180.859C47.8743 181.235 48.0924 181.611 48.3171 181.999C49.387 183.84 50.4677 185.674 51.5625 187.5C50.2945 188.539 49.0168 189.503 47.6318 190.381C47.305 190.593 46.9782 190.806 46.6415 191.025C45.7031 191.406 45.7031 191.406 44.9355 191.157C43.9223 190.479 43.5617 189.814 42.984 188.742C42.7705 188.352 42.5571 187.963 42.3371 187.561C42.1105 187.138 41.8839 186.715 41.6504 186.279C41.1593 185.382 40.6674 184.485 40.1749 183.589C40.0497 183.36 39.9245 183.132 39.7956 182.896C38.5583 180.639 37.266 178.415 35.9619 176.196C35.5061 175.419 35.0504 174.641 34.5947 173.863C34.3666 173.474 34.1385 173.085 33.9035 172.684C32.6936 170.612 31.4956 168.534 30.2979 166.455C30.0567 166.037 29.8155 165.618 29.567 165.187C29.0761 164.335 28.5853 163.483 28.0945 162.631C27.324 161.294 26.5528 159.957 25.7812 158.621C23.2982 154.32 20.8157 150.019 18.3594 145.703C19.4618 144.513 20.5292 143.72 21.9498 142.943C22.5467 142.613 22.5467 142.613 23.1558 142.276C23.5791 142.046 24.0024 141.815 24.4385 141.577C25.3192 141.092 26.1996 140.606 27.0798 140.12C27.518 139.878 27.9563 139.636 28.4079 139.387C30.582 138.172 32.7271 136.907 34.8626 135.625C35.1438 135.459 35.425 135.294 35.7147 135.123C35.9574 134.977 36.2 134.832 36.45 134.683C37.1094 134.375 37.1094 134.375 38.2812 134.375Z" fill="#FC745A"/>
<path d="M128.906 25.0001C130.323 26.0252 130.795 26.5597 131.079 28.296C130.645 31.0479 128.608 32.8342 126.706 34.7234C126.449 34.9816 126.192 35.2397 125.928 35.5057C125.083 36.3536 124.236 37.1985 123.389 38.0433C122.799 38.6335 122.209 39.2239 121.62 39.8143C120.387 41.0488 119.152 42.2819 117.916 43.514C116.332 45.0937 114.751 46.6769 113.172 48.2612C111.956 49.4797 110.738 50.6963 109.52 51.9124C108.937 52.4956 108.354 53.0793 107.771 53.6637C106.958 54.479 106.142 55.2918 105.325 56.104C105.085 56.3459 104.845 56.5878 104.597 56.837C104.374 57.0582 104.15 57.2794 103.92 57.5073C103.728 57.6994 103.535 57.8915 103.337 58.0895C102.278 58.9759 101.296 59.3479 99.9512 59.6437C95.6061 58.8728 91.1348 52.5357 88.1044 49.5051C87.103 48.5045 86.0984 47.507 85.0937 46.5097C84.4552 45.8723 83.8168 45.2348 83.1787 44.597C82.8789 44.2999 82.579 44.0029 82.2701 43.6968C81.9934 43.4189 81.7167 43.141 81.4316 42.8547C81.1883 42.612 80.9451 42.3694 80.6945 42.1193C79.6717 40.9363 79.3239 40.0565 79.126 38.5011C79.3403 36.7559 79.9226 36.2571 81.25 35.1564C81.3789 35.0275 81.5078 34.8986 81.6406 34.7658C83.9802 34.6915 85.172 34.99 86.8881 36.5983C87.2272 36.9156 87.5662 37.2328 87.9155 37.5596C90.1672 39.7312 92.376 41.9455 94.5801 44.1652C95.0703 44.6574 95.5606 45.1495 96.051 45.6415C97.2382 46.8329 98.4241 48.0255 99.6094 49.2189C101.184 48.5908 102.229 47.477 103.392 46.2878C103.718 45.9589 103.718 45.9589 104.051 45.6235C104.522 45.1482 104.992 44.672 105.461 44.195C106.205 43.4395 106.951 42.6866 107.698 41.9344C109.822 39.7955 111.94 37.6517 114.057 35.5067C115.353 34.1939 116.652 32.8839 117.953 31.5756C118.447 31.0773 118.94 30.5779 119.432 30.0773C120.121 29.3761 120.814 28.6786 121.507 27.9818C121.809 27.6722 121.809 27.6722 122.116 27.3563C124.204 25.2733 125.959 24.1427 128.906 25.0001Z" fill="#030506"/>
<path d="M32.5436 95.9474C32.9522 95.9328 33.3608 95.9182 33.7818 95.9032C36.784 95.8688 36.784 95.8688 38.3556 96.9575C39.4446 98.6369 39.4624 100.019 39.0621 101.953C38.0251 103.365 37.2489 104.011 35.5465 104.297C34.508 104.344 33.4842 104.369 32.4459 104.37C32.0339 104.377 32.0339 104.377 31.6135 104.385C29.4628 104.391 28.0358 104.152 26.44 102.686C25.5825 101.225 25.4394 100.095 25.7809 98.4376C27.5718 95.6318 29.471 95.9886 32.5436 95.9474Z" fill="black"/>
<path d="M6.44574 95.8741C6.84908 95.8698 7.25241 95.8655 7.66797 95.8611C9.46679 95.8785 10.61 95.8953 12.1708 96.8399C13.2886 98.1069 13.4376 99.0419 13.419 100.74C13.171 102.226 12.4181 102.891 11.3286 103.906C9.85824 104.469 8.26881 104.383 6.71429 104.395C6.44616 104.403 6.17802 104.411 5.90176 104.419C3.91428 104.434 2.53966 104.069 0.781677 103.125C-0.0388804 101.894 -0.133609 101.476 -0.170471 100.049C-0.186081 99.7196 -0.201691 99.3902 -0.217773 99.0509C0.540608 95.5613 3.53924 95.8069 6.44574 95.8741Z" fill="black"/>
<path d="M193.481 15.4787C193.89 15.4641 194.298 15.4494 194.719 15.4344C197.722 15.4 197.722 15.4 199.293 16.4888C200.382 18.1681 200.4 19.5499 200 21.4845C198.963 22.896 198.186 23.5421 196.484 23.8283C195.445 23.8752 194.422 23.9006 193.383 23.9015C192.971 23.9087 192.971 23.9087 192.551 23.916C190.4 23.922 188.973 23.6833 187.378 22.2169C186.52 20.7559 186.377 19.6259 186.718 17.9689C188.509 15.1631 190.408 15.5198 193.481 15.4787Z" fill="black"/>
<path d="M167.383 15.4053C167.787 15.401 168.19 15.3968 168.605 15.3923C170.404 15.4098 171.548 15.4266 173.108 16.3712C174.226 17.6382 174.375 18.5732 174.357 20.2713C174.108 21.7568 173.356 22.4223 172.266 23.4375C170.796 24.0004 169.206 23.9143 167.652 23.9258C167.384 23.9339 167.116 23.9419 166.839 23.9502C164.852 23.9653 163.477 23.6004 161.719 22.6563C160.899 21.4255 160.804 21.0069 160.767 19.5801C160.751 19.2508 160.736 18.9215 160.72 18.5822C161.478 15.0926 164.477 15.3382 167.383 15.4053Z" fill="black"/>
<path d="M21.0937 106.25C22.1913 106.951 22.8552 107.429 23.4374 108.594C23.563 110.064 23.5641 111.538 23.5839 113.013C23.5985 113.422 23.6131 113.83 23.6282 114.251C23.6628 117.274 23.6628 117.274 22.5219 118.816C21.2986 119.66 20.6287 119.922 19.1406 119.922C17.4414 119.356 16.6278 119.083 15.6249 117.578C15.4443 116.103 15.4803 114.62 15.4784 113.135C15.4689 112.728 15.4593 112.321 15.4495 111.902C15.438 108.906 15.438 108.906 16.3665 107.358C17.8188 106.089 19.2173 105.981 21.0937 106.25Z" fill="black"/>
<path d="M19.5317 80.2247C19.8539 80.2197 20.1762 80.2147 20.5082 80.2095C22.0309 80.6139 22.5352 81.1202 23.4379 82.422C23.7258 83.9898 23.7105 85.5196 23.6821 87.1095C23.6934 87.7424 23.6934 87.7424 23.705 88.3882C23.6931 90.3131 23.6838 91.4425 22.5682 93.0513C21.4316 93.7844 20.8694 94.0152 19.5317 93.9943C19.2094 93.9993 18.8871 94.0043 18.5551 94.0095C17.0325 93.6051 16.5281 93.0988 15.6254 91.797C15.3376 90.2292 15.3528 88.6994 15.3813 87.1095C15.3737 86.6875 15.3662 86.2656 15.3584 85.8308C15.3703 83.9059 15.3796 82.7765 16.4952 81.1677C17.6317 80.4346 18.194 80.2038 19.5317 80.2247Z" fill="black"/>
<path d="M182.031 25.7815C183.129 26.4821 183.793 26.9607 184.375 28.1252C184.5 29.5955 184.502 31.0692 184.521 32.5442C184.536 32.9528 184.551 33.3614 184.566 33.7824C184.6 36.805 184.6 36.805 183.459 38.3471C182.236 39.1908 181.566 39.4534 180.078 39.4534C178.379 38.887 177.565 38.614 176.562 37.1096C176.382 35.6345 176.418 34.1512 176.416 32.6662C176.406 32.2594 176.397 31.8525 176.387 31.4333C176.375 28.4368 176.375 28.4368 177.304 26.8893C178.756 25.6206 180.155 25.5119 182.031 25.7815Z" fill="black"/>
<path d="M180.469 -0.244019C180.791 -0.249054 181.114 -0.254089 181.446 -0.259277C182.968 0.145176 183.473 0.651486 184.375 1.95325C184.663 3.52105 184.648 5.05086 184.62 6.64075C184.631 7.2737 184.631 7.2737 184.642 7.91943C184.631 9.84434 184.621 10.9737 183.506 12.5825C182.369 13.3157 181.807 13.5464 180.469 13.5255C180.147 13.5305 179.825 13.5356 179.493 13.5408C177.97 13.1363 177.466 12.63 176.563 11.3282C176.275 9.76044 176.29 8.23063 176.319 6.64075C176.311 6.21878 176.304 5.79681 176.296 5.36206C176.308 3.43715 176.317 2.30775 177.433 0.698975C178.569 -0.0341745 179.131 -0.26492 180.469 -0.244019Z" fill="black"/>
<path d="M101.563 86.7186C102.71 87.6708 102.71 87.6708 103.516 88.6717C103.645 88.8006 103.774 88.9295 103.907 89.0624C103.967 90.0124 103.997 90.9437 104.004 91.8944C104.012 92.1557 104.02 92.4171 104.029 92.6863C104.042 94.4239 103.787 95.4894 102.735 96.8749C101.398 97.8771 100.06 97.8268 98.4378 97.6561C97.1138 96.8214 96.5918 96.4149 96.0941 94.9217C96.0268 93.9629 95.9899 93.0019 95.972 92.0409C95.9574 91.5303 95.9428 91.0197 95.9277 90.4936C96.1174 88.8617 96.5039 88.2512 97.6566 87.1092C98.9123 86.4814 100.205 86.4767 101.563 86.7186Z" fill="#030405"/>
<path d="M62.9879 51.4649C63.2493 51.4569 63.5106 51.4488 63.7798 51.4405C65.5172 51.4269 66.5951 51.6619 67.9684 52.7345C68.929 54.1755 69.0204 55.3581 68.7496 57.0313C67.9198 58.3763 67.5197 58.8736 66.0153 59.3751C65.1213 59.4322 64.2254 59.4614 63.3297 59.4727C62.8554 59.4828 62.381 59.4929 61.8923 59.5033C60.4525 59.3661 59.7416 59.0596 58.5934 58.2032C57.591 56.8667 57.613 55.528 57.8121 53.9063C58.7643 52.7833 58.7643 52.7833 59.7653 51.9532C60.5321 51.1864 61.9443 51.4728 62.9879 51.4649Z" fill="#020404"/>
<path d="M101.172 13.2812C102.537 13.9326 103.058 14.3515 103.907 15.625C104.024 16.9525 104.024 16.9525 104.029 18.5058C104.035 19.0164 104.042 19.527 104.049 20.0531C103.9 21.5471 103.647 22.2632 102.735 23.4375C101.294 24.3981 100.111 24.4894 98.438 24.2187C97.093 23.3888 96.5957 22.9888 96.0942 21.4843C95.634 16.1919 95.634 16.1919 97.022 14.5263C98.4976 13.2966 99.2557 13.1309 101.172 13.2812Z" fill="#020304"/>
<path d="M136.45 51.4651C137.112 51.45 137.112 51.45 137.788 51.4346C139.512 51.608 140.513 52.2325 141.724 53.4426C142.361 54.6178 142.373 55.3178 142.187 56.6409C140.967 58.8704 140.967 58.8704 139.453 59.3752C138.494 59.4425 137.533 59.4794 136.572 59.4973C135.806 59.5192 135.806 59.5192 135.025 59.5416C133.393 59.3519 132.782 58.9654 131.641 57.8127C131.012 56.5561 131.01 55.2653 131.25 53.9065C132.891 51.8767 133.91 51.4996 136.45 51.4651Z" fill="#020304"/>
<path d="M82.0312 167.969C83.4962 168.765 83.9012 169.333 84.5458 170.874C84.784 172.382 84.7817 172.936 83.9843 174.219C82.8927 175.407 82.0574 175.89 80.4687 175.977C78.8927 175.899 78.0607 175.36 76.953 174.219C76.3457 173.004 76.4505 172.046 76.5624 170.703C77.9735 168.163 79.142 167.581 82.0312 167.969Z" fill="#030202"/>
<path d="M39.4534 151.953C40.5266 152.648 40.7607 153.113 41.4065 154.297C41.573 155.874 41.2559 157.032 40.4299 158.374C38.9937 159.271 37.624 159.51 35.9377 159.375C34.7965 158.685 34.188 158.219 33.594 157.031C33.367 154.262 33.367 154.262 34.3264 152.759C35.9113 151.22 37.3981 151.387 39.4534 151.953Z" fill="#070302"/>
</g>
<defs>
<clipPath id="clip0_391_83">
<rect width="200" height="200" fill="white"/>
</clipPath>
</defs>
</svg>
