<svg width="200" height="200" viewBox="0 0 200 200" fill="none" xmlns="http://www.w3.org/2000/svg">
<g clip-path="url(#clip0_391_104)">
<path d="M107.422 1.56245C109.216 2.9529 110.894 4.47457 112.573 5.99952C127.166 19.205 144.919 24.7162 164.198 26.6546C170.73 27.316 176.596 29.5692 180.86 34.7656C185.553 41.4603 185.669 48.3671 185.651 56.2408C185.652 57.0753 185.652 57.9098 185.653 58.7443C185.654 60.4903 185.653 62.2363 185.649 63.9823C185.645 66.1881 185.647 68.3937 185.652 70.5995C185.683 88.2346 185.683 88.2346 184.766 96.875C184.723 97.2911 184.68 97.7072 184.636 98.136C182.259 121.074 175.833 143.433 161.328 161.719C161.028 162.102 160.727 162.486 160.418 162.881C155.54 168.981 149.998 174.598 143.75 179.297C143.519 179.474 143.288 179.651 143.05 179.833C136.462 184.856 129.31 189.074 121.825 192.619C121.081 192.975 120.344 193.343 119.608 193.713C103.01 201.951 103.01 201.951 94.4858 199.293C80.8842 194.674 67.965 187.733 56.641 178.906C56.2981 178.639 55.9552 178.372 55.6019 178.097C32.2656 159.47 20.6505 132.6 16.7484 103.491C16.6864 103.037 16.6244 102.583 16.5605 102.115C16.3544 100.501 16.1783 98.8851 16.016 97.2656C15.981 96.9262 15.9459 96.5867 15.9099 96.237C15.0304 87.3258 15.1143 78.3925 15.1329 69.4479C15.1374 67.2662 15.1347 65.0847 15.1301 62.9031C15.1273 61.1999 15.1282 59.4968 15.1302 57.7936C15.1307 56.9892 15.1301 56.1847 15.1283 55.3803C15.1125 46.5564 15.796 39.382 22.057 32.6019C27.2412 27.5694 33.4953 26.8315 40.3571 26.233C55.9025 24.8339 70.7451 19.649 83.2035 10.1562C83.5469 9.89587 83.8903 9.63554 84.2441 9.36732C85.8517 8.11443 87.3699 6.79872 88.8513 5.40128C93.8008 0.737942 100.982 -2.66339 107.422 1.56245Z" fill="#00DC7F"/>
<path d="M100.391 0C106.001 0 108.6 2.39053 112.573 5.99957C127.165 19.2051 144.918 24.7163 164.198 26.6546C170.73 27.316 176.595 29.5692 180.859 34.7656C185.552 41.4603 185.668 48.3671 185.651 56.2408C185.651 57.0754 185.652 57.9099 185.653 58.7444C185.654 60.4904 185.652 62.2364 185.649 63.9824C185.644 66.1881 185.647 68.3938 185.651 70.5995C185.682 88.2347 185.682 88.2347 184.766 96.875C184.723 97.2911 184.68 97.7073 184.636 98.136C182.258 121.074 175.832 143.433 161.328 161.719C161.028 162.102 160.727 162.486 160.417 162.881C155.54 168.981 149.998 174.598 143.75 179.297C143.519 179.474 143.288 179.651 143.05 179.833C136.462 184.856 129.31 189.074 121.824 192.619C121.081 192.975 120.344 193.343 119.608 193.713C116.147 195.429 112.593 196.869 108.984 198.242C108.313 198.503 108.313 198.503 107.628 198.77C106.982 199.01 106.982 199.01 106.323 199.255C105.751 199.471 105.751 199.471 105.168 199.691C103.906 200 103.906 200 100.391 200C100.391 183.5 100.391 167 100.391 150C103.484 149.613 106.578 149.227 109.766 148.828C113.865 147.83 117.666 146.702 121.484 144.922C122.046 144.671 122.046 144.671 122.62 144.415C133.583 139.28 142.4 129.375 146.667 118.111C151.575 104.464 150.914 90.7521 144.85 77.6138C139.535 66.5497 129.1 57.4169 117.549 53.3203C111.907 51.4373 106.33 50.6599 100.391 50C100.391 33.5 100.391 17 100.391 0Z" fill="#00A861"/>
<path d="M122.266 55.0783C122.615 55.2339 122.964 55.3895 123.324 55.5498C131.143 59.1303 137.94 65.9441 142.578 73.0471C142.769 73.3286 142.961 73.61 143.158 73.9C149.751 84.1261 151.975 97.2591 149.623 109.139C148.4 114.78 146.597 119.974 143.75 125C143.538 125.379 143.326 125.759 143.108 126.149C141.214 129.314 138.79 132.037 136.328 134.766C136.067 135.06 135.806 135.354 135.538 135.657C132.07 139.351 127.579 142.324 123.047 144.531C122.646 144.731 122.245 144.931 121.832 145.137C115.537 148.172 108.943 149.827 101.948 149.741C101.146 149.732 100.346 149.733 99.5444 149.735C87.8673 149.711 76.739 145.625 67.9687 137.891C67.6157 137.594 67.2627 137.298 66.899 136.992C57.8911 129.207 51.7224 117.352 50.7812 105.469C50.7171 103.686 50.7089 101.906 50.7079 100.122C50.7031 99.6573 50.6983 99.1922 50.6934 98.7131C50.6747 87.223 54.918 76.1894 62.4999 67.5783C62.7769 67.2495 63.0538 66.9207 63.3391 66.5819C77.633 49.9917 102.837 45.4982 122.266 55.0783Z" fill="#E0EAEF"/>
<path d="M97.7737 50.3816C98.5096 50.3836 98.5096 50.3836 99.2603 50.3856C99.8198 50.3882 99.8198 50.3882 100.391 50.3908C100.583 56.615 100.727 62.8384 100.816 69.0649C100.858 71.9571 100.915 74.8474 101.009 77.7384C101.092 80.2625 101.144 82.7853 101.162 85.3107C101.173 86.6451 101.197 87.9757 101.258 89.3088C101.46 94.3023 101.495 98.4937 98.0286 102.368C96.2732 104.215 94.4043 106.15 92.1874 107.422C90.7606 107.3 90.1402 106.674 89.1738 105.654C88.9057 105.376 88.6375 105.099 88.3613 104.814C87.8048 104.227 87.2484 103.64 86.692 103.053C86.4233 102.775 86.1547 102.497 85.8779 102.211C85.6362 101.956 85.3946 101.701 85.1456 101.438C83.9016 100.378 82.7313 100.041 81.1278 99.8292C79.2801 100.048 77.9624 100.73 76.5624 101.953C75.8596 103.055 75.6659 103.926 75.6591 105.225C75.6525 105.51 75.646 105.795 75.6393 106.088C76.0279 108.671 77.7138 110.305 79.4906 112.055C79.7366 112.301 79.9827 112.547 80.2363 112.801C80.7546 113.318 81.2744 113.834 81.7955 114.349C82.5922 115.136 83.3835 115.929 84.1743 116.722C84.6798 117.226 85.1856 117.729 85.6917 118.231C85.9278 118.468 86.1638 118.704 86.407 118.948C86.6299 119.167 86.8528 119.386 87.0825 119.612C87.2767 119.804 87.471 119.997 87.6711 120.195C89.0873 121.375 90.272 121.578 92.1111 121.626C94.4733 121.236 95.9853 119.78 97.5585 118.091C98.2282 117.379 98.9043 116.694 99.6093 116.016C99.8671 116.016 100.125 116.016 100.391 116.016C100.391 127.102 100.391 138.188 100.391 149.61C88.2264 149.61 77.1506 145.988 67.9687 137.891C67.6157 137.594 67.2627 137.298 66.899 136.992C57.8911 129.207 51.7224 117.352 50.7812 105.469C50.7171 103.686 50.7089 101.906 50.7079 100.122C50.7031 99.6572 50.6983 99.1922 50.6934 98.7131C50.6747 87.2229 54.918 76.1893 62.4999 67.5783C62.7769 67.2495 63.0538 66.9206 63.3391 66.5819C70.8472 57.8677 82.3525 51.5834 93.8556 50.4576C95.1637 50.3756 96.463 50.377 97.7737 50.3816Z" fill="#FEFEFE"/>
<path d="M120.312 82.8126C122.401 83.5759 123.616 84.7315 124.609 86.7189C124.689 87.4818 124.689 87.4818 124.707 88.379C124.717 88.6711 124.727 88.9632 124.738 89.2641C124.383 91.951 122.549 93.6348 120.718 95.4496C120.443 95.7268 120.167 96.004 119.884 96.2896C118.977 97.2019 118.066 98.1098 117.154 99.0175C116.521 99.6514 115.888 100.286 115.255 100.92C113.93 102.247 112.602 103.572 111.273 104.895C109.57 106.592 107.872 108.294 106.175 109.997C104.87 111.307 103.562 112.614 102.253 113.92C101.625 114.546 100.999 115.174 100.374 115.802C99.4994 116.679 98.6216 117.552 97.7427 118.425C97.4849 118.685 97.2271 118.945 96.9615 119.213C94.9682 121.179 93.5524 121.926 90.6876 122.055C88.3072 121.547 86.4771 119.41 84.8206 117.751C84.4512 117.384 84.4512 117.384 84.0743 117.009C83.5573 116.495 83.0413 115.979 82.5262 115.462C81.7386 114.673 80.946 113.89 80.1529 113.107C79.6495 112.604 79.1465 112.101 78.6438 111.598C78.4074 111.366 78.171 111.133 77.9274 110.893C76.2537 109.201 75.2879 107.751 75.2441 105.298C75.2945 103.513 75.7315 102.519 76.9531 101.172C78.2878 100.112 79.3791 99.6474 81.0791 99.4386C84.5961 99.8862 86.4905 102.441 88.7711 104.901C89.1706 105.318 89.1706 105.318 89.5782 105.744C89.817 106 90.0557 106.256 90.3017 106.521C90.9732 107.109 90.9732 107.109 91.7817 107.014C92.8174 106.529 93.4543 105.903 94.2581 105.089C94.5756 104.769 94.8931 104.45 95.2202 104.121C95.5487 103.784 95.8773 103.448 96.2158 103.101C96.5398 102.775 96.8639 102.449 97.1977 102.113C98.6126 100.68 99.9928 99.2349 101.311 97.7126C102.645 96.18 104.038 94.7214 105.469 93.2802C105.719 93.0282 105.968 92.7762 106.226 92.5166C106.749 91.9896 107.273 91.4631 107.797 90.9372C108.595 90.1361 109.388 89.3308 110.181 88.5255C110.693 88.0105 111.206 87.4958 111.719 86.9813C111.952 86.7429 112.186 86.5044 112.427 86.2587C114.799 83.8985 116.877 82.4309 120.312 82.8126Z" fill="#B3D1D7"/>
<path d="M120.312 82.8126C122.401 83.5759 123.615 84.7315 124.609 86.7189C124.688 87.4818 124.688 87.4818 124.707 88.379C124.717 88.6711 124.727 88.9631 124.737 89.264C124.419 91.6751 122.901 93.2828 121.23 94.9241C120.9 95.2561 120.9 95.2561 120.562 95.5948C119.838 96.3204 119.109 97.0418 118.38 97.7632C117.875 98.2676 117.369 98.7722 116.864 99.277C115.808 100.331 114.75 101.384 113.69 102.435C112.329 103.785 110.971 105.139 109.614 106.494C108.572 107.534 107.529 108.573 106.486 109.612C105.984 110.111 105.483 110.611 104.982 111.11C104.285 111.805 103.586 112.499 102.886 113.192C102.678 113.4 102.469 113.608 102.254 113.823C100.826 115.235 100.826 115.235 100.39 115.235C98.0756 101.557 98.0756 101.557 101.726 96.2871C105.59 91.3974 113.439 82.0489 120.312 82.8126Z" fill="#6FA4A9"/>
</g>
<defs>
<clipPath id="clip0_391_104">
<rect width="200" height="200" fill="white"/>
</clipPath>
</defs>
</svg>
