<svg width="200" height="200" viewBox="0 0 200 200" fill="none" xmlns="http://www.w3.org/2000/svg">
<path d="M92.0484 35.8203C92.6802 35.8187 93.3121 35.817 93.9439 35.8152C95.2641 35.8123 96.5843 35.8124 97.9045 35.8144C99.5841 35.8167 101.264 35.8101 102.943 35.801C104.247 35.7952 105.551 35.7949 106.855 35.7961C107.474 35.7959 108.093 35.7939 108.711 35.79C115.467 35.7519 120.632 36.906 125.665 41.6186C130.319 46.597 130.538 52.5397 130.493 59.009C130.491 59.4962 130.489 59.9834 130.488 60.4853C130.483 61.6778 130.477 62.8703 130.469 64.0627C130.882 64.0593 131.296 64.0558 131.723 64.0522C135.631 64.0205 139.539 63.9971 143.447 63.9818C145.456 63.9736 147.465 63.9626 149.474 63.9449C151.414 63.9278 153.354 63.9185 155.294 63.9145C156.033 63.9116 156.772 63.906 157.51 63.8975C158.548 63.8861 159.586 63.8846 160.624 63.8854C160.927 63.8797 161.229 63.8741 161.542 63.8683C163.716 63.8846 165.366 64.4238 167.187 65.6252C168.624 67.1378 169.627 68.6014 169.632 70.7214C169.634 71.0342 169.637 71.347 169.639 71.6693C169.637 72.1813 169.637 72.1813 169.635 72.7037C169.637 73.0681 169.639 73.4326 169.641 73.808C169.646 75.0321 169.645 76.2561 169.645 77.4802C169.647 78.3566 169.65 79.2331 169.652 80.1096C169.659 82.4929 169.661 84.8762 169.662 87.2596C169.662 89.2486 169.665 91.2376 169.668 93.2266C169.674 97.6514 169.676 102.076 169.676 106.501C169.676 106.767 169.676 107.032 169.676 107.306C169.676 107.571 169.676 107.837 169.676 108.111C169.675 112.417 169.683 116.723 169.694 121.029C169.705 125.452 169.71 129.875 169.71 134.298C169.71 136.78 169.712 139.263 169.72 141.745C169.728 144.08 169.728 146.416 169.722 148.751C169.721 149.608 169.723 150.464 169.728 151.321C169.734 152.492 169.73 153.662 169.724 154.833C169.728 155.171 169.732 155.509 169.736 155.857C169.707 158.411 169.085 160.566 167.273 162.438C167.051 162.579 166.83 162.721 166.601 162.866C166.38 163.015 166.158 163.164 165.93 163.317C164.48 164.058 163.109 164.112 161.498 164.114C161.053 164.116 160.608 164.117 160.15 164.119C159.416 164.118 159.416 164.118 158.668 164.118C158.143 164.119 157.618 164.12 157.094 164.121C155.651 164.124 154.207 164.125 152.764 164.125C151.208 164.126 149.653 164.129 148.097 164.132C144.694 164.137 141.291 164.139 137.889 164.141C135.765 164.142 133.64 164.144 131.516 164.145C125.635 164.15 119.755 164.154 113.874 164.156C113.31 164.156 113.31 164.156 112.734 164.156C112.356 164.156 111.979 164.156 111.59 164.156C110.826 164.156 110.061 164.156 109.297 164.157C108.918 164.157 108.538 164.157 108.148 164.157C102.001 164.158 95.855 164.165 89.7087 164.174C83.3996 164.184 77.0904 164.188 70.7813 164.189C67.2384 164.189 63.6956 164.192 60.1528 164.199C57.1363 164.205 54.1198 164.207 51.1033 164.203C49.5642 164.202 48.0252 164.202 46.4861 164.208C45.0767 164.213 43.6674 164.212 42.2581 164.207C41.5076 164.206 40.757 164.211 40.0065 164.216C36.6103 164.196 34.168 163.786 31.6404 161.328C30.3566 159.303 30.3003 157.632 30.3144 155.313C30.3121 154.946 30.3097 154.58 30.3072 154.202C30.3007 152.975 30.3026 151.748 30.3045 150.521C30.3016 149.64 30.2983 148.76 30.2945 147.879C30.2858 145.489 30.2846 143.098 30.2854 140.708C30.2854 138.712 30.2821 136.716 30.2788 134.72C30.2709 129.742 30.2705 124.764 30.2733 119.786C30.2754 115.467 30.2673 111.147 30.2544 106.827C30.2412 102.388 30.2355 97.9495 30.2371 93.5105C30.2379 91.0197 30.2357 88.5291 30.2262 86.0383C30.2175 83.6958 30.2182 81.3535 30.2262 79.011C30.2275 78.1518 30.2255 77.2927 30.2199 76.4335C30.2128 75.2594 30.2178 74.0859 30.2258 72.9117C30.2184 72.4034 30.2184 72.4034 30.2109 71.8848C30.2456 69.4945 30.882 67.8591 32.4216 66.0159C34.6714 64.2611 36.3784 64.0058 39.1541 64.0184C39.6458 64.0183 39.6458 64.0183 40.1475 64.0182C41.2318 64.0185 42.3161 64.0215 43.4003 64.0246C44.1518 64.0253 44.9033 64.0259 45.6549 64.0263C47.6334 64.0278 49.612 64.0316 51.5905 64.0359C53.6092 64.0399 55.628 64.0417 57.6467 64.0437C61.6081 64.0479 65.5696 64.0545 69.531 64.0627C69.5295 63.7704 69.5279 63.4781 69.5264 63.1769C69.5202 61.8405 69.5165 60.5041 69.5127 59.1677C69.509 58.4779 69.509 58.4779 69.5053 57.7742C69.4911 51.0369 70.4859 45.7837 75.2286 40.7488C80.0198 36.2498 85.8462 35.814 92.0484 35.8203ZM88.281 54.2971C88.281 57.5198 88.281 60.7424 88.281 64.0627C96.0154 64.0627 103.75 64.0627 111.719 64.0627C111.719 60.8401 111.719 57.6174 111.719 54.2971C103.984 54.2971 96.2498 54.2971 88.281 54.2971Z" fill="#142637"/>
<path d="M34.7657 115.625C40.2835 115.63 45.8012 115.647 51.319 115.677C53.8811 115.69 56.443 115.7 59.0051 115.701C61.4772 115.703 63.9491 115.714 66.4211 115.732C67.3647 115.737 68.3084 115.739 69.252 115.737C70.5728 115.735 71.8929 115.745 73.2135 115.758C73.8002 115.753 73.8002 115.753 74.3987 115.748C77.0738 115.792 77.0738 115.792 78.5102 116.981C78.8997 117.47 78.8997 117.47 79.2969 117.969C80.3809 118.433 80.3809 118.433 81.543 118.652C82.108 118.782 82.108 118.782 82.6844 118.915C83.7341 119.097 84.7654 119.236 85.8235 119.35C86.2954 119.401 86.2954 119.401 86.7767 119.454C87.0154 119.479 87.2541 119.505 87.5001 119.531C87.5032 119.93 87.5064 120.329 87.5096 120.739C87.5399 124.493 87.5741 128.246 87.6124 132C87.6319 133.929 87.65 135.859 87.6649 137.789C87.6792 139.65 87.6973 141.512 87.7181 143.374C87.7253 144.085 87.7312 144.796 87.7357 145.507C87.7423 146.501 87.7537 147.495 87.7661 148.489C87.767 148.784 87.7678 149.08 87.7687 149.384C87.7921 150.841 87.8429 151.491 88.6719 152.734C91.2247 152.687 92.4391 151.21 94.1407 149.512C94.6772 148.988 95.2143 148.465 95.752 147.943C96.0068 147.694 96.2616 147.445 96.5241 147.189C97.5134 146.249 98.5477 145.387 99.6094 144.531C101.263 145.206 102.482 146.373 103.809 147.534C104.052 147.743 104.296 147.953 104.546 148.168C105.591 149.069 106.616 149.976 107.611 150.931C108.001 151.304 108.001 151.304 108.399 151.685C108.719 152.009 108.719 152.009 109.045 152.339C110.117 152.927 110.943 152.571 112.109 152.344C112.113 151.938 112.117 151.533 112.122 151.116C112.16 147.304 112.2 143.493 112.242 139.682C112.264 137.723 112.284 135.763 112.304 133.803C112.322 131.914 112.343 130.025 112.364 128.135C112.372 127.413 112.38 126.69 112.386 125.968C112.396 124.959 112.408 123.951 112.42 122.942C112.422 122.641 112.424 122.339 112.427 122.028C112.456 119.966 112.456 119.966 112.891 119.531C114.253 119.286 115.615 119.065 116.984 118.86C118.798 118.564 120.285 118.167 121.875 117.188C122.133 116.801 122.391 116.414 122.656 116.016C123.417 115.865 123.417 115.865 124.367 115.86C124.726 115.855 125.085 115.85 125.456 115.845C126.049 115.846 126.049 115.846 126.654 115.847C127.277 115.841 127.277 115.841 127.912 115.835C129.29 115.823 130.668 115.819 132.047 115.816C133 115.809 133.954 115.802 134.907 115.794C137.421 115.776 139.934 115.764 142.448 115.754C145.011 115.742 147.574 115.724 150.137 115.707C155.17 115.673 160.202 115.646 165.234 115.625C165.28 121.149 165.314 126.674 165.336 132.199C165.346 134.764 165.36 137.329 165.382 139.894C165.403 142.368 165.415 144.843 165.42 147.317C165.423 148.263 165.43 149.208 165.441 150.153C165.455 151.474 165.457 152.795 165.456 154.117C165.463 154.51 165.47 154.902 165.477 155.307C165.475 155.667 165.472 156.027 165.469 156.399C165.471 156.711 165.473 157.024 165.475 157.346C165.113 158.635 164.374 159.031 163.281 159.766C162.227 159.961 162.227 159.961 161.063 159.962C160.395 159.968 160.395 159.968 159.714 159.975C159.227 159.971 158.739 159.968 158.237 159.964C157.713 159.966 157.189 159.968 156.665 159.971C155.225 159.978 153.785 159.975 152.345 159.97C150.791 159.966 149.238 159.972 147.685 159.976C144.643 159.983 141.6 159.982 138.558 159.977C136.086 159.973 133.614 159.973 131.142 159.975C130.614 159.975 130.614 159.975 130.076 159.975C129.362 159.976 128.647 159.976 127.933 159.977C121.233 159.981 114.534 159.976 107.834 159.968C102.082 159.961 96.3306 159.962 90.579 159.969C83.9028 159.978 77.2266 159.981 70.5503 159.976C69.8388 159.976 69.1272 159.975 68.4157 159.975C67.8905 159.974 67.8905 159.974 67.3547 159.974C64.8848 159.973 62.4148 159.975 59.9449 159.979C56.9361 159.983 53.9273 159.982 50.9185 159.973C49.3827 159.969 47.847 159.968 46.3112 159.973C44.9062 159.978 43.5014 159.975 42.0964 159.967C41.3455 159.964 40.5945 159.969 39.8435 159.975C39.3994 159.971 38.9553 159.966 38.4977 159.962C37.9217 159.962 37.9217 159.962 37.334 159.961C36.043 159.71 35.5765 159.217 34.7657 158.203C34.5734 157.346 34.5734 157.346 34.5778 156.399C34.5756 156.038 34.5735 155.678 34.5713 155.307C34.5769 154.914 34.5825 154.522 34.5883 154.117C34.5881 153.702 34.5879 153.286 34.5876 152.858C34.5887 151.484 34.6009 150.11 34.6131 148.737C34.616 147.784 34.6182 146.832 34.6198 145.879C34.6258 143.372 34.6411 140.865 34.6584 138.358C34.6744 135.8 34.6815 133.242 34.6894 130.684C34.7062 125.664 34.7325 120.645 34.7657 115.625Z" fill="#4EA4DA"/>
<path d="M38.4567 68.2586C38.9017 68.2561 39.3466 68.2536 39.8051 68.251C40.5416 68.2528 40.5416 68.2528 41.293 68.2547C41.8181 68.2532 42.3433 68.2514 42.8685 68.2493C44.3147 68.2445 45.761 68.2446 47.2072 68.2456C48.7658 68.2457 50.3243 68.2414 51.8828 68.2377C54.9373 68.2312 57.9918 68.2291 61.0464 68.2286C63.5283 68.2283 66.0103 68.2267 68.4922 68.2242C75.5243 68.2173 82.5563 68.2137 89.5884 68.2143C89.9677 68.2143 90.347 68.2143 90.7378 68.2144C91.3074 68.2144 91.3074 68.2144 91.8886 68.2145C98.0458 68.2148 104.203 68.2073 110.36 68.1963C116.678 68.1851 122.995 68.1797 129.313 68.1804C132.862 68.1806 136.41 68.1785 139.959 68.1701C142.98 68.163 146.001 68.1612 149.022 68.1665C150.564 68.1691 152.106 68.1691 153.648 68.1624C155.059 68.1563 156.47 68.1573 157.88 68.1642C158.634 68.1659 159.389 68.16 160.143 68.1538C160.589 68.1574 161.035 68.161 161.494 68.1647C162.073 68.1644 162.073 68.1644 162.663 68.1642C163.955 68.4139 164.412 68.9169 165.234 69.9216C165.676 70.8044 165.677 71.2869 165.682 72.2667C165.687 72.7571 165.687 72.7571 165.691 73.2574C165.692 73.6167 165.693 73.9761 165.694 74.3464C165.697 74.7244 165.699 75.1024 165.702 75.4918C165.71 76.7463 165.714 78.0009 165.718 79.2554C165.72 79.6832 165.721 80.1111 165.723 80.5518C165.731 82.8158 165.737 85.0798 165.74 87.3438C165.745 89.6847 165.758 92.0253 165.774 94.3661C165.784 96.164 165.787 97.9618 165.788 99.7596C165.79 100.623 165.795 101.486 165.802 102.349C165.812 103.556 165.811 104.763 165.809 105.97C165.814 106.327 165.819 106.684 165.824 107.052C165.81 108.686 165.766 109.54 164.881 110.955C163.766 111.995 163.186 112.158 161.704 112.156C161.21 112.157 161.21 112.157 160.705 112.158C160.343 112.156 159.98 112.155 159.607 112.153C159.035 112.154 159.035 112.154 158.452 112.154C157.188 112.153 155.924 112.15 154.66 112.147C153.785 112.147 152.911 112.146 152.036 112.146C149.731 112.144 147.425 112.14 145.12 112.136C142.768 112.132 140.417 112.13 138.066 112.128C133.45 112.124 128.835 112.117 124.219 112.109C124.059 111.652 123.898 111.196 123.734 110.725C123.521 110.12 123.308 109.516 123.096 108.911C122.938 108.46 122.938 108.46 122.777 108.001C122.345 106.774 121.912 105.559 121.416 104.357C120.49 101.938 121.331 99.7715 122.241 97.5095C122.35 97.227 122.458 96.9446 122.57 96.6535C123.37 94.5984 123.37 94.5984 123.828 94.1404C124.185 91.8099 123.792 90.1774 122.531 88.2124C120.793 86.3243 118.905 85.6597 116.431 85.2781C116.166 85.2325 115.901 85.1869 115.629 85.14C114.353 84.9236 113.104 84.7495 111.813 84.6342C110.337 84.3319 109.938 83.994 109.009 82.8367C108.748 82.522 108.488 82.2073 108.22 81.883C107.68 81.1909 107.144 80.496 106.612 79.7987C104.406 76.8805 104.406 76.8805 101.064 75.6361C98.7918 75.4645 97.2562 75.9209 95.43 77.2703C94.1101 78.5251 93.0312 79.9339 91.9723 81.4126C90.7153 83.1671 89.6822 84.3632 87.5244 84.7898C87.2203 84.8517 86.9161 84.9137 86.6028 84.9775C85.8281 85.1085 85.0503 85.2208 84.2712 85.3223C80.4715 85.8112 80.4715 85.8112 77.5543 88.1727C76.1401 90.1377 75.8779 91.7442 76.1719 94.1404C76.5257 95.3153 77.0138 96.4022 77.539 97.5095C78.6385 99.8527 79.4411 101.742 78.6508 104.362C78.3135 105.289 77.9462 106.196 77.5635 107.104C77.3109 107.72 77.0591 108.336 76.8081 108.952C76.6956 109.221 76.5831 109.49 76.4672 109.767C76.174 110.541 75.9752 111.306 75.7812 112.109C70.7219 112.145 65.6625 112.173 60.6031 112.19C58.2538 112.198 55.9046 112.209 53.5554 112.227C51.2885 112.244 49.0218 112.253 46.7549 112.257C45.8897 112.26 45.0246 112.266 44.1594 112.274C42.9483 112.286 41.7375 112.287 40.5263 112.287C40.168 112.292 39.8098 112.298 39.4407 112.304C37.8031 112.293 36.9463 112.251 35.5286 111.366C34.4938 110.255 34.3261 109.674 34.3227 108.199C34.3211 107.871 34.3194 107.544 34.3177 107.207C34.3179 106.847 34.3181 106.487 34.3182 106.116C34.3169 105.737 34.3156 105.358 34.3143 104.968C34.3105 103.712 34.3098 102.456 34.3094 101.199C34.3081 100.328 34.3068 99.4572 34.3054 98.5863C34.3031 96.7585 34.3024 94.9308 34.3026 93.103C34.3026 90.7587 34.2973 88.4144 34.2906 86.0701C34.2862 84.2706 34.2854 82.4711 34.2856 80.6716C34.2852 79.8072 34.2835 78.9428 34.2804 78.0784C34.2766 76.8702 34.2777 75.662 34.2801 74.4537C34.2779 74.0953 34.2757 73.7369 34.2734 73.3676C34.2751 73.0379 34.2767 72.7082 34.2784 72.3685C34.2782 72.0829 34.278 71.7973 34.2778 71.503C34.3931 70.5538 34.6467 69.9483 35.1562 69.1404C36.4751 68.2612 36.9131 68.2608 38.4567 68.2586Z" fill="#FEFEFE"/>
<path d="M100.403 79.2832C101.806 79.7723 102.367 80.3389 103.32 81.4698C103.621 81.8213 103.921 82.1727 104.23 82.5349C105.147 83.6795 106.02 84.8433 106.842 86.0581C108.118 87.5113 109.605 88.0325 111.476 88.292C111.868 88.3517 112.26 88.4113 112.664 88.4728C113.484 88.5895 114.304 88.7044 115.124 88.8177C115.515 88.8778 115.907 88.938 116.31 89C116.666 89.0498 117.022 89.0996 117.388 89.151C118.599 89.5278 119.135 90.032 119.922 91.0157C120.313 93.6759 119.203 95.7671 118.16 98.1408C117.062 100.763 116.682 102.827 117.786 105.554C118.037 106.114 118.293 106.672 118.555 107.227C119.616 109.475 120.201 111.161 119.922 113.672C119.346 114.58 118.971 114.772 117.96 115.102C117.657 115.154 117.354 115.205 117.041 115.259C116.698 115.321 116.354 115.383 116.001 115.447C115.182 115.573 114.362 115.687 113.541 115.791C109.078 116.379 107.092 118.047 104.297 121.484C103.933 121.993 103.574 122.505 103.223 123.023C102.141 124.494 101.575 124.858 99.8293 125.171C97.4751 124.769 95.6726 121.634 94.2163 119.816C91.5423 116.573 89.0301 116.107 85.0046 115.712C83.4279 115.53 82.227 115.333 80.8 114.612C79.9649 113.524 79.8358 112.772 79.9242 111.409C80.2029 109.85 80.811 108.451 81.4455 107.007C82.677 104.19 83.3605 102.076 82.2145 99.0723C81.9628 98.4682 81.7064 97.866 81.4455 97.2657C80.5098 95.1126 79.8406 93.4202 80.0783 91.0157C80.7238 89.9301 81.286 89.5589 82.4907 89.1999C84.0942 88.8558 85.6706 88.6602 87.3049 88.5499C90.1147 88.2245 92.2754 87.2295 94.1027 85.0373C94.8533 84.0899 95.5652 83.1195 96.2725 82.1396C98.3976 79.3065 98.3976 79.3065 100.403 79.2832Z" fill="#FBCA35"/>
<path d="M87.6404 40.121C88.0573 40.1171 88.0573 40.1171 88.4826 40.113C89.3967 40.1057 90.3106 40.1041 91.2246 40.1033C91.8659 40.1007 92.5073 40.0981 93.1486 40.0954C94.4925 40.0907 95.8364 40.0893 97.1804 40.0897C98.8895 40.0898 100.598 40.0792 102.307 40.0657C103.633 40.0569 104.958 40.0554 106.284 40.0558C106.913 40.0549 107.542 40.0515 108.172 40.0454C112.895 40.0039 117.772 40.2396 121.571 43.4282C125.385 47.3425 126.33 51.1374 126.275 56.4538C126.265 57.0451 126.255 57.6364 126.245 58.2276C126.239 58.8327 126.234 59.4377 126.229 60.0427C126.217 61.5131 126.194 62.9828 126.172 64.4532C122.82 64.4532 119.469 64.4532 116.016 64.4532C116.01 63.6299 116.004 62.8067 115.999 61.9584C115.987 61.1568 115.972 60.3553 115.956 59.5537C115.947 58.9987 115.941 58.4437 115.939 57.8886C115.936 57.0882 115.919 56.2889 115.901 55.4887C115.895 55.008 115.889 54.5273 115.883 54.032C115.549 52.3533 114.995 51.8469 113.672 50.7814C112.372 50.4875 112.372 50.4875 110.929 50.5286C110.661 50.5252 110.392 50.5218 110.116 50.5183C109.233 50.5097 108.352 50.5153 107.469 50.522C106.854 50.5206 106.239 50.5187 105.623 50.5163C104.336 50.5134 103.048 50.5176 101.761 50.5267C100.111 50.5379 98.4624 50.5314 96.8129 50.5198C95.5431 50.5127 94.2735 50.5149 93.0037 50.52C92.3956 50.5213 91.7874 50.5197 91.1792 50.5152C90.3291 50.5102 89.4799 50.5178 88.6298 50.5286C87.9048 50.531 87.9048 50.531 87.1651 50.5333C85.8736 50.6789 85.8736 50.6789 85.0012 51.6926C84.2021 53.0219 84.1632 53.943 84.1369 55.4887C84.1304 55.746 84.124 56.0034 84.1173 56.2685C84.0985 57.0844 84.0901 57.8999 84.082 58.7159C84.071 59.2716 84.0593 59.8273 84.0469 60.383C84.0168 61.7398 84.0009 63.0958 83.9843 64.4532C80.6328 64.4532 77.2812 64.4532 73.8281 64.4532C73.7919 62.6957 73.7609 60.9394 73.7422 59.1818C73.7344 58.5859 73.7238 57.99 73.7102 57.3942C73.6016 52.5294 74.0682 48.4337 77.2949 44.5604C80.2292 41.6961 83.5494 40.1454 87.6404 40.121Z" fill="#4DA1D7"/>
<path d="M101.562 87.5001C102.186 88.3262 102.698 89.1079 103.223 89.9903C104.336 91.6691 105.259 92.6608 107.257 93.1474C108.509 93.3669 109.757 93.492 111.023 93.596C112.5 93.7501 112.5 93.7501 113.281 94.5313C113.213 96.4549 112.827 97.8965 112.061 99.6583C111.036 102.119 111.541 103.491 112.524 105.884C112.737 106.362 112.737 106.362 112.953 106.85C113.319 107.924 113.457 108.642 113.281 109.766C112.685 110.466 112.685 110.466 111.719 110.938C111.006 110.986 110.292 111.031 109.577 111.041C107.004 111.1 107.004 111.1 104.796 112.287C103.966 113.234 103.255 114.215 102.589 115.282C101.421 117.121 101.421 117.121 100.012 117.499C98.4084 117.077 97.6915 116.164 96.7285 114.893C96.5528 114.676 96.377 114.459 96.196 114.235C94.9219 112.628 94.9219 112.628 94.9219 111.719C94.4279 111.676 93.9339 111.633 93.425 111.589C92.7764 111.527 92.1279 111.464 91.4795 111.401C91.1539 111.374 90.8284 111.347 90.493 111.318C90.1795 111.287 89.8661 111.255 89.5431 111.223C89.1105 111.183 89.1105 111.183 88.6691 111.142C87.6977 110.887 87.311 110.572 86.7187 109.766C86.7527 107.831 87.1736 106.408 87.9394 104.639C88.9639 102.178 88.459 100.806 87.4756 98.4132C87.3341 98.0944 87.1926 97.7757 87.0468 97.4473C86.689 96.3972 86.6017 95.6326 86.7187 94.5313C87.7301 93.52 88.4966 93.6354 89.8712 93.5225C93.1823 93.2236 93.1823 93.2236 95.8374 91.3865C96.8134 90.1588 97.6149 88.8332 98.4375 87.5001C99.6294 86.9041 100.303 87.1147 101.562 87.5001Z" fill="#162737"/>
<path d="M34.7658 115.625C40.2836 115.63 45.8013 115.647 51.3191 115.677C53.8811 115.69 56.4431 115.7 59.0052 115.701C61.4773 115.703 63.9491 115.714 66.4211 115.732C67.3648 115.737 68.3084 115.739 69.2521 115.737C70.5728 115.735 71.893 115.745 73.2136 115.758C73.8003 115.753 73.8003 115.753 74.3988 115.748C77.0738 115.792 77.0738 115.792 78.5103 116.981C78.8997 117.47 78.8997 117.47 79.297 117.969C80.381 118.433 80.381 118.433 81.5431 118.652C82.1534 118.786 82.1534 118.786 82.776 118.922C84.3509 119.207 85.9054 119.398 87.5001 119.531C87.5001 120.434 87.5001 121.336 87.5001 122.266C81.1877 122.311 74.8754 122.346 68.5629 122.367C65.6316 122.377 62.7005 122.391 59.7694 122.413C57.2137 122.432 54.6581 122.445 52.1024 122.449C50.7499 122.452 49.3976 122.458 48.0452 122.472C46.5331 122.488 45.0212 122.488 43.509 122.487C42.841 122.498 42.841 122.498 42.1595 122.509C38.9872 122.488 37.0146 121.78 34.7658 119.531C34.6895 118.6 34.6895 118.6 34.7169 117.529C34.724 117.174 34.731 116.818 34.7383 116.452C34.7474 116.179 34.7564 115.906 34.7658 115.625Z" fill="#FDFDFD"/>
<path d="M165.234 115.625C165.589 119.009 165.589 119.009 164.781 120.198C163 121.706 161.179 122.364 158.879 122.36C158.472 122.361 158.065 122.362 157.645 122.363C157.203 122.36 156.761 122.357 156.305 122.354C155.836 122.354 155.367 122.355 154.884 122.355C153.602 122.354 152.32 122.35 151.037 122.345C149.696 122.34 148.355 122.339 147.013 122.339C144.475 122.336 141.936 122.33 139.398 122.322C136.507 122.313 133.616 122.309 130.725 122.305C124.781 122.297 118.836 122.283 112.891 122.266C112.891 121.363 112.891 120.461 112.891 119.531C113.343 119.46 113.795 119.389 114.261 119.316C114.862 119.217 115.463 119.118 116.064 119.019C116.362 118.972 116.659 118.926 116.965 118.879C118.781 118.574 120.283 118.167 121.875 117.188C122.133 116.801 122.391 116.414 122.656 116.016C123.396 115.865 123.396 115.865 124.314 115.86C124.662 115.855 125.01 115.85 125.368 115.845C125.942 115.846 125.942 115.846 126.527 115.847C127.13 115.841 127.13 115.841 127.746 115.835C129.08 115.823 130.414 115.819 131.749 115.816C132.673 115.809 133.598 115.802 134.522 115.794C136.96 115.776 139.398 115.764 141.836 115.754C144.317 115.742 146.798 115.724 149.279 115.707C161.114 115.625 161.114 115.625 165.234 115.625Z" fill="#FDFDFD"/>
<path d="M87.6405 40.121C88.0574 40.117 88.0574 40.117 88.4827 40.113C89.3967 40.1056 90.3106 40.1041 91.2247 40.1032C91.866 40.1007 92.5073 40.0981 93.1487 40.0954C94.4926 40.0907 95.8365 40.0892 97.1805 40.0897C98.8895 40.0898 100.598 40.0791 102.307 40.0657C103.633 40.0569 104.958 40.0554 106.284 40.0558C106.913 40.0549 107.542 40.0515 108.172 40.0454C112.897 40.0039 117.766 40.2419 121.57 43.4251C123.607 45.5206 125.314 47.8589 125.781 50.7813C125.598 51.6389 125.598 51.6389 125.391 52.3438C125.239 52.1454 125.086 51.9471 124.93 51.7426C122.25 48.4454 119.001 46.5479 114.844 45.7032C112.55 45.525 110.262 45.5189 107.962 45.5201C107.296 45.5173 106.629 45.5143 105.963 45.5111C104.572 45.5059 103.18 45.5052 101.789 45.5075C100.018 45.5098 98.2467 45.4979 96.4755 45.4821C95.1007 45.4719 93.7261 45.4709 92.3513 45.4723C91.6988 45.4716 91.0463 45.4679 90.3939 45.4609C84.3374 45.4029 80.0356 46.7719 75.5219 50.9995C75.0775 51.4377 74.646 51.889 74.2188 52.3438C74.4572 49.0052 75.5734 46.0465 78.125 43.7501C81.206 41.5124 83.7728 40.144 87.6405 40.121Z" fill="#FAFBFC"/>
<path d="M165.234 70.7031C165.363 70.7031 165.492 70.7031 165.625 70.7031C165.661 75.7625 165.689 80.8218 165.706 85.8813C165.714 88.2306 165.725 90.5798 165.743 92.929C165.76 95.1958 165.769 97.4626 165.773 99.7295C165.776 100.595 165.782 101.46 165.79 102.325C165.802 103.536 165.803 104.747 165.802 105.958C165.808 106.316 165.814 106.675 165.819 107.044C165.809 108.681 165.767 109.538 164.881 110.956C163.766 111.995 163.186 112.158 161.704 112.156C161.21 112.157 161.21 112.157 160.705 112.158C160.343 112.157 159.98 112.155 159.607 112.154C159.035 112.154 159.035 112.154 158.452 112.154C157.188 112.154 155.924 112.151 154.66 112.148C153.785 112.147 152.911 112.146 152.036 112.146C149.731 112.144 147.425 112.141 145.12 112.136C142.769 112.132 140.417 112.13 138.066 112.128C133.45 112.124 128.835 112.118 124.219 112.109C123.445 109.596 123.445 109.596 122.656 107.031C123.122 107.031 123.588 107.03 124.068 107.03C128.471 107.023 132.873 107.006 137.275 106.98C139.538 106.966 141.801 106.956 144.064 106.955C146.249 106.953 148.435 106.942 150.621 106.924C151.453 106.919 152.285 106.918 153.117 106.919C159.118 107.101 159.118 107.101 164.453 104.688C165.246 103.895 164.916 102.258 164.924 101.169C164.928 100.841 164.932 100.513 164.936 100.176C164.948 99.0871 164.958 97.9986 164.967 96.9101C164.975 96.1575 164.984 95.4048 164.992 94.6522C165.014 92.6673 165.033 90.6823 165.052 88.6973C165.071 86.6734 165.093 84.6495 165.115 82.6256C165.157 78.6514 165.196 74.6773 165.234 70.7031Z" fill="#4F9FD3"/>
<path d="M34.3748 70.7031C34.5037 70.7031 34.6326 70.7031 34.7654 70.7031C34.7616 71.1188 34.7578 71.5344 34.7539 71.9627C34.7208 75.8825 34.7083 79.802 34.7158 83.7219C34.719 85.7373 34.715 87.752 34.6944 89.7673C34.6749 91.7127 34.6743 93.6573 34.6869 95.6028C34.6884 96.3444 34.683 97.0861 34.6707 97.8276C34.5204 101.7 34.5204 101.7 35.7491 105.274C38.8717 107.679 44.0922 106.972 47.8178 106.955C48.6705 106.959 49.5232 106.965 50.3758 106.971C52.6094 106.985 54.8427 106.985 57.0762 106.983C59.3597 106.982 61.6431 106.995 63.9265 107.007C68.3988 107.028 72.8711 107.034 77.3435 107.031C76.8279 108.707 76.3123 110.383 75.781 112.109C70.7217 112.146 65.6623 112.173 60.6029 112.19C58.2536 112.198 55.9044 112.21 53.5552 112.227C51.2883 112.244 49.0216 112.254 46.7547 112.258C45.8895 112.261 45.0244 112.266 44.1592 112.275C42.9481 112.286 41.7373 112.287 40.5261 112.287C40.1678 112.292 39.8096 112.298 39.4405 112.304C37.8029 112.293 36.9461 112.252 35.5284 111.366C34.4891 110.25 34.3259 109.67 34.3278 108.189C34.3273 107.859 34.3267 107.529 34.3262 107.189C34.3276 106.827 34.329 106.465 34.3304 106.091C34.3304 105.71 34.3303 105.329 34.3303 104.936C34.3305 103.672 34.3336 102.408 34.3366 101.144C34.3374 100.27 34.3379 99.3951 34.3383 98.5204C34.3398 96.2149 34.3436 93.9095 34.348 91.6041C34.3519 89.2529 34.3537 86.9017 34.3557 84.5505C34.3599 79.9347 34.3666 75.3189 34.3748 70.7031Z" fill="#4F9FD3"/>
<path d="M99.6094 92.5781C100.982 93.0357 101.086 93.3267 101.831 94.5068C102.907 96.0021 103.68 96.4905 105.481 96.785C105.735 96.8147 105.989 96.8444 106.25 96.875C106.701 96.9556 107.152 97.0361 107.617 97.1191C107.939 97.1675 108.262 97.2158 108.594 97.2656C108.476 97.5486 108.359 97.8316 108.238 98.1232C107.068 100.951 107.068 100.951 107.422 103.906C107.519 104.21 107.615 104.515 107.715 104.828C107.996 105.697 108.289 106.56 108.594 107.422C108.18 107.46 107.766 107.498 107.339 107.538C106.797 107.596 106.255 107.655 105.713 107.715C105.44 107.739 105.167 107.763 104.886 107.788C103.991 107.875 103.991 107.875 102.734 108.203C102.173 108.92 102.173 108.92 101.953 109.766C101.443 110.425 100.924 111.078 100.391 111.719C98.9087 111.137 98.1705 110.277 97.2656 108.984C97.2656 108.727 97.2656 108.469 97.2656 108.203C95.332 107.945 93.3984 107.688 91.4062 107.422C91.5916 106.898 91.7769 106.375 91.9678 105.835C92.9328 102.884 93.1379 101.227 91.7969 98.4375C91.7969 98.0508 91.7969 97.6641 91.7969 97.2656C92.1317 97.2218 92.4666 97.178 92.8116 97.1329C95.328 96.6988 96.968 96.3541 98.5596 94.2627C98.9235 93.7102 99.2789 93.1513 99.6094 92.5781Z" fill="#4CA1D8"/>
<path d="M91.4062 122.656C92.743 123.993 93.8884 125.228 95.0302 126.7C95.9247 127.556 96.9379 127.98 98.0469 128.516C98.8612 140.331 98.8612 140.331 97.0444 142.761C95.9556 143.843 94.7082 144.585 93.3594 145.312C92.9653 145.7 92.5732 146.089 92.1875 146.484C91.9297 146.484 91.6719 146.484 91.4062 146.484C91.4062 138.621 91.4062 130.758 91.4062 122.656Z" fill="#F3C435"/>
<path d="M108.203 122.656C108.332 122.656 108.46 122.656 108.593 122.656C108.593 130.52 108.593 138.383 108.593 146.484C107.562 145.711 106.531 144.937 105.468 144.141C105.116 143.914 104.764 143.688 104.402 143.455C102.82 142.331 102.054 141.536 101.675 139.595C101.564 137.915 101.645 136.249 101.733 134.57C101.751 133.982 101.767 133.394 101.781 132.806C101.819 131.375 101.88 129.946 101.953 128.516C102.365 128.304 102.776 128.093 103.201 127.875C104.66 127.041 105.566 126.048 106.591 124.707C107.123 124.019 107.658 123.334 108.203 122.656Z" fill="#FBCA35"/>
<path d="M99.6096 144.531C100.574 144.981 101.191 145.331 101.953 146.094C102.022 147.13 102.044 148.125 102.03 149.161C102.029 149.463 102.027 149.765 102.026 150.077C102.022 151.044 102.012 152.011 102.002 152.979C101.998 153.634 101.995 154.289 101.992 154.944C101.983 156.551 101.969 158.158 101.953 159.766C100.664 159.766 99.3753 159.766 98.0471 159.766C98.0085 157.847 97.9801 155.929 97.9613 154.01C97.9535 153.358 97.9428 152.705 97.9293 152.053C97.9103 151.114 97.9014 150.176 97.8946 149.237C97.8865 148.946 97.8784 148.655 97.8701 148.355C97.8695 146.937 97.9318 146.236 98.8379 145.116C99.0926 144.923 99.3473 144.73 99.6096 144.531Z" fill="#FEFEFE"/>
</svg>
