<svg width="512" height="512" viewBox="0 0 512 512" fill="none" xmlns="http://www.w3.org/2000/svg">
<rect width="512" height="512" rx="20" fill="#DC143C"/>
<g clip-path="url(#clip0_31_469)">
<path d="M431 81H81V431H431V81Z" fill="#FEFEFE"/>
<path fill-rule="evenodd" clip-rule="evenodd" d="M238.571 106C236.362 106 234.571 107.791 234.571 110V130.571C234.571 132.781 232.781 134.571 230.571 134.571H224.286C222.077 134.571 220.286 136.362 220.286 138.571V144.857C220.286 147.066 222.077 148.857 224.286 148.857H230.571C232.781 148.857 234.571 150.648 234.571 152.857V159.143C234.571 161.352 236.362 163.143 238.571 163.143H248.857V173.429C248.857 175.638 250.648 177.429 252.857 177.429H259.143C261.352 177.429 263.143 175.638 263.143 173.429V163.143H277.429V202C277.429 204.209 275.638 206 273.429 206H263.143V195.714C263.143 193.505 261.352 191.714 259.143 191.714H252.857C250.648 191.714 248.857 193.505 248.857 195.714V206H238.571C236.362 206 234.571 204.209 234.571 202V195.714C234.571 193.505 232.781 191.714 230.571 191.714H224.286C222.077 191.714 220.286 193.505 220.286 195.714V216.286C220.286 218.495 218.495 220.286 216.286 220.286H167.143C164.934 220.286 163.143 222.077 163.143 224.286V230.571C163.143 232.781 164.934 234.571 167.143 234.571H173.429C175.638 234.571 177.429 236.362 177.429 238.571V244.857C177.429 247.066 179.219 248.857 181.429 248.857H191.714V259.143C191.714 261.352 193.505 263.143 195.714 263.143H220.286V273.429C220.286 275.638 218.495 277.429 216.286 277.429H195.714C193.505 277.429 191.714 279.219 191.714 281.429V287.714C191.714 289.923 193.505 291.714 195.714 291.714H216.286C218.495 291.714 220.286 293.505 220.286 295.714V344.857C220.286 347.066 222.077 348.857 224.286 348.857H230.571C232.781 348.857 234.571 347.066 234.571 344.857V324.286C234.571 322.077 236.362 320.286 238.571 320.286H259.143C261.352 320.286 263.143 322.077 263.143 324.286V344.857C263.143 347.066 261.352 348.857 259.143 348.857H252.857C250.648 348.857 248.857 350.648 248.857 352.857V359.143C248.857 361.352 250.648 363.143 252.857 363.143H277.429V373.429C277.429 375.638 275.638 377.429 273.429 377.429H267.143C264.934 377.429 263.143 379.219 263.143 381.429V391.714H252.857C250.648 391.714 248.857 389.923 248.857 387.714V381.429C248.857 379.219 247.066 377.429 244.857 377.429H238.571C236.362 377.429 234.571 375.638 234.571 373.429V367.143C234.571 364.934 232.781 363.143 230.571 363.143H224.286C222.077 363.143 220.286 364.934 220.286 367.143V402C220.286 404.209 222.077 406 224.286 406H259.143C261.352 406 263.143 404.209 263.143 402V391.714H273.429C275.638 391.714 277.429 393.505 277.429 395.714V402C277.429 404.209 279.219 406 281.429 406H302C304.209 406 306 404.209 306 402V395.714C306 393.505 304.209 391.714 302 391.714H295.714C293.505 391.714 291.714 389.923 291.714 387.714V381.429C291.714 379.219 293.505 377.429 295.714 377.429H316.286C318.495 377.429 320.286 379.219 320.286 381.429V402C320.286 404.209 322.077 406 324.286 406H359.143C361.352 406 363.143 404.209 363.143 402V395.714C363.143 393.505 361.352 391.714 359.143 391.714H338.571C336.362 391.714 334.571 389.923 334.571 387.714V381.429C334.571 379.219 336.362 377.429 338.571 377.429H377.429V402C377.429 404.209 379.219 406 381.429 406H402C404.209 406 406 404.209 406 402V395.714C406 393.505 404.209 391.714 402 391.714H395.714C393.505 391.714 391.714 389.923 391.714 387.714V377.429H402C404.209 377.429 406 375.638 406 373.429V367.143C406 364.934 404.209 363.143 402 363.143H391.714V352.857C391.714 350.648 389.923 348.857 387.714 348.857H377.429V338.571C377.429 336.362 375.638 334.571 373.429 334.571H367.143C364.934 334.571 363.143 336.362 363.143 338.571V348.857H352.857C350.648 348.857 348.857 347.066 348.857 344.857V338.571C348.857 336.362 347.066 334.571 344.857 334.571H338.571C336.362 334.571 334.571 332.781 334.571 330.571V324.286C334.571 322.077 336.362 320.286 338.571 320.286H344.857C347.066 320.286 348.857 318.495 348.857 316.286V310C348.857 307.791 350.648 306 352.857 306H363.143V316.286C363.143 318.495 364.934 320.286 367.143 320.286H387.714C389.923 320.286 391.714 322.077 391.714 324.286V330.571C391.714 332.781 393.505 334.571 395.714 334.571H402C404.209 334.571 406 332.781 406 330.571V310C406 307.791 404.209 306 402 306H363.143V295.714C363.143 293.505 361.352 291.714 359.143 291.714H352.857C350.648 291.714 348.857 289.923 348.857 287.714V277.429H359.143C361.352 277.429 363.143 275.638 363.143 273.429V267.143C363.143 264.934 361.352 263.143 359.143 263.143H348.857V252.857C348.857 250.648 350.648 248.857 352.857 248.857H359.143C361.352 248.857 363.143 247.066 363.143 244.857V234.571H373.429C375.638 234.571 377.429 232.781 377.429 230.571V224.286C377.429 222.077 375.638 220.286 373.429 220.286H367.143C364.934 220.286 363.143 222.077 363.143 224.286V234.571H324.286C322.077 234.571 320.286 232.781 320.286 230.571V224.286C320.286 222.077 318.495 220.286 316.286 220.286H291.714V167.143C291.714 164.934 289.923 163.143 287.714 163.143H277.429V152.857C277.429 150.648 279.219 148.857 281.429 148.857H287.714C289.923 148.857 291.714 147.066 291.714 144.857V138.571C291.714 136.362 289.923 134.571 287.714 134.571H281.429C279.219 134.571 277.429 132.781 277.429 130.571V124.286C277.429 122.077 279.219 120.286 281.429 120.286H287.714C289.923 120.286 291.714 118.495 291.714 116.286V110C291.714 107.791 289.923 106 287.714 106H267.143C264.934 106 263.143 107.791 263.143 110V116.286C263.143 118.495 261.352 120.286 259.143 120.286H252.857C250.648 120.286 248.857 118.495 248.857 116.286V110C248.857 107.791 247.066 106 244.857 106H238.571ZM252.857 134.571C250.648 134.571 248.857 136.362 248.857 138.571V163.143H263.143V138.571C263.143 136.362 261.352 134.571 259.143 134.571H252.857ZM248.857 206V216.286C248.857 218.495 250.648 220.286 252.857 220.286H259.143C261.352 220.286 263.143 218.495 263.143 216.286V206H248.857ZM110 220.286C107.791 220.286 106 222.077 106 224.286V230.571C106 232.781 107.791 234.571 110 234.571H116.286C118.495 234.571 120.286 236.362 120.286 238.571V244.857C120.286 247.066 122.077 248.857 124.286 248.857H134.571V259.143C134.571 261.352 136.362 263.143 138.571 263.143H148.857V273.429C148.857 275.638 147.066 277.429 144.857 277.429H120.286V267.143C120.286 264.934 118.495 263.143 116.286 263.143H110C107.791 263.143 106 264.934 106 267.143V273.429C106 275.638 107.791 277.429 110 277.429H120.286V287.714C120.286 289.923 122.077 291.714 124.286 291.714H173.429C175.638 291.714 177.429 289.923 177.429 287.714V281.429C177.429 279.219 175.638 277.429 173.429 277.429H167.143C164.934 277.429 163.143 275.638 163.143 273.429V267.143C163.143 264.934 161.352 263.143 159.143 263.143H148.857V252.857C148.857 250.648 147.066 248.857 144.857 248.857H134.571V238.571C134.571 236.362 136.362 234.571 138.571 234.571H144.857C147.066 234.571 148.857 232.781 148.857 230.571V224.286C148.857 222.077 147.066 220.286 144.857 220.286H110ZM281.429 220.286C279.219 220.286 277.429 222.077 277.429 224.286V230.571C277.429 232.781 275.638 234.571 273.429 234.571H195.714C193.505 234.571 191.714 236.362 191.714 238.571V248.857H216.286C218.495 248.857 220.286 250.648 220.286 252.857V263.143H244.857C247.066 263.143 248.857 264.934 248.857 267.143V291.714H238.571C236.362 291.714 234.571 293.505 234.571 295.714V302C234.571 304.209 236.362 306 238.571 306H244.857C247.066 306 248.857 304.209 248.857 302V291.714H277.429V316.286C277.429 318.495 279.219 320.286 281.429 320.286H287.714C289.923 320.286 291.714 322.077 291.714 324.286V330.571C291.714 332.781 289.923 334.571 287.714 334.571H281.429C279.219 334.571 277.429 336.362 277.429 338.571V363.143H330.571C332.781 363.143 334.571 361.352 334.571 359.143V352.857C334.571 350.648 332.781 348.857 330.571 348.857H324.286C322.077 348.857 320.286 347.066 320.286 344.857V324.286C320.286 322.077 318.495 320.286 316.286 320.286H310C307.791 320.286 306 318.495 306 316.286V310C306 307.791 307.791 306 310 306H316.286C318.495 306 320.286 304.209 320.286 302V281.429C320.286 279.219 322.077 277.429 324.286 277.429H348.857V263.143H324.286C322.077 263.143 320.286 261.352 320.286 259.143V252.857C320.286 250.648 318.495 248.857 316.286 248.857H310C307.791 248.857 306 247.066 306 244.857V238.571C306 236.362 304.209 234.571 302 234.571H295.714C293.505 234.571 291.714 232.781 291.714 230.571V220.286H281.429ZM281.429 248.857C279.219 248.857 277.429 250.648 277.429 252.857V259.143C277.429 261.352 279.219 263.143 281.429 263.143H287.714C289.923 263.143 291.714 261.352 291.714 259.143V252.857C291.714 250.648 289.923 248.857 287.714 248.857H281.429ZM381.429 248.857C379.219 248.857 377.429 250.648 377.429 252.857V259.143C377.429 261.352 379.219 263.143 381.429 263.143H402C404.209 263.143 406 261.352 406 259.143V252.857C406 250.648 404.209 248.857 402 248.857H381.429ZM281.429 277.429C279.219 277.429 277.429 279.219 277.429 281.429V291.714H287.714C289.923 291.714 291.714 289.923 291.714 287.714V281.429C291.714 279.219 289.923 277.429 287.714 277.429H281.429ZM395.714 277.429C393.505 277.429 391.714 279.219 391.714 281.429V287.714C391.714 289.923 393.505 291.714 395.714 291.714H402C404.209 291.714 406 289.923 406 287.714V281.429C406 279.219 404.209 277.429 402 277.429H395.714ZM363.143 348.857V359.143C363.143 361.352 364.934 363.143 367.143 363.143H377.429V377.429H391.714V363.143H377.429V348.857H363.143ZM110 106C107.791 106 106 107.791 106 110V202C106 204.209 107.791 206 110 206H202C204.209 206 206 204.209 206 202V110C206 107.791 204.209 106 202 106H110ZM124.286 120.286C122.077 120.286 120.286 122.077 120.286 124.286V187.714C120.286 189.923 122.077 191.714 124.286 191.714H187.714C189.923 191.714 191.714 189.923 191.714 187.714V124.286C191.714 122.077 189.923 120.286 187.714 120.286H124.286ZM138.571 134.571C136.362 134.571 134.571 136.362 134.571 138.571V173.429C134.571 175.638 136.362 177.429 138.571 177.429H173.429C175.638 177.429 177.429 175.638 177.429 173.429V138.571C177.429 136.362 175.638 134.571 173.429 134.571H138.571ZM310 106C307.791 106 306 107.791 306 110V202C306 204.209 307.791 206 310 206H402C404.209 206 406 204.209 406 202V110C406 107.791 404.209 106 402 106H310ZM324.286 120.286C322.077 120.286 320.286 122.077 320.286 124.286V187.714C320.286 189.923 322.077 191.714 324.286 191.714H387.714C389.923 191.714 391.714 189.923 391.714 187.714V124.286C391.714 122.077 389.923 120.286 387.714 120.286H324.286ZM338.571 134.571C336.362 134.571 334.571 136.362 334.571 138.571V173.429C334.571 175.638 336.362 177.429 338.571 177.429H373.429C375.638 177.429 377.429 175.638 377.429 173.429V138.571C377.429 136.362 375.638 134.571 373.429 134.571H338.571ZM110 306C107.791 306 106 307.791 106 310V402C106 404.209 107.791 406 110 406H202C204.209 406 206 404.209 206 402V310C206 307.791 204.209 306 202 306H110ZM124.286 320.286C122.077 320.286 120.286 322.077 120.286 324.286V387.714C120.286 389.923 122.077 391.714 124.286 391.714H187.714C189.923 391.714 191.714 389.923 191.714 387.714V324.286C191.714 322.077 189.923 320.286 187.714 320.286H124.286ZM138.571 334.571C136.362 334.571 134.571 336.362 134.571 338.571V373.429C134.571 375.638 136.362 377.429 138.571 377.429H173.429C175.638 377.429 177.429 375.638 177.429 373.429V338.571C177.429 336.362 175.638 334.571 173.429 334.571H138.571Z" fill="black"/>
<path d="M274.541 334C270.741 334 267.098 332.787 263.575 331.616C260.613 330.632 257.81 329.701 255.496 329.701C253.184 329.701 250.385 330.632 247.417 331.616C243.894 332.787 240.259 334 236.453 334C234.778 334.012 233.141 333.757 231.545 333.228C225.856 331.305 222.374 326.329 219.303 321.941C217.538 319.408 215.87 317.024 214.156 315.718C212.439 314.415 209.669 313.454 206.789 312.468C201.858 310.783 196.277 308.876 192.806 303.898C189.334 298.922 189.334 292.887 189.305 287.508C189.305 284.319 189.277 281.309 188.589 279.102C187.953 277.07 186.316 274.723 184.583 272.237C181.498 267.838 178 262.819 178 256.486C178 250.153 181.498 245.151 184.579 240.725C186.312 238.241 187.949 235.883 188.585 233.863C189.273 231.659 189.301 228.649 189.301 225.46C189.33 220.087 189.358 213.995 192.802 209.068C196.247 204.139 201.856 202.19 206.781 200.498C209.665 199.512 212.39 198.581 214.152 197.252C215.913 195.92 217.538 193.562 219.303 191.04C222.388 186.675 225.856 181.697 231.545 179.776C233.141 179.247 234.778 178.99 236.453 179C240.255 179 243.894 180.21 247.417 181.382C250.385 182.353 253.174 183.299 255.496 183.299C257.82 183.299 260.613 182.353 263.575 181.382C267.098 180.21 270.741 179 274.541 179C276.216 178.99 277.853 179.247 279.45 179.776C285.136 181.697 288.612 186.675 291.695 191.068C293.458 193.588 295.126 195.974 296.844 197.277C298.563 198.581 301.327 199.538 304.211 200.526C309.137 202.209 314.723 204.12 318.194 209.094C321.666 214.068 321.666 220.105 321.691 225.485C321.691 228.67 321.723 231.68 322.407 233.889C323.041 235.919 324.678 238.267 326.408 240.75C329.498 245.162 333 250.176 333 256.486C333 262.798 329.502 267.827 326.417 272.25C324.684 274.733 323.047 277.091 322.415 279.115C321.727 281.32 321.699 284.33 321.699 287.519C321.672 292.891 321.646 298.977 318.2 303.911C314.757 308.842 309.144 310.783 304.219 312.478C301.335 313.464 298.61 314.398 296.852 315.731C295.095 317.065 293.466 319.414 291.701 321.941C288.626 326.329 285.144 331.305 279.459 333.228C277.859 333.755 276.218 334.012 274.541 334Z" fill="white"/>
<path d="M325.897 256.486C325.897 264.001 317.94 270.111 315.823 276.887C313.634 283.912 316.539 293.709 312.456 299.554C308.325 305.463 298.446 305.587 292.767 309.886C287.147 314.14 284.004 323.904 277.253 326.188C270.741 328.384 262.713 322.482 255.492 322.482C248.272 322.482 240.25 328.384 233.738 326.199C226.987 323.915 223.841 314.15 218.225 309.896C212.552 305.598 202.668 305.474 198.538 299.567C194.467 293.739 197.364 283.923 195.183 276.898C193.057 270.121 185.095 264.012 185.095 256.486C185.095 248.962 193.057 242.878 195.183 236.098C197.374 229.077 194.467 219.278 198.552 213.431C202.679 207.526 212.562 207.402 218.239 203.103C223.855 198.849 227.001 189.08 233.753 186.801C240.265 184.601 248.294 190.503 255.51 190.503C262.728 190.503 270.76 184.601 277.271 186.801C284.023 189.08 287.165 198.849 292.785 203.103C298.46 207.402 308.339 207.526 312.474 213.431C316.562 219.278 313.65 229.077 315.841 236.098C317.94 242.878 325.897 248.988 325.897 256.486Z" fill="#2B69DB"/>
<path d="M239.457 299.413L207.147 267.062L218.064 255.257L238.762 275.981L291.348 216.383L302.941 227.466L239.457 299.413Z" fill="#F9DA4A"/>
<path d="M239.457 299.413L207.147 267.062L218.064 255.257L238.762 275.981L291.348 216.383L302.941 227.466L239.457 299.413Z" fill="#F9DA4A"/>
<path d="M291.347 216.383L302.931 227.466L239.457 299.413L207.147 267.062L218.064 255.257L238.761 275.981L291.347 216.376M291.347 214.327H291.261C290.719 214.351 290.265 214.57 289.897 214.988L238.673 273.05L219.428 253.783C219.24 253.593 219.025 253.45 218.782 253.35C218.538 253.25 218.287 253.203 218.025 253.21C217.763 253.214 217.513 253.271 217.274 253.38C217.035 253.489 216.824 253.642 216.644 253.838L205.729 265.643C205.547 265.839 205.41 266.063 205.316 266.317C205.22 266.568 205.175 266.83 205.181 267.103C205.185 267.373 205.241 267.633 205.345 267.882C205.449 268.132 205.594 268.349 205.783 268.538L238.092 300.892C238.473 301.273 238.929 301.463 239.457 301.463H239.516C240.069 301.444 240.533 301.222 240.905 300.798L304.392 228.853C304.57 228.653 304.702 228.425 304.792 228.169C304.883 227.916 304.921 227.652 304.911 227.379C304.899 227.108 304.84 226.848 304.729 226.601C304.619 226.356 304.465 226.141 304.273 225.958L292.679 214.875C292.301 214.517 291.857 214.336 291.347 214.336V214.327ZM291.347 216.376L302.931 227.466L239.457 299.413L207.147 267.062L218.064 255.257L238.761 275.981L291.347 216.376ZM291.347 214.327H291.261C290.719 214.351 290.265 214.57 289.897 214.988L238.673 273.05L219.428 253.783C219.24 253.593 219.025 253.45 218.782 253.35C218.538 253.25 218.287 253.203 218.025 253.21C217.763 253.214 217.513 253.271 217.274 253.38C217.035 253.489 216.824 253.642 216.644 253.838L205.729 265.643C205.547 265.839 205.41 266.063 205.316 266.317C205.22 266.568 205.175 266.83 205.181 267.103C205.185 267.373 205.241 267.633 205.345 267.882C205.449 268.132 205.594 268.349 205.783 268.538L238.092 300.892C238.473 301.273 238.929 301.463 239.457 301.463H239.516C240.069 301.444 240.533 301.222 240.905 300.798L304.392 228.853C304.57 228.653 304.702 228.425 304.792 228.169C304.883 227.916 304.921 227.652 304.911 227.379C304.899 227.108 304.84 226.848 304.729 226.601C304.619 226.356 304.465 226.141 304.273 225.958L292.679 214.875C292.301 214.517 291.857 214.336 291.347 214.336V214.327Z" fill="black"/>
</g>
<defs>
<clipPath id="clip0_31_469">
<rect x="81" y="81" width="350" height="350" rx="20" fill="white"/>
</clipPath>
</defs>
</svg>
