<svg width="100" height="100" viewBox="0 0 100 100" fill="none" xmlns="http://www.w3.org/2000/svg">
<g clip-path="url(#clip0_381_22)">
<path d="M11.4568 -0.109708C11.8835 -0.113189 11.8835 -0.113189 12.3187 -0.116741C13.2699 -0.123505 14.2209 -0.124704 15.172 -0.125872C15.8549 -0.12949 16.5377 -0.133416 17.2205 -0.137626C19.0745 -0.147865 20.9284 -0.152912 22.7824 -0.156385C23.9416 -0.158677 25.1007 -0.161884 26.2599 -0.165372C29.8895 -0.176053 33.519 -0.183606 37.1485 -0.186624C41.3333 -0.190123 45.5179 -0.203825 49.7026 -0.226468C52.9405 -0.243377 56.1783 -0.251238 59.4162 -0.252281C61.3485 -0.253098 63.2807 -0.257683 65.213 -0.271671C67.032 -0.284584 68.8507 -0.286214 70.6697 -0.279375C71.3351 -0.278775 72.0006 -0.282141 72.666 -0.289889C76.399 -0.330791 79.445 -0.215129 82.4218 2.34376C83.3023 3.35847 83.3023 3.35847 83.8134 4.3213C83.9912 4.64004 84.1689 4.95878 84.3521 5.28718C85.0284 6.862 85.2051 8.36601 85.2032 10.0693C85.204 10.6156 85.204 10.6156 85.2048 11.173C85.2034 11.5678 85.202 11.9625 85.2005 12.3693C85.2006 12.7886 85.2007 13.208 85.2007 13.6401C85.2004 15.0245 85.1974 16.4089 85.1943 17.7933C85.1936 18.7539 85.1931 19.7144 85.1927 20.675C85.1912 23.202 85.1873 25.729 85.183 28.2559C85.179 30.835 85.1772 33.4141 85.1753 35.9932C85.1711 41.0528 85.1645 46.1123 85.1562 51.1719C85.6116 51.335 85.6116 51.335 86.0763 51.5015C87.3636 52.0643 87.8935 52.7531 88.6718 53.9063C88.6718 54.1641 88.6718 54.4219 88.6718 54.6875C88.8732 54.6231 89.0747 54.5586 89.2822 54.4922C91.6043 54.0159 93.3337 54.2397 95.3918 55.3604C96.8324 56.3845 97.5012 57.738 98.0468 59.375C98.0861 59.9252 98.1047 60.4771 98.1098 61.0287C98.1135 61.3616 98.1173 61.6945 98.1211 62.0376C98.1236 62.5777 98.1236 62.5777 98.1262 63.1287C98.1284 63.5033 98.1306 63.8779 98.1329 64.2639C98.1366 65.0598 98.1392 65.8558 98.1407 66.6517C98.1444 67.8502 98.1565 69.0485 98.1689 70.2469C98.2187 79.4231 96.5069 87.5696 90.0878 94.4824C85.2453 98.9688 79.951 100.389 73.5046 100.182C70.3613 99.9775 67.4738 99.019 64.8437 97.2656C63.8425 97.147 63.8425 97.147 62.6991 97.1647C62.2533 97.1621 61.8075 97.1594 61.3482 97.1567C60.8587 97.1577 60.3693 97.1587 59.8649 97.1597C59.0741 97.1565 58.2833 97.1534 57.4925 97.1502C56.642 97.1476 55.7915 97.1468 54.941 97.1465C53.1682 97.1458 51.3954 97.1387 49.6227 97.1306C45.2189 97.1114 40.8151 97.0993 36.4112 97.091C32.9899 97.0846 29.5685 97.0757 26.1472 97.0586C24.3853 97.0501 22.6235 97.0469 20.8616 97.0478C19.7646 97.0472 18.6677 97.0417 17.5707 97.0348C16.8205 97.0316 16.0703 97.0342 15.3201 97.0369C14.8721 97.0332 14.4241 97.0294 13.9625 97.0255C13.5741 97.0247 13.1856 97.0239 12.7854 97.0231C11.0502 96.7822 9.70749 95.8678 8.5937 94.5313C8.12662 93.13 8.15028 91.8588 8.1561 90.4008C8.15576 90.0968 8.15543 89.7927 8.15509 89.4794C8.15444 88.4573 8.15659 87.4353 8.15873 86.4133C8.15884 85.6819 8.15877 84.9505 8.15855 84.2192C8.15844 82.2306 8.16074 80.2421 8.16346 78.2536C8.1659 76.1766 8.16614 74.0996 8.1666 72.0226C8.16781 68.0882 8.17102 64.1537 8.17494 60.2193C8.1793 55.7406 8.18145 51.2619 8.18341 46.7832C8.1875 37.569 8.19437 28.3548 8.20307 19.1406C7.56559 19.155 7.56559 19.155 6.91523 19.1696C5.2844 19.1369 4.4797 18.8617 3.12495 17.9688C1.53282 16.1113 1.75184 13.9641 1.75776 11.6455C1.74668 11.2586 1.7356 10.8716 1.72419 10.4729C1.71599 7.34856 2.4422 4.69519 4.61497 2.36484C6.72177 0.422512 8.59066 -0.0966153 11.4568 -0.109708ZM7.42182 5.85939C6.16069 7.71134 6.08944 9.29161 6.15229 11.4502C6.1543 11.7345 6.15632 12.0187 6.15839 12.3116C6.0603 13.6929 6.0603 13.6929 6.64057 14.8438C7.41929 14.8921 8.1997 14.9133 8.97984 14.924C9.48033 14.9318 9.98082 14.9395 10.4965 14.9476C11.0468 14.9542 11.5971 14.9608 12.1475 14.9674C12.7074 14.9754 13.2674 14.9836 13.8273 14.992C15.3037 15.0136 16.78 15.0328 18.2564 15.0517C19.762 15.0713 21.2674 15.093 22.7729 15.1146C25.7288 15.1567 28.6847 15.1963 31.6406 15.2344C31.8339 16.5879 31.8339 16.5879 32.0312 17.9688C30.7929 18.7943 30.4623 18.8517 29.041 18.8746C28.6735 18.8823 28.306 18.8901 27.9274 18.8981C27.5318 18.9026 27.1363 18.9071 26.7288 18.9118C26.12 18.9231 26.12 18.9231 25.4989 18.9347C24.2014 18.958 22.904 18.9762 21.6064 18.9942C20.7272 19.0091 19.8481 19.0243 18.9689 19.0399C16.8126 19.0775 14.6563 19.1107 12.4999 19.1406C12.4908 28.658 12.4839 38.1754 12.4797 47.6928C12.4777 52.1115 12.4749 56.5303 12.4705 60.9491C12.4666 64.7989 12.4641 68.6488 12.4632 72.4987C12.4627 74.5386 12.4615 76.5784 12.4586 78.6182C12.456 80.5358 12.4552 82.4534 12.4558 84.371C12.4557 85.077 12.4549 85.783 12.4534 86.4889C12.4515 87.4484 12.4519 88.4079 12.453 89.3674C12.4513 89.792 12.4513 89.792 12.4495 90.2252C12.3419 91.5119 12.3419 91.5119 12.8906 92.5781C13.4935 92.6156 14.0982 92.6257 14.7023 92.6251C15.0939 92.6256 15.4856 92.6262 15.8891 92.6267C16.3224 92.6253 16.7556 92.6239 17.202 92.6225C17.8822 92.6226 17.8822 92.6226 18.5761 92.6227C20.0831 92.6224 21.5902 92.6193 23.0972 92.6163C24.1388 92.6156 25.1804 92.615 26.2221 92.6146C28.6887 92.6134 31.1554 92.6102 33.622 92.6063C36.4296 92.6019 39.2371 92.5998 42.0447 92.5978C47.8214 92.5937 53.5982 92.5868 59.3749 92.5781C59.0048 92.0833 58.6345 91.5886 58.2641 91.094C58.0579 90.8185 57.8517 90.5431 57.6393 90.2592C56.801 89.148 55.9416 88.0545 55.0781 86.9629C54.7041 86.4879 54.3303 86.0129 53.9565 85.5377C53.7597 85.2876 53.5629 85.0375 53.3601 84.7798C53.1536 84.5173 52.9471 84.2548 52.7343 83.9844C52.5142 83.7048 52.2941 83.4252 52.0673 83.1371C42.4302 70.8795 42.4302 70.8795 42.9687 65.2344C43.578 63.442 44.6135 62.2003 46.1669 61.1328C47.9201 60.2829 49.6616 60.2166 51.5624 60.5469C54.2443 61.5101 56.0007 63.8335 57.8109 65.9256C58.0692 66.2131 58.3275 66.5007 58.5937 66.7969C58.7226 66.7969 58.8515 66.7969 58.9843 66.7969C58.9857 66.4025 58.9872 66.0082 58.9886 65.6019C59.0031 61.8778 59.0257 58.1538 59.0562 54.4297C59.0716 52.5153 59.0841 50.601 59.0902 48.6866C59.0961 46.8376 59.1096 44.9888 59.1282 43.1398C59.134 42.4359 59.1371 41.732 59.1374 41.0281C59.1383 40.0388 59.1489 39.05 59.1617 38.0608C59.1588 37.6284 59.1588 37.6284 59.1557 37.1872C59.1977 35.0731 59.754 33.4047 60.9374 31.6406C62.9017 30.1075 65.1927 30.2199 67.5781 30.4688C69.2611 30.9584 69.7595 31.403 70.7473 32.8491C71.9858 35.4282 71.7508 38.4091 71.7773 41.2109C71.7883 41.7989 71.8 42.3869 71.8124 42.9749C71.8411 44.4051 71.8605 45.8352 71.8749 47.2656C72.3563 47.2561 72.8377 47.2465 73.3337 47.2366C75.1328 47.2386 76.5477 47.5492 78.1249 48.4375C78.9694 49.3253 79.5342 50.0841 80.0781 51.1719C80.3359 51.1719 80.5937 51.1719 80.8593 51.1719C80.8867 45.7186 80.9073 40.2652 80.92 34.8119C80.9262 32.2796 80.9344 29.7474 80.9477 27.2151C80.9605 24.771 80.9675 22.3269 80.9705 19.8827C80.9727 18.9506 80.9769 18.0185 80.9832 17.0864C80.9917 15.7801 80.9929 14.4739 80.9924 13.1675C80.9966 12.7828 81.0008 12.3982 81.0051 12.0019C80.9932 9.34551 80.6792 7.39202 78.8818 5.32228C77.5191 4.17941 76.4643 4.16227 74.7344 4.19008C73.2948 4.35973 72.5359 4.8829 71.4843 5.85939C70.152 8.34865 70.1365 10.5637 70.1064 13.3392C70.0568 15.1733 70.0117 16.5244 68.7499 17.9688C67.3929 18.6267 66.3016 18.8484 64.8008 18.8511C64.4137 18.8536 64.0266 18.856 63.6277 18.8586C63.2143 18.857 62.8008 18.8554 62.3748 18.8538C61.7329 18.8549 61.7329 18.8549 61.0779 18.856C60.175 18.8566 59.2721 18.8551 58.3692 18.8519C56.9847 18.8477 55.6004 18.8518 54.2159 18.8568C53.3386 18.8563 52.4612 18.8553 51.5838 18.8538C51.1688 18.8554 50.7537 18.8569 50.3261 18.8586C49.7491 18.8549 49.7491 18.8549 49.1605 18.8511C48.6528 18.8502 48.6528 18.8502 48.1348 18.8492C47.2656 18.75 47.2656 18.75 46.0937 17.9688C46.2226 17.0664 46.3515 16.1641 46.4843 15.2344C52.9296 15.1055 59.3749 14.9766 66.0156 14.8438C66.1445 12.5235 66.2734 10.2031 66.4062 7.81251C66.629 6.63291 66.8661 5.45355 67.1874 4.29689C59.7411 4.26038 52.2947 4.23283 44.8482 4.21593C41.3907 4.20788 37.9332 4.19689 34.4757 4.17901C31.4619 4.16344 28.4482 4.15336 25.4345 4.14987C23.8388 4.14784 22.2433 4.14306 20.6477 4.13168C19.1452 4.12106 17.6429 4.11781 16.1404 4.12016C15.5896 4.11973 15.0388 4.11663 14.488 4.11063C10.6108 3.97628 10.6108 3.97628 7.42182 5.85939ZM63.2812 35.5469C63.1642 36.6976 63.1184 37.7669 63.1247 38.9182C63.122 39.2626 63.1192 39.607 63.1164 39.9618C63.1086 41.102 63.1088 42.242 63.1088 43.3823C63.1042 44.1738 63.099 44.9654 63.0931 45.7569C63.079 47.8428 63.0711 49.9286 63.0652 52.0145C63.0555 55.352 63.04 58.6894 63.0176 62.0269C63.0112 63.1936 63.0097 64.3603 63.0086 65.5271C63.0048 66.242 63.0008 66.957 62.9965 67.6719C62.9975 67.9968 62.9985 68.3217 62.9995 68.6565C62.9743 71.4931 62.9743 71.4931 62.1093 72.6563C61.2304 73.0225 61.2304 73.0225 60.1562 73.0469C58.3955 72.307 57.2069 71.41 55.8837 70.044C55.5479 69.7005 55.212 69.3571 54.866 69.0033C54.0182 68.0895 53.2278 67.1526 52.4413 66.1865C51.5827 65.1948 51.1956 64.8537 49.9511 64.3311C48.7598 64.3723 48.7598 64.3723 47.705 65.21C46.6914 66.6708 46.6008 67.8176 46.8749 69.5313C47.5139 70.7424 47.5139 70.7424 48.4863 71.8262C48.8477 72.2669 49.2088 72.7079 49.5696 73.1491C49.8633 73.5006 49.8633 73.5006 50.1628 73.8592C51.2803 75.2149 52.3441 76.6126 53.4179 78.0029C53.8851 78.6023 54.3526 79.2014 54.8202 79.8004C55.7845 81.0382 56.7409 82.2816 57.6919 83.5297C62.5867 89.9405 62.5867 89.9405 69.1406 94.5313C69.3742 94.6642 69.6079 94.7971 69.8486 94.9341C72.8709 96.3913 77.0638 96.1721 80.2551 95.3598C85.9423 93.1505 89.5047 88.9587 92.0608 83.5388C93.8074 78.85 93.9469 74.1645 93.9242 69.2263C93.9208 68.1034 93.9322 66.9813 93.9445 65.8585C93.9451 65.1408 93.9449 64.4231 93.9437 63.7055C93.9481 63.3718 93.9525 63.0382 93.957 62.6944C93.9391 61.1779 93.9298 60.4044 93.0207 59.1501C92.212 58.4908 92.212 58.4908 91.1621 58.6426C90.178 58.9315 90.178 58.9315 89.4531 59.7656C89.3549 60.666 89.2951 61.5707 89.2578 62.4756C89.149 65.1045 89.149 65.1045 88.2812 66.4063C87.3788 66.2774 86.4765 66.1484 85.5468 66.0156C85.5411 65.7537 85.5354 65.4918 85.5296 65.2219C85.5004 64.0295 85.4626 62.8376 85.4247 61.6455C85.4159 61.2334 85.4071 60.8212 85.398 60.3966C85.3773 59.798 85.3773 59.798 85.3561 59.1873C85.3459 58.8212 85.3356 58.455 85.3251 58.0777C85.1283 56.8587 84.6745 56.0913 83.9843 55.0781C82.6308 55.2715 82.6308 55.2715 81.2499 55.4688C80.6285 56.8524 80.36 57.9794 80.307 59.4925C80.2918 59.8739 80.2767 60.2554 80.2612 60.6484C80.2491 61.0419 80.237 61.4354 80.2246 61.8408C80.2094 62.2419 80.1943 62.643 80.1788 63.0562C80.1421 64.0426 80.1086 65.029 80.0781 66.0156C78.7246 66.209 78.7246 66.209 77.3437 66.4063C76.4042 64.9971 76.4533 63.9684 76.4556 62.3413C76.4477 61.763 76.4396 61.1847 76.4312 60.6064C76.4224 59.696 76.416 58.7857 76.4137 57.8753C76.41 56.9956 76.3968 56.1164 76.3824 55.2368C76.3853 54.8285 76.3853 54.8285 76.3884 54.4119C76.3626 53.1487 76.3202 52.5027 75.4415 51.5617C74.5992 51.0619 74.5992 51.0619 73.5839 51.416C72.5522 51.9221 72.5522 51.9221 71.8749 53.125C71.7811 54.1437 71.7294 55.1246 71.7132 56.1447C71.7056 56.4379 71.6981 56.731 71.6903 57.033C71.6669 57.9683 71.6488 58.9035 71.6308 59.8389C71.6159 60.4734 71.6006 61.1079 71.585 61.7424C71.5475 63.297 71.5147 64.8516 71.4843 66.4063C70.166 66.4551 70.166 66.4551 68.7499 66.4063C67.796 65.4523 67.8735 64.9341 67.8597 63.632C67.8612 63.2171 67.8612 63.2171 67.8627 62.7938C67.8607 62.5022 67.8587 62.2106 67.8566 61.9102C67.8525 61.2761 67.8503 60.642 67.8496 60.0079C67.8481 59.0049 67.8416 58.002 67.8336 56.999C67.812 54.1471 67.8 51.2951 67.7905 48.4431C67.7843 46.6996 67.7725 44.9563 67.7573 43.2128C67.7528 42.5476 67.7505 41.8824 67.7504 41.2173C67.7504 40.2876 67.7432 39.3582 67.7346 38.4286C67.7364 38.1528 67.7381 37.877 67.74 37.5928C67.7233 36.4699 67.7019 35.7222 67.0434 34.79C65.5317 33.8055 64.3378 34.2233 63.2812 35.5469Z" fill="white"/>
<path d="M24.475 25.5219C24.971 25.5193 25.467 25.5168 25.978 25.5142C26.4931 25.5218 27.0083 25.5293 27.539 25.5371C28.3117 25.5258 28.3117 25.5258 29.1 25.5142C29.844 25.518 29.844 25.518 30.603 25.5219C31.0549 25.5241 31.5068 25.5263 31.9724 25.5285C33.5992 25.8626 34.1731 26.4098 35.1562 27.7344C35.4027 28.9291 35.4027 28.9291 35.4019 30.249C35.4026 30.7274 35.4034 31.2057 35.4041 31.6986C35.3948 32.1951 35.3855 32.6916 35.3759 33.2031C35.3802 33.6996 35.3845 34.1961 35.3889 34.7076C35.3566 38.8026 35.3566 38.8026 33.5937 40.625C31.8113 41.5162 29.3737 41.1407 27.4169 41.1621C26.6643 41.184 26.6643 41.184 25.8964 41.2064C25.4127 41.2109 24.9291 41.2154 24.4308 41.2201C23.9878 41.2278 23.5447 41.2356 23.0883 41.2436C21.4581 40.9373 20.9007 40.386 19.9218 39.0625C19.6691 37.8319 19.6691 37.8319 19.6624 36.4624C19.6599 35.9664 19.6574 35.4704 19.6548 34.9594C19.6623 34.4443 19.6699 33.9292 19.6777 33.3984C19.6663 32.6258 19.6663 32.6258 19.6548 31.8375C19.6573 31.3415 19.6598 30.8455 19.6624 30.3345C19.6646 29.8825 19.6668 29.4306 19.6691 28.965C20.2225 26.2703 21.9013 25.5344 24.475 25.5219ZM24.2187 30.0781C24.2187 32.2695 24.2187 34.4609 24.2187 36.7188C26.4101 36.7188 28.6015 36.7188 30.8593 36.7188C30.8593 34.5273 30.8593 32.3359 30.8593 30.0781C28.6679 30.0781 26.4765 30.0781 24.2187 30.0781Z" fill="white"/>
<path d="M22.8201 47.9367C23.1149 47.9376 23.4098 47.9386 23.7136 47.9396C24.0242 47.9376 24.3349 47.9356 24.655 47.9335C25.685 47.9281 26.715 47.9285 27.7451 47.9294C28.4593 47.9279 29.1735 47.9262 29.8877 47.9243C31.3861 47.9214 32.8845 47.9215 34.3829 47.9236C36.3052 47.9258 38.2273 47.9192 40.1495 47.9102C41.625 47.9044 43.1004 47.9041 44.5759 47.9053C45.2847 47.9051 45.9935 47.903 46.7023 47.8991C47.6928 47.8943 48.6829 47.8969 49.6734 47.9014C49.9674 47.8985 50.2615 47.8955 50.5645 47.8924C52.541 47.9125 52.541 47.9125 53.5025 48.5809C54.0857 49.5023 54.0664 50.1042 53.9063 51.1719C53.5025 51.8098 53.5025 51.8098 52.7344 52.3438C51.6838 52.4574 50.724 52.4999 49.6734 52.4892C49.362 52.4906 49.0507 52.492 48.7299 52.4935C47.7001 52.4967 46.6704 52.4914 45.6406 52.4857C44.926 52.4855 44.2114 52.4857 43.4968 52.4863C41.999 52.4862 40.5014 52.4821 39.0037 52.4751C37.081 52.4662 35.1584 52.466 33.2356 52.4686C31.7602 52.4699 30.2848 52.4674 28.8093 52.4635C28.1002 52.462 27.3911 52.4616 26.682 52.4622C25.6924 52.4623 24.7031 52.4574 23.7136 52.451C23.4187 52.452 23.1239 52.453 22.8201 52.454C20.7925 52.4331 20.7925 52.4331 19.9219 51.5625C19.8242 50.1953 19.8242 50.1953 19.9219 48.8281C20.8987 47.8513 21.487 47.9504 22.8201 47.9367Z" fill="white"/>
<path d="M22.8889 81.5333C23.3464 81.5296 23.804 81.5259 24.2754 81.5221C24.7719 81.5224 25.2683 81.5228 25.7797 81.5231C26.2874 81.5215 26.7951 81.5198 27.3181 81.5181C28.3935 81.5152 29.4689 81.5153 30.5444 81.5173C31.9228 81.5196 33.301 81.513 34.6794 81.5039C35.9935 81.4968 37.3075 81.4982 38.6215 81.4987C39.365 81.4933 39.365 81.4933 40.1234 81.4878C40.8116 81.4915 40.8116 81.4915 41.5137 81.4952C41.9182 81.495 42.3227 81.4947 42.7394 81.4945C43.75 81.6406 43.75 81.6406 44.4665 82.1746C45.1182 83.0876 45.0861 83.6705 44.9219 84.7656C44.4665 85.4035 44.4665 85.4035 43.75 85.9375C42.7394 86.0837 42.7394 86.0837 41.5137 86.0829C41.0549 86.0854 40.5961 86.0878 40.1234 86.0903C39.6278 86.0867 39.1322 86.0831 38.6215 86.0794C38.1135 86.0796 37.6054 86.0798 37.082 86.08C36.0072 86.08 34.9326 86.0759 33.8578 86.0688C32.479 86.06 31.1003 86.0598 29.7214 86.0624C28.4075 86.064 27.0936 86.0593 25.7797 86.055C25.2833 86.0554 24.7869 86.0557 24.2754 86.0561C23.8179 86.0524 23.3603 86.0486 22.8889 86.0448C22.4847 86.043 22.0805 86.0412 21.6641 86.0393C20.7031 85.9375 20.7031 85.9375 19.9219 85.1563C19.8242 83.7891 19.8242 83.7891 19.9219 82.4219C20.9576 81.3862 21.4428 81.5398 22.8889 81.5333Z" fill="white"/>
<path d="M22.5004 59.2677C22.8732 59.264 23.246 59.2603 23.6301 59.2564C24.0337 59.2568 24.4374 59.2571 24.8533 59.2575C25.4731 59.255 25.4731 59.255 26.1054 59.2524C26.9802 59.2502 27.855 59.25 28.7298 59.2517C30.0724 59.2529 31.4147 59.2438 32.7573 59.2339C33.6057 59.233 34.4541 59.2327 35.3025 59.2331C35.7061 59.2295 36.1098 59.2259 36.5257 59.2222C36.8985 59.2246 37.2713 59.2271 37.6554 59.2296C37.9844 59.2293 38.3134 59.2291 38.6524 59.2288C38.9165 59.2771 39.1807 59.3253 39.4529 59.375C40.2341 60.5469 40.2341 60.5469 40.1609 61.7432C39.8435 62.8906 39.8435 62.8906 38.6716 63.6719C37.8713 63.7711 37.8713 63.7711 36.9436 63.773C36.4215 63.7767 36.4215 63.7767 35.8889 63.7804C35.3267 63.7781 35.3267 63.7781 34.7532 63.7756C34.1746 63.7768 34.1746 63.7768 33.5843 63.7779C32.7687 63.7784 31.953 63.777 31.1374 63.7737C29.8875 63.7696 28.6377 63.7737 27.3878 63.7787C26.5958 63.7782 25.8039 63.7772 25.012 63.7756C24.6372 63.7772 24.2624 63.7788 23.8763 63.7804C23.5282 63.778 23.1802 63.7755 22.8216 63.773C22.5154 63.7723 22.2093 63.7717 21.8939 63.7711C21.0935 63.6719 21.0935 63.6719 19.9216 62.8906C19.7996 61.5234 19.7996 61.5234 19.9216 60.1563C20.8877 59.1902 21.17 59.275 22.5004 59.2677Z" fill="white"/>
<path d="M41.9601 25.7245C42.3172 25.722 42.6744 25.7195 43.0424 25.7169C43.4289 25.7165 43.8155 25.7161 44.2138 25.7156C44.6097 25.7143 45.0055 25.713 45.4134 25.7117C46.2514 25.7097 47.0894 25.7088 47.9274 25.7089C49.2134 25.708 50.4992 25.7009 51.7852 25.6935C52.598 25.6924 53.4108 25.6916 54.2235 25.6912C54.6101 25.6884 54.9967 25.6856 55.3949 25.6827C55.7521 25.6839 56.1093 25.6851 56.4773 25.6864C56.95 25.6855 56.95 25.6855 57.4322 25.6847C58.203 25.7812 58.203 25.7812 58.9843 26.5625C59.1308 27.71 59.1308 27.71 58.9843 28.9062C58.2889 29.7213 57.7029 30.0382 56.6414 30.1889C55.6424 30.2403 54.6502 30.2507 53.6498 30.2475C53.2829 30.2495 52.916 30.2516 52.538 30.2537C51.7631 30.2562 50.9882 30.2557 50.2133 30.2524C49.0275 30.249 47.8425 30.2603 46.6567 30.2727C45.9034 30.2733 45.1502 30.2731 44.3969 30.2719C43.8652 30.2785 43.8652 30.2785 43.3228 30.2852C40.8816 30.2582 40.8816 30.2582 39.6049 29.3626C39.0624 28.5156 39.0624 28.5156 39.1112 27.2705C39.224 26.908 39.3368 26.5454 39.453 26.1719C40.3744 25.7112 40.9328 25.7294 41.9601 25.7245Z" fill="white"/>
<path d="M24.571 70.1813C24.9124 70.1787 25.2539 70.1761 25.6057 70.1734C26.3277 70.1694 27.0498 70.1676 27.7718 70.1677C28.8762 70.166 29.9799 70.1518 31.0842 70.137C31.7858 70.1347 32.4875 70.1332 33.1891 70.1324C33.5192 70.1268 33.8492 70.1212 34.1893 70.1154C35.6944 70.1271 36.4721 70.1375 37.7249 71.0272C38.281 71.875 38.281 71.875 38.2078 73.1201C37.8904 74.2187 37.8904 74.2187 37.4998 74.6094C36.9763 74.6496 36.4509 74.6635 35.9259 74.6661C35.5922 74.6686 35.2584 74.6711 34.9146 74.6737C34.5516 74.6741 34.1887 74.6745 33.8148 74.675C33.4443 74.6763 33.0739 74.6776 32.6923 74.6789C31.9071 74.6809 31.122 74.6818 30.3368 74.6817C29.1322 74.6826 27.9278 74.6897 26.7232 74.6971C25.9621 74.6982 25.2009 74.699 24.4398 74.6994C23.8965 74.7036 23.8965 74.7036 23.3423 74.7079C23.0074 74.7067 22.6724 74.7055 22.3273 74.7042C22.0318 74.7048 21.7363 74.7054 21.4319 74.7059C20.7029 74.6094 20.7029 74.6094 19.9216 73.8281C19.7996 72.4609 19.7996 72.4609 19.9216 71.0937C21.4579 70.0695 22.787 70.1859 24.571 70.1813Z" fill="white"/>
<path d="M43.6753 36.6013C43.9733 36.5996 44.2714 36.5979 44.5786 36.5962C45.2087 36.5939 45.8388 36.5938 46.4688 36.5954C47.4317 36.5967 48.3941 36.5875 49.3569 36.5776C49.9695 36.5767 50.5821 36.5765 51.1948 36.5769C51.4821 36.5733 51.7694 36.5697 52.0654 36.5659C53.7005 36.5807 54.6737 36.7258 55.8594 37.8906C55.5176 40.5762 55.5176 40.5762 55.0781 41.0156C53.9936 41.0696 52.9194 41.0989 51.8341 41.1087C51.508 41.1119 51.1818 41.115 50.8458 41.1183C50.1543 41.1237 49.4627 41.1279 48.7711 41.1309C47.7121 41.1377 46.6536 41.1548 45.5948 41.172C44.9239 41.176 44.2531 41.1793 43.5822 41.182C43.2648 41.1888 42.9473 41.1956 42.6203 41.2027C40.4303 41.1942 40.4303 41.1942 39.4362 40.2881C38.9413 39.1822 39.0379 38.627 39.4531 37.5C40.8954 36.5385 42.0059 36.5992 43.6753 36.6013Z" fill="white"/>
<path d="M39.0383 14.6973C40.2346 14.8438 40.2346 14.8438 40.9915 15.5029C41.5197 16.6525 41.4497 17.1818 41.0159 18.3594C39.844 19.1406 39.844 19.1406 38.6233 19.0186C37.5002 18.75 37.5002 18.75 37.1096 18.3594C37.0364 17.0166 37.0364 17.0166 37.1096 15.625C37.8909 14.8438 37.8909 14.8438 39.0383 14.6973Z" fill="white"/>
</g>
<defs>
<clipPath id="clip0_381_22">
<rect width="100" height="100" fill="white"/>
</clipPath>
</defs>
</svg>
