<svg width="100" height="100" viewBox="0 0 100 100" fill="none" xmlns="http://www.w3.org/2000/svg">
<g clip-path="url(#clip0_381_16)">
<path d="M4.0532 -0.198431C4.82215 -0.20504 4.82215 -0.20504 5.60662 -0.211783C6.17403 -0.208745 6.74145 -0.205545 7.30886 -0.202198C7.90692 -0.204316 8.50498 -0.207098 9.10303 -0.210495C10.7269 -0.217622 12.3506 -0.214855 13.9744 -0.209903C15.6733 -0.205949 17.3721 -0.209615 19.0709 -0.212069C21.9239 -0.214912 24.7768 -0.211164 27.6298 -0.203724C30.9289 -0.195221 34.2278 -0.197975 37.5269 -0.206578C40.3587 -0.213667 43.1904 -0.21467 46.0222 -0.21058C47.7139 -0.208143 49.4054 -0.207822 51.0971 -0.212981C52.6874 -0.217492 54.2776 -0.214368 55.8679 -0.205334C56.4518 -0.203266 57.0357 -0.203863 57.6196 -0.207307C58.4161 -0.211571 59.2126 -0.205277 60.0091 -0.198431C60.6779 -0.197548 60.6779 -0.197548 61.3603 -0.196646C62.7497 0.0430783 63.1971 0.473925 64.0624 1.56248C64.6902 2.81815 64.4755 4.07659 64.453 5.46873C64.6887 5.4506 64.9243 5.43248 65.1671 5.4138C67.7405 5.29758 67.7405 5.29758 68.9452 6.20115C70.0063 7.70443 69.9557 8.71395 69.9218 10.5469C70.6348 10.4985 70.6348 10.4985 71.3622 10.4492C72.6845 10.4445 73.0228 10.5316 74.1942 11.2793C75.4143 12.5364 75.4381 13.2221 75.4287 14.9322C75.4274 15.3351 75.4261 15.7379 75.4249 16.1529C75.4216 16.5749 75.4183 16.9969 75.4149 17.4316C75.4132 17.8566 75.4114 18.2816 75.4096 18.7195C75.405 19.7713 75.3985 20.8231 75.3905 21.875C75.6982 21.8851 76.0058 21.8951 76.3228 21.9055C83.3251 22.2701 88.7979 24.7618 93.7499 29.6875C94.0739 29.9911 94.0739 29.9911 94.4045 30.3009C95.8774 31.8174 96.7975 33.6325 97.7538 35.498C97.9541 35.8848 97.9541 35.8848 98.1583 36.2794C100.675 41.3955 100.941 48.1698 99.3407 53.6133C99.0596 54.3697 98.7596 55.1195 98.4374 55.8594C98.2868 56.2103 98.1363 56.5613 97.9812 56.9229C96.9987 59.0308 95.8685 61.2972 94.1405 62.8906C92.8466 63.1103 92.8466 63.1103 91.7968 62.8906C91.4061 62.5 91.4061 62.5 91.3009 61.4227C91.4239 59.9428 91.7887 59.403 92.7001 58.2519C93.9519 56.5795 94.687 55.1116 95.3124 53.125C94.9652 53.0722 94.9652 53.0722 94.6111 53.0185C92.2872 52.633 90.0288 52.1063 87.7593 51.4847C87.473 51.4064 87.1867 51.3282 86.8917 51.2477C85.7003 50.9207 84.5095 50.5915 83.3199 50.2578C82.4407 50.0119 81.5601 49.7714 80.6792 49.5315C80.4123 49.4551 80.1453 49.3786 79.8703 49.2998C78.3437 48.8883 77.2957 48.773 75.7811 49.2187C75.0354 49.7388 75.0354 49.7388 74.3823 50.434C74.1256 50.6895 73.869 50.9451 73.6045 51.2083C73.3338 51.4858 73.0632 51.7633 72.7843 52.0492C72.5019 52.3329 72.2195 52.6167 71.9285 52.909C71.3331 53.5084 70.7396 54.1097 70.1478 54.7128C69.2396 55.6382 68.3262 56.5583 67.4117 57.4775C66.8341 58.0604 66.2568 58.6435 65.6798 59.227C65.406 59.5037 65.1322 59.7804 64.8501 60.0655C64.5983 60.3222 64.3466 60.579 64.0872 60.8435C63.8649 61.0696 63.6427 61.2957 63.4137 61.5287C62.8513 62.101 62.8513 62.101 62.4999 62.8906C62.7748 62.9953 63.0498 63.1001 63.333 63.208C64.5087 63.6949 65.6189 64.2572 66.7479 64.8437C71.4876 67.2107 76.4865 67.8125 81.6405 66.4062C82.8768 65.9162 84.0793 65.3931 85.2767 64.8147C86.4665 64.4055 87.0912 64.4874 88.2811 64.8437C88.5497 65.747 88.5497 65.747 88.6718 66.7969C86.9486 69.0984 82.9504 70.0687 80.2266 70.5811C79.2188 70.7133 78.2528 70.7291 77.2368 70.7199C76.7161 70.7163 76.7161 70.7163 76.1849 70.7125C75.9228 70.7094 75.6606 70.7063 75.3905 70.7031C75.4642 71.091 75.5378 71.4788 75.6137 71.8784C76.5926 77.5716 77.0392 83.8358 73.7868 88.8769C72.5924 90.5121 71.2772 91.9876 69.8653 93.4372C69.567 93.747 69.2687 94.0567 68.9613 94.3759C62.7702 100.532 56.2424 101.459 47.8305 101.443C44.8337 101.418 41.8445 101.285 38.8524 101.123C36.0453 100.975 33.2385 100.924 30.4282 100.874C26.0626 100.791 21.6963 100.666 17.3355 100.445C16.9117 100.43 16.4879 100.415 16.0512 100.399C12.8651 100.211 12.8651 100.211 11.6481 99.0503C10.5798 97.542 10.785 96.7206 10.9374 94.9219C10.5907 94.9558 10.5907 94.9558 10.237 94.9905C8.56462 95.086 7.67327 95.081 6.22548 94.165C5.20877 92.558 5.28722 91.3036 5.46865 89.4531C4.99331 89.4773 4.51796 89.5014 4.02822 89.5263C2.50674 89.529 1.61048 89.2424 0.390522 88.2812C-0.252226 86.9957 -0.0578986 85.5671 -0.0575912 84.154C-0.0597455 83.6283 -0.0597456 83.6283 -0.0619435 83.0919C-0.0662662 81.9104 -0.0677581 80.7288 -0.0692439 79.5473C-0.0716901 78.703 -0.0742865 77.8588 -0.0770223 77.0146C-0.0838305 74.716 -0.0879466 72.4175 -0.091165 70.1189C-0.0931748 68.6842 -0.0955483 67.2495 -0.0980054 65.8148C-0.105449 61.3297 -0.111008 56.8447 -0.11426 52.3596C-0.118081 47.1751 -0.12837 41.9906 -0.144143 36.8061C-0.155905 32.8033 -0.161707 28.8005 -0.163003 24.7977C-0.163923 22.4048 -0.167451 20.012 -0.177245 17.6191C-0.186307 15.369 -0.188006 13.1189 -0.183979 10.8688C-0.183785 10.0417 -0.186278 9.2147 -0.191618 8.38767C-0.198489 7.26086 -0.195789 6.13446 -0.190629 5.00764C-0.194914 4.67835 -0.199199 4.34905 -0.203613 4.00978C-0.188465 2.645 -0.112915 1.73664 0.63738 0.578309C1.84437 -0.176312 2.63159 -0.196553 4.0532 -0.198431ZM3.1249 3.12498C3.11352 17.8341 3.11352 17.8341 3.10582 32.5432C3.1035 38.5377 3.10077 44.5322 3.09543 50.5267C3.09154 54.8916 3.08902 59.2565 3.08814 63.6214C3.08763 65.9342 3.08643 68.2469 3.0836 70.5596C3.08096 72.7337 3.08012 74.9078 3.08071 77.0819C3.08061 77.8824 3.07982 78.6828 3.07833 79.4833C3.07641 80.5711 3.07685 81.6588 3.07792 82.7466C3.07679 83.0677 3.07565 83.3888 3.07448 83.7196C2.94376 85.1406 2.94376 85.1406 3.51552 86.3281C4.16637 86.344 4.81782 86.3448 5.46865 86.3281C5.46922 85.9229 5.46979 85.5177 5.47038 85.1002C5.48467 75.2483 5.50787 65.3966 5.54048 55.5448C5.55605 50.7805 5.56869 46.0164 5.57451 41.2521C5.57958 37.1005 5.59009 32.9489 5.60717 28.7972C5.61602 26.5982 5.62213 24.3992 5.62173 22.2002C5.62144 20.1315 5.6284 18.063 5.64098 15.9943C5.64431 15.2341 5.64497 14.4738 5.64279 13.7135C5.64021 12.6773 5.64716 11.6415 5.65655 10.6053C5.65351 10.3029 5.65048 10.0004 5.64736 9.68877C5.66914 8.33456 5.75869 7.55937 6.56815 6.45272C7.79937 5.59688 8.95076 5.66427 10.3942 5.70677C10.6781 5.70898 10.962 5.71119 11.2545 5.71347C12.1582 5.72219 13.0613 5.74179 13.9647 5.7617C14.5786 5.76954 15.1926 5.77667 15.8065 5.78306C17.3087 5.80026 18.8104 5.82721 20.3124 5.85936C20.3124 6.7617 20.3124 7.66404 20.3124 8.59373C16.4452 8.59373 12.578 8.59373 8.59365 8.59373C8.58462 19.3844 8.57764 30.1751 8.57341 40.9657C8.57139 45.9756 8.56864 50.9855 8.56418 55.9954C8.56029 60.3604 8.55777 64.7253 8.55689 69.0902C8.55638 71.4029 8.55518 73.7157 8.55235 76.0284C8.54971 78.2025 8.54887 80.3766 8.54946 82.5507C8.54936 83.3511 8.54857 84.1516 8.54708 84.952C8.54516 86.0398 8.5456 87.1276 8.54667 88.2154C8.54497 88.697 8.54497 88.697 8.54323 89.1883C8.41251 90.6094 8.41251 90.6094 8.98427 91.7969C9.63512 91.8127 10.2866 91.8135 10.9374 91.7969C10.9391 91.3893 10.9407 90.9817 10.9424 90.5617C10.9827 80.6546 11.0251 70.7476 11.07 60.8405C11.0916 56.0495 11.1125 51.2586 11.1317 46.4677C11.1484 42.293 11.1665 38.1184 11.1862 33.9437C11.1966 31.7323 11.2063 29.5208 11.2144 27.3093C11.222 25.2295 11.2315 23.1497 11.2423 21.0698C11.2459 20.305 11.2489 19.5401 11.2512 18.7753C11.2545 17.734 11.26 16.6927 11.2662 15.6513C11.2666 15.3462 11.267 15.0411 11.2674 14.7267C11.2769 13.4902 11.3247 12.51 11.7186 11.3281C12.9403 10.844 14.1851 10.8841 15.4859 10.8757C16.1596 10.8699 16.1596 10.8699 16.8469 10.8641C17.3381 10.8618 17.8292 10.8596 18.3352 10.8573C18.8589 10.8535 19.3825 10.8496 19.9061 10.8456C21.3264 10.835 22.7467 10.8268 24.1671 10.819C25.6518 10.8104 27.1366 10.7998 28.6214 10.7893C31.4324 10.7698 34.2435 10.7522 37.0546 10.7354C40.2552 10.7161 43.4557 10.6946 46.6563 10.673C53.2396 10.6286 59.8228 10.5868 66.4061 10.5469C66.4061 9.90232 66.4061 9.25779 66.4061 8.59373C53.1288 8.59373 39.8515 8.59373 26.1718 8.59373C26.1718 7.69139 26.1718 6.78904 26.1718 5.85936C37.6444 5.73045 49.1171 5.60154 60.9374 5.46873C60.9374 4.69529 60.9374 3.92186 60.9374 3.12498C41.8593 3.12498 22.7811 3.12498 3.1249 3.12498ZM14.0624 14.0625C14.0242 15.1293 14.0116 16.1863 14.0154 17.2533C14.0151 17.5918 14.0148 17.9303 14.0144 18.2791C14.0138 19.4223 14.0159 20.5655 14.0181 21.7088C14.0182 22.5247 14.0181 23.3406 14.0179 24.1566C14.0178 26.3792 14.0201 28.6017 14.0228 30.8243C14.0252 33.1443 14.0255 35.4643 14.0259 37.7842C14.0271 42.1808 14.0303 46.5773 14.0343 50.9739C14.0394 56.9125 14.0416 62.8512 14.0438 68.7899C14.0475 78.1516 14.0553 87.5133 14.0624 96.875C28.7577 96.875 43.453 96.875 58.5936 96.875C58.7226 93.1367 58.8515 89.3984 58.9843 85.5469C60.1561 83.9844 60.1561 83.9844 61.328 83.5937C62.1626 83.5349 62.9988 83.4966 63.835 83.4701C64.2762 83.4552 64.7174 83.4404 65.172 83.425C65.7323 83.4082 66.2927 83.3913 66.87 83.374C68.6505 83.3176 70.431 83.2612 72.2655 83.2031C72.2655 78.9492 72.2655 74.6953 72.2655 70.3125C69.3651 69.539 69.3651 69.539 66.4061 68.75C64.8618 68.0107 63.5248 67.3255 62.1093 66.4062C61.8051 66.2104 61.501 66.0145 61.1876 65.8127C56.4015 62.4211 53.4356 57.0096 52.1499 51.3672C51.1523 44.4386 52.13 37.5399 56.3361 31.7674C60.5128 26.4994 65.9041 24.0318 72.2655 22.2656C72.2881 20.9798 72.3021 19.6941 72.3143 18.4082C72.3242 17.8591 72.3242 17.8591 72.3342 17.2989C72.338 16.7739 72.338 16.7739 72.3418 16.2384C72.348 15.7536 72.348 15.7536 72.3542 15.259C72.3409 14.3656 72.3409 14.3656 71.4843 13.6719C70.4529 13.5538 70.4529 13.5538 69.2278 13.5753C68.7474 13.5736 68.2671 13.572 67.7721 13.5703C67.2369 13.5725 66.7017 13.5747 66.1665 13.577C65.6051 13.5765 65.0438 13.5758 64.4824 13.5747C62.9555 13.5728 61.4286 13.5758 59.9017 13.5798C58.3065 13.5832 56.7114 13.5825 55.1163 13.5824C52.4377 13.5827 49.7591 13.5861 47.0804 13.5915C43.9793 13.5976 40.8781 13.5997 37.777 13.5994C34.7986 13.5991 31.8203 13.6011 28.8419 13.6044C27.5721 13.6058 26.3022 13.6065 25.0324 13.6067C23.5386 13.6071 22.0449 13.6094 20.5511 13.6134C20.0014 13.6145 19.4516 13.615 18.9019 13.6148C18.1545 13.6146 17.4072 13.617 16.6599 13.6196C16.2407 13.6203 15.8215 13.6209 15.3896 13.6216C14.4716 13.5663 14.4716 13.5663 14.0624 14.0625ZM62.8905 29.6875C62.4796 29.9775 62.0687 30.2676 61.6454 30.5664C57.368 34.7487 54.8299 40.2052 54.5653 46.1914C54.7135 51.1325 56.3077 55.8769 59.3749 59.7656C68.7982 55.4422 76.2331 43.9667 79.782 34.6466C80.0571 33.8927 80.3268 33.1372 80.5941 32.3805C81.0359 31.1477 81.5122 29.9289 81.9854 28.7079C82.1451 28.2934 82.3047 27.8789 82.4693 27.4519C82.5825 27.1584 82.6957 26.8649 82.8124 26.5625C75.8822 23.9113 68.795 25.3509 62.8905 29.6875ZM85.9374 28.125C84.0087 31.9034 82.2124 35.7222 80.4931 39.5996C80.261 40.1205 80.0288 40.6413 79.7965 41.1621C79.238 42.4148 78.681 43.6681 78.1249 44.9219C79.1516 45.6063 79.7314 45.8781 80.8814 46.1862C81.1982 46.2722 81.5149 46.3582 81.8413 46.4467C82.1819 46.5367 82.5225 46.6267 82.8734 46.7193C83.4 46.8607 83.4 46.8607 83.9372 47.005C84.679 47.2037 85.4211 47.4013 86.1634 47.5979C87.3009 47.8994 88.4373 48.2048 89.5736 48.5107C90.2942 48.7032 91.0149 48.8955 91.7357 49.0875C92.0763 49.179 92.4169 49.2706 92.7678 49.3649C93.0846 49.4484 93.4014 49.5319 93.7278 49.6179C94.0061 49.6919 94.2845 49.7659 94.5713 49.8421C95.3771 50.0407 95.3771 50.0407 96.4843 50C97.9315 45.6584 96.5268 40.7056 94.702 36.6943C92.7592 33.0208 90.007 30.0648 86.328 28.125C86.1991 28.125 86.0702 28.125 85.9374 28.125ZM61.7186 86.7187C61.7186 89.2969 61.7186 91.875 61.7186 94.5312C63.387 93.1012 64.9778 91.7239 66.5282 90.1855C66.857 89.8623 67.1858 89.539 67.5246 89.2059C68.4615 88.2508 68.4615 88.2508 69.1405 86.7187C66.6913 86.7187 64.2421 86.7187 61.7186 86.7187Z" fill="white"/>
<path d="M35.071 61.615C35.4321 61.614 35.7931 61.613 36.1651 61.6119C36.5412 61.615 36.9174 61.618 37.3049 61.6211C37.8691 61.6166 37.8691 61.6166 38.4448 61.6119C38.8058 61.6129 39.1668 61.614 39.5388 61.615C39.8689 61.6159 40.199 61.6168 40.539 61.6177C41.4065 61.7188 41.4065 61.7188 42.5784 62.5C42.6648 63.5262 42.6884 64.4566 42.6516 65.4785C42.6437 65.8924 42.6437 65.8924 42.6356 66.3147C42.6218 66.9964 42.6008 67.6779 42.5784 68.3594C43.2347 68.339 43.2347 68.339 43.9044 68.3182C44.4796 68.3072 45.0549 68.2965 45.6301 68.2861C45.9184 68.2763 46.2067 68.2665 46.5037 68.2564C48.6511 68.2272 48.6511 68.2272 49.4986 68.859C50.3767 70.0357 50.1415 71.4821 50.1147 72.8928C50.113 73.2206 50.1114 73.5484 50.1097 73.8861C50.1031 74.933 50.0884 75.9796 50.0735 77.0264C50.0676 77.7362 50.0623 78.4459 50.0575 79.1557C50.0445 80.8956 50.0243 82.6353 50.0002 84.375C50.6448 84.5039 51.2893 84.6328 51.9534 84.7656C52.1975 85.6934 52.1975 85.6934 52.344 86.7188C51.2222 87.8406 50.4397 87.5991 48.8688 87.6011C48.4533 87.6031 48.4533 87.6031 48.0294 87.6052C47.1116 87.6087 46.1939 87.6064 45.2761 87.6038C44.6398 87.6043 44.0034 87.605 43.3671 87.606C42.0326 87.6072 40.6981 87.6055 39.3635 87.6019C37.6506 87.5974 35.9377 87.6 34.2247 87.6046C32.9105 87.6075 31.5962 87.6066 30.2819 87.6045C29.6502 87.604 29.0185 87.6047 28.3868 87.6065C27.5048 87.6085 26.623 87.6054 25.7411 87.6011C25.2386 87.6005 24.7361 87.5998 24.2184 87.5992C23.0471 87.5 23.0471 87.5 22.2659 86.7188C22.1926 85.7178 22.1926 85.7178 22.2659 84.7656C22.6565 84.375 22.6565 84.375 23.6575 84.3506C23.9717 84.3586 24.2859 84.3667 24.6096 84.375C24.6055 84.0359 24.6014 83.6969 24.5972 83.3475C24.5839 82.091 24.5741 80.8346 24.5667 79.578C24.5628 79.0339 24.5574 78.4898 24.5507 77.9457C24.5412 77.1642 24.5372 76.3827 24.5333 75.6012C24.5292 75.1307 24.5251 74.6602 24.5209 74.1755C24.6096 73.0469 24.6096 73.0469 25.3909 72.2656C26.5273 72.2089 27.6252 72.1928 28.76 72.2168C29.0732 72.2203 29.3864 72.2238 29.7091 72.2275C30.4833 72.2367 31.2574 72.2507 32.0315 72.2656C32.0254 71.9739 32.0192 71.6821 32.0129 71.3816C31.9886 70.065 31.9733 68.7484 31.9583 67.4316C31.9484 66.9724 31.9386 66.5132 31.9285 66.04C31.9247 65.602 31.9209 65.1639 31.9171 64.7125C31.9109 64.3075 31.9048 63.9025 31.8985 63.4851C31.9424 63.16 31.9863 62.8349 32.0315 62.5C33.2847 61.6645 33.6283 61.6188 35.071 61.615ZM35.1565 65.2344C35.1565 71.5508 35.1565 77.8672 35.1565 84.375C36.5745 84.375 37.9924 84.375 39.4534 84.375C39.4534 78.0586 39.4534 71.7422 39.4534 65.2344C38.0354 65.2344 36.6174 65.2344 35.1565 65.2344ZM42.5784 71.875C42.5784 76 42.5784 80.125 42.5784 84.375C43.8674 84.375 45.1565 84.375 46.4846 84.375C46.4846 80.25 46.4846 76.125 46.4846 71.875C45.1956 71.875 43.9065 71.875 42.5784 71.875ZM28.1252 75.3906C28.1252 78.3555 28.1252 81.3203 28.1252 84.375C29.4143 84.375 30.7034 84.375 32.0315 84.375C32.0315 81.4102 32.0315 78.4453 32.0315 75.3906C30.7424 75.3906 29.4534 75.3906 28.1252 75.3906Z" fill="white"/>
<path d="M25.0442 23.7266C25.46 23.7299 25.46 23.7299 25.8842 23.7332C26.3226 23.7321 26.3226 23.7321 26.7698 23.731C27.7383 23.7295 28.7068 23.7337 29.6753 23.7381C30.3467 23.7385 31.018 23.7387 31.6894 23.7386C33.0975 23.7392 34.5056 23.7425 35.9137 23.7477C37.7212 23.7543 39.5287 23.7558 41.3362 23.7555C42.7229 23.7557 44.1095 23.7578 45.4961 23.7606C46.1627 23.7619 46.8293 23.7626 47.4959 23.7629C48.4265 23.7638 49.3571 23.7672 50.2876 23.7714C50.5648 23.7712 50.8421 23.771 51.1277 23.7708C53.0356 23.7834 53.0356 23.7834 53.9062 24.2187C53.9062 25.1211 53.9062 26.0234 53.9062 26.9531C52.7451 27.5337 51.5609 27.4013 50.2876 27.4005C49.8493 27.4024 49.8493 27.4024 49.4021 27.4044C48.4336 27.4082 47.4651 27.4089 46.4966 27.4093C45.8252 27.4106 45.1538 27.4119 44.4825 27.4133C43.0744 27.4156 41.6663 27.4163 40.2582 27.4161C38.4507 27.4161 36.6432 27.4214 34.8357 27.4281C33.449 27.4325 32.0624 27.4333 30.6757 27.4331C30.0091 27.4335 29.3425 27.4353 28.6759 27.4383C27.7453 27.4421 26.8149 27.441 25.8842 27.4386C25.4684 27.4419 25.4684 27.4419 25.0442 27.4453C23.1361 27.4329 23.1361 27.4329 22.2656 26.5625C22.168 25.5859 22.168 25.5859 22.2656 24.6094C23.2215 23.6535 23.7397 23.735 25.0442 23.7266Z" fill="white"/>
<path d="M24.9176 34.7151C25.643 34.7133 25.643 34.7133 26.383 34.7114C26.9149 34.7121 27.4467 34.7129 27.9785 34.7138C28.52 34.7135 29.0615 34.7131 29.603 34.7126C30.7392 34.7121 31.8754 34.7129 33.0116 34.7147C34.4711 34.7169 35.9305 34.7157 37.39 34.7133C38.5085 34.7119 39.6271 34.7124 40.7456 34.7134C41.2839 34.7136 41.8222 34.7133 42.3604 34.7124C43.1115 34.7114 43.8626 34.7132 44.6136 34.7151C45.2559 34.7156 45.2559 34.7156 45.9112 34.716C46.875 34.7656 46.875 34.7656 47.2656 35.1563C47.3145 36.3281 47.3145 36.3281 47.2656 37.5C46.5706 38.195 45.5535 37.9405 44.6136 37.9412C44.1301 37.9424 43.6465 37.9437 43.1482 37.9449C42.6164 37.9442 42.0846 37.9434 41.5527 37.9425C41.0112 37.9428 40.4697 37.9432 39.9282 37.9437C38.792 37.9442 37.6558 37.9434 36.5196 37.9416C35.0602 37.9393 33.6007 37.9406 32.1413 37.943C31.0227 37.9444 29.9042 37.9439 28.7856 37.9429C28.2474 37.9427 27.7091 37.943 27.1708 37.9439C26.4198 37.9449 25.6687 37.9431 24.9176 37.9412C24.2753 37.9407 24.2753 37.9407 23.62 37.9402C22.6562 37.8906 22.6562 37.8906 22.2656 37.5C22.2168 36.3281 22.2168 36.3281 22.2656 35.1563C22.9606 34.4613 23.9778 34.7158 24.9176 34.7151Z" fill="white"/>
<path d="M23.9067 45.2159C24.2635 45.2165 24.6202 45.2171 24.9878 45.2176C25.5939 45.2158 25.5939 45.2158 26.2123 45.214C26.8691 45.2182 26.8691 45.2182 27.5391 45.2225C27.987 45.2227 28.4349 45.2229 28.8963 45.223C29.8447 45.2242 30.793 45.2273 31.7413 45.2321C33.197 45.2392 34.6527 45.2401 36.1084 45.24C37.028 45.242 37.9476 45.2442 38.8672 45.2469C39.5239 45.2476 39.5239 45.2476 40.1939 45.2482C40.598 45.2507 41.0021 45.2532 41.4185 45.2558C41.7752 45.2573 42.132 45.2588 42.4995 45.2603C43.3594 45.3125 43.3594 45.3125 44.1406 45.7031C44.1406 46.6055 44.1406 47.5078 44.1406 48.4375C43.1661 48.9248 42.5087 48.8777 41.4185 48.8787C41.0144 48.8799 40.6103 48.8812 40.1939 48.8824C39.7561 48.8816 39.3183 48.8808 38.8672 48.88C38.1953 48.8806 38.1953 48.8806 37.5099 48.8812C36.5616 48.8814 35.6132 48.8807 34.6649 48.8791C33.2092 48.877 31.7536 48.8791 30.2979 48.8816C29.3783 48.8813 28.4587 48.8808 27.5391 48.88C27.1012 48.8808 26.6634 48.8816 26.2123 48.8824C25.8082 48.8812 25.4041 48.88 24.9878 48.8787C24.631 48.8784 24.2743 48.8781 23.9067 48.8777C23.0469 48.8281 23.0469 48.8281 22.2656 48.4375C22.2168 47.3145 22.2168 47.3145 22.2656 46.0938C23.0469 45.3125 23.0469 45.3125 23.9067 45.2159Z" fill="white"/>
</g>
<defs>
<clipPath id="clip0_381_16">
<rect width="100" height="100" fill="white"/>
</clipPath>
</defs>
</svg>
