<svg width="100" height="100" viewBox="0 0 100 100" fill="none" xmlns="http://www.w3.org/2000/svg">
<path d="M9.64957 46.7767C9.86278 46.775 9.86278 46.775 10.0803 46.7732C10.5568 46.7704 11.0332 46.7731 11.5097 46.7758C11.8547 46.7749 12.1997 46.7737 12.5447 46.7721C13.4929 46.7688 14.441 46.7705 15.3892 46.7729C16.4117 46.7746 17.4342 46.7719 18.4568 46.7698C20.4599 46.7663 22.4631 46.767 24.4663 46.7693C26.094 46.7711 27.7218 46.7713 29.3495 46.7705C29.581 46.7703 29.8125 46.7702 30.0511 46.7701C30.5213 46.7698 30.9916 46.7696 31.4619 46.7693C35.8736 46.7671 40.2852 46.7697 44.6969 46.7739C48.4839 46.7774 52.2708 46.7768 56.0577 46.7732C60.4534 46.769 64.8491 46.7673 69.2448 46.7697C69.7134 46.77 70.1819 46.7702 70.6505 46.7705C70.9963 46.7706 70.9963 46.7706 71.3491 46.7708C72.9753 46.7715 74.6014 46.7704 76.2276 46.7685C78.2088 46.7663 80.19 46.7669 82.1712 46.7711C83.1825 46.7731 84.1936 46.7739 85.2049 46.7714C86.1301 46.769 87.0553 46.7703 87.9805 46.7745C88.3157 46.7753 88.6508 46.7749 88.986 46.773C89.4409 46.7706 89.8955 46.7731 90.3504 46.7767C90.6033 46.7768 90.8562 46.7769 91.1167 46.7771C92.14 46.9244 92.7334 47.4085 93.4326 48.1445C93.901 49.1533 93.8972 50.0782 93.75 51.1719C93.299 52.1434 92.7197 52.6029 91.7969 53.125C91.1167 53.2229 91.1167 53.2229 90.3504 53.2233C90.1372 53.225 90.1372 53.225 89.9197 53.2268C89.4432 53.2296 88.9668 53.2269 88.4903 53.2242C88.1453 53.2251 87.8003 53.2264 87.4554 53.2279C86.5071 53.2312 85.559 53.2295 84.6108 53.2271C83.5883 53.2254 82.5658 53.2281 81.5433 53.2302C79.5401 53.2337 77.5369 53.233 75.5338 53.2307C73.906 53.2289 72.2782 53.2287 70.6505 53.2295C70.419 53.2297 70.1875 53.2298 69.949 53.2299C69.4787 53.2302 69.0084 53.2304 68.5381 53.2307C64.1265 53.2329 59.7148 53.2303 55.3031 53.2261C51.5162 53.2226 47.7292 53.2233 43.9423 53.2269C39.5466 53.231 35.1509 53.2327 30.7552 53.2303C30.2866 53.23 29.8181 53.2298 29.3495 53.2295C29.0037 53.2294 29.0037 53.2294 28.6509 53.2292C27.0247 53.2285 25.3986 53.2296 23.7724 53.2315C21.7912 53.2337 19.81 53.2331 17.8288 53.2289C16.8176 53.2269 15.8064 53.2261 14.7952 53.2286C13.8699 53.231 12.9447 53.2297 12.0195 53.2255C11.6843 53.2247 11.3492 53.2251 11.014 53.227C10.5591 53.2294 10.1045 53.227 9.64957 53.2233C9.39671 53.2232 9.14385 53.2231 8.88333 53.2229C7.85997 53.0756 7.26663 52.5915 6.56739 51.8555C6.09902 50.8467 6.10278 49.9218 6.25001 48.8281C6.94245 47.3367 8.04681 46.7775 9.64957 46.7767Z" fill="white"/>
<path d="M91.7969 65.625C92.767 66.0754 93.2414 66.6476 93.75 67.5782C93.86 68.185 93.8569 68.7798 93.8511 69.3952C93.8525 69.5745 93.8538 69.7538 93.8552 69.9385C93.8587 70.5296 93.8564 71.1206 93.8538 71.7118C93.8543 72.1249 93.855 72.538 93.856 72.951C93.8572 73.817 93.8555 74.6828 93.8519 75.5487C93.8474 76.6533 93.85 77.7577 93.8546 78.8623C93.8575 79.7159 93.8566 80.5694 93.8545 81.423C93.854 81.8299 93.8547 82.2369 93.8565 82.6438C93.8688 86.1558 93.4224 88.6976 90.9546 91.3575C89.0522 93.1579 86.8335 93.8415 84.2604 93.829C84.0638 93.8303 83.8673 93.8316 83.6648 93.833C83.0216 93.8366 82.3785 93.8358 81.7352 93.8347C81.2854 93.8356 80.8356 93.8367 80.3858 93.8378C79.4461 93.8396 78.5064 93.8391 77.5667 93.8372C76.3631 93.8349 75.1596 93.8389 73.9559 93.8446C73.0284 93.8481 72.1008 93.8481 71.1732 93.847C70.7293 93.847 70.2855 93.8481 69.8416 93.8506C69.2218 93.8535 68.6021 93.8514 67.9823 93.848C67.7083 93.8509 67.7083 93.8509 67.4288 93.8538C66.3372 93.8414 65.7089 93.6986 64.8438 92.9688C64.1351 92.2228 64.002 91.6245 63.9648 90.625C64.002 89.6256 64.1351 89.0273 64.8438 88.2813C65.8414 87.4581 66.5684 87.3884 67.8061 87.4027C67.9825 87.4016 68.1589 87.4006 68.3407 87.3995C68.7224 87.3976 69.1042 87.3976 69.4859 87.3992C70.0912 87.4017 70.6963 87.3994 71.3016 87.396C72.3692 87.3908 73.4367 87.3897 74.5043 87.39C76.2109 87.3904 77.9174 87.3877 79.6239 87.3792C80.2182 87.3772 80.8124 87.3789 81.4067 87.3809C81.7741 87.3797 82.1414 87.3783 82.5087 87.3768C82.6722 87.3783 82.8357 87.3798 83.0042 87.3814C84.3138 87.3702 85.6192 87.1929 86.6089 86.2793C87.2669 85.1213 87.3615 83.9934 87.3546 82.6965C87.3553 82.5344 87.356 82.3722 87.3567 82.2052C87.358 81.8553 87.3585 81.5055 87.3583 81.1556C87.3581 80.6013 87.3606 80.0472 87.3639 79.4929C87.373 77.9179 87.3778 76.3429 87.3791 74.7679C87.3801 73.8025 87.3848 72.8373 87.3918 71.872C87.3937 71.505 87.3942 71.138 87.3932 70.771C87.3918 70.2577 87.3952 69.7447 87.3996 69.2314C87.3972 69.0054 87.3972 69.0054 87.3947 68.7747C87.4102 67.7599 87.6453 67.1906 88.2812 66.4063C89.3108 65.4282 90.4508 65.4438 91.7969 65.625Z" fill="white"/>
<path d="M10.5471 65.625C11.5176 66.0757 11.9857 66.6511 12.5002 67.5782C12.5732 68.1526 12.6048 68.6525 12.5975 69.2252C12.5986 69.3864 12.5997 69.5476 12.6008 69.7136C12.6026 70.0621 12.6026 70.4106 12.6011 70.7591C12.5986 71.3119 12.6008 71.8645 12.6042 72.4172C12.6094 73.3924 12.6105 74.3674 12.6102 75.3426C12.6098 76.9011 12.6126 78.4595 12.6211 80.018C12.623 80.5604 12.6213 81.1026 12.6194 81.645C12.6206 81.9807 12.6219 82.3165 12.6235 82.6522C12.622 82.8011 12.6204 82.95 12.6189 83.1034C12.6307 84.3752 12.8373 85.6518 13.7209 86.6089C14.9357 87.2992 16.0825 87.3613 17.4471 87.3546C17.6245 87.3553 17.8019 87.356 17.9847 87.3568C18.3678 87.3581 18.7509 87.3586 19.134 87.3583C19.7408 87.3581 20.3475 87.3607 20.9542 87.364C22.6786 87.373 24.4029 87.3778 26.1273 87.3791C27.1838 87.3801 28.2402 87.3848 29.2967 87.3919C29.6986 87.3938 30.1005 87.3942 30.5024 87.3932C31.0643 87.3918 31.626 87.3952 32.1879 87.3996C32.4359 87.3972 32.4359 87.3972 32.6888 87.3948C33.735 87.4094 34.3229 87.5933 35.1564 88.2813C35.8651 89.0273 35.9982 89.6256 36.0354 90.625C35.9982 91.6245 35.8651 92.2228 35.1564 92.9688C34.1247 93.838 33.3129 93.8623 32.0241 93.8511C31.8296 93.8525 31.6351 93.8539 31.4346 93.8553C30.7928 93.8587 30.151 93.8564 29.5092 93.8538C29.061 93.8543 28.6129 93.8551 28.1648 93.8561C27.2253 93.8572 26.2859 93.8555 25.3465 93.8519C24.1473 93.8475 22.9483 93.85 21.7491 93.8547C20.8231 93.8575 19.8972 93.8566 18.9713 93.8546C18.5295 93.8541 18.0876 93.8547 17.6458 93.8565C13.9905 93.8683 11.4265 93.5374 8.64277 90.9546C6.89349 89.1063 6.15802 86.9135 6.17128 84.4038C6.16994 84.2226 6.1686 84.0413 6.16722 83.8545C6.16368 83.262 6.1644 82.6696 6.16551 82.0771C6.16462 81.6623 6.16358 81.2475 6.16241 80.8327C6.16067 79.9666 6.16113 79.1005 6.16308 78.2343C6.16533 77.1253 6.16136 76.0163 6.15567 74.9073C6.15209 74.0521 6.15214 73.1969 6.15326 72.3417C6.15329 71.9327 6.15211 71.5238 6.14969 71.1148C6.14678 70.5436 6.14886 69.9726 6.15221 69.4014C6.15032 69.2334 6.14843 69.0653 6.14648 68.8922C6.15941 67.8384 6.33651 67.2452 7.03145 66.4063C8.061 65.4282 9.201 65.4438 10.5471 65.625Z" fill="white"/>
<path d="M67.9761 6.14889C68.1706 6.14752 68.3651 6.14615 68.5656 6.14474C69.2074 6.14131 69.8491 6.14358 70.491 6.14622C70.9391 6.1457 71.3873 6.14494 71.8354 6.14396C72.7749 6.14281 73.7143 6.14448 74.6537 6.14813C75.8529 6.15257 77.0519 6.15003 78.2511 6.14534C79.177 6.1425 80.103 6.14342 81.0289 6.14544C81.4707 6.14596 81.9125 6.14533 82.3543 6.1435C86.0097 6.1317 88.5737 6.46267 91.3574 9.04539C93.1067 10.8937 93.8422 13.0865 93.8289 15.5962C93.8303 15.7775 93.8316 15.9587 93.833 16.1455C93.8365 16.738 93.8358 17.3304 93.8347 17.923C93.8356 18.3377 93.8366 18.7525 93.8378 19.1673C93.8395 20.0334 93.8391 20.8995 93.8371 21.7657C93.8349 22.8747 93.8388 23.9837 93.8445 25.0927C93.8481 25.9479 93.8481 26.8031 93.8469 27.6583C93.8469 28.0673 93.8481 28.4763 93.8505 28.8852C93.8534 29.4564 93.8513 30.0274 93.848 30.5986C93.8508 30.8507 93.8508 30.8507 93.8537 31.1078C93.8408 32.1616 93.6637 32.7549 92.9688 33.5937C92.2228 34.3024 91.6245 34.4355 90.625 34.4726C89.6255 34.4355 89.0272 34.3024 88.2812 33.5937C87.5301 32.6672 87.388 31.9354 87.4027 30.7748C87.4016 30.6136 87.4005 30.4525 87.3994 30.2864C87.3976 29.9379 87.3976 29.5894 87.3991 29.241C87.4016 28.6882 87.3994 28.1356 87.396 27.5828C87.3908 26.6077 87.3897 25.6326 87.39 24.6575C87.3904 23.0989 87.3876 21.5405 87.3791 19.982C87.3772 19.4396 87.3789 18.8974 87.3808 18.355C87.3796 18.0193 87.3783 17.6836 87.3767 17.3478C87.3782 17.1989 87.3798 17.05 87.3813 16.8966C87.3695 15.6248 87.1628 14.3483 86.2793 13.3911C85.0644 12.7008 83.9177 12.6388 82.5531 12.6454C82.3757 12.6447 82.1983 12.644 82.0155 12.6433C81.6324 12.6419 81.2493 12.6414 80.8662 12.6417C80.2594 12.6419 79.6527 12.6394 79.046 12.636C77.3216 12.627 75.5973 12.6222 73.8729 12.6209C72.8164 12.6199 71.76 12.6152 70.7035 12.6081C70.3016 12.6062 69.8997 12.6058 69.4978 12.6068C68.9359 12.6082 68.3742 12.6048 67.8123 12.6004C67.647 12.602 67.4817 12.6036 67.3114 12.6052C66.2652 12.5906 65.6773 12.4067 64.8438 11.7187C64.1351 10.9728 64.002 10.3744 63.9648 9.37498C64.002 8.37553 64.1351 7.77719 64.8438 7.03123C65.8755 6.16202 66.6873 6.1377 67.9761 6.14889Z" fill="white"/>
<path d="M15.7397 6.1711C15.9362 6.16976 16.1327 6.16842 16.3352 6.16703C16.9784 6.16349 17.6216 6.16421 18.2648 6.16533C18.7146 6.16444 19.1644 6.1634 19.6142 6.16222C20.554 6.16048 21.4936 6.16095 22.4333 6.1629C23.637 6.16515 24.8405 6.16118 26.0441 6.15549C26.9717 6.15191 27.8992 6.15196 28.8268 6.15307C29.2707 6.1531 29.7146 6.15192 30.1584 6.1495C30.7783 6.1466 31.3979 6.14867 32.0177 6.15202C32.2917 6.14919 32.2917 6.14919 32.5713 6.1463C33.6628 6.15866 34.2911 6.30151 35.1563 7.03126C35.865 7.77722 35.9981 8.37556 36.0352 9.37501C35.9981 10.3745 35.865 10.9728 35.1563 11.7188C34.1586 12.5419 33.4317 12.6116 32.1939 12.5973C32.0175 12.5984 31.8411 12.5995 31.6593 12.6006C31.2776 12.6024 30.8959 12.6024 30.5142 12.6009C29.9089 12.5984 29.3037 12.6006 28.6985 12.604C27.6309 12.6092 26.5633 12.6103 25.4957 12.61C23.7891 12.6096 22.0826 12.6124 20.3761 12.6209C19.7818 12.6228 19.1876 12.6211 18.5933 12.6192C18.226 12.6204 17.8587 12.6218 17.4913 12.6233C17.3278 12.6218 17.1643 12.6203 16.9958 12.6187C15.6862 12.6298 14.3808 12.8072 13.3912 13.7207C12.7332 14.8788 12.6385 16.0067 12.6455 17.3035C12.6444 17.5467 12.6444 17.5467 12.6433 17.7949C12.642 18.1447 12.6415 18.4946 12.6418 18.8445C12.642 19.3987 12.6394 19.9529 12.6361 20.5071C12.6271 22.0821 12.6223 23.6571 12.621 25.2322C12.62 26.1975 12.6153 27.1628 12.6082 28.1281C12.6063 28.4951 12.6058 28.8621 12.6069 29.2291C12.6083 29.7423 12.6049 30.2554 12.6005 30.7686C12.6021 30.9193 12.6037 31.0701 12.6053 31.2253C12.5898 32.2402 12.3548 32.8095 11.7188 33.5938C10.9728 34.3024 10.3745 34.4356 9.37504 34.4727C8.37559 34.4356 7.77725 34.3024 7.03129 33.5938C6.20163 32.591 6.13719 31.8503 6.14895 30.6049C6.14758 30.4256 6.14622 30.2463 6.1448 30.0616C6.14137 29.4704 6.14364 28.8794 6.14628 28.2883C6.14576 27.8752 6.145 27.4621 6.14402 27.049C6.14287 26.1831 6.14454 25.3173 6.14819 24.4514C6.15262 23.3468 6.15009 22.2423 6.1454 21.1378C6.14256 20.2842 6.14348 19.4306 6.1455 18.577C6.14602 18.1701 6.14539 17.7632 6.14356 17.3563C6.13124 13.8443 6.57763 11.3025 9.04545 8.64259C10.9478 6.84211 13.1666 6.1586 15.7397 6.1711Z" fill="white"/>
</svg>
